{"glyphs":{"0":{"ha":814,"x_min":149,"x_max":665,"o":"m 311 823 q 333 833 311 823 q 407 842 354 842 q 503 823 460 842 q 572 770 545 804 q 618 694 600 735 q 647 601 637 652 q 661 505 656 549 q 665 411 665 460 q 654 267 665 334 q 619 132 644 201 q 540 22 594 62 q 407 -19 486 -19 q 295 9 343 -19 q 220 81 247 38 q 177 185 194 125 q 155 298 160 245 q 149 411 149 351 q 153 505 149 460 q 167 601 157 549 q 195 694 176 652 q 241 770 214 735 q 311 823 269 804 m 503 745 q 484 763 503 745 q 407 781 464 781 q 310 745 350 781 q 252 648 270 709 q 228 532 235 587 q 221 412 221 476 q 228 292 221 349 q 253 175 235 236 q 310 78 271 114 q 406 42 349 42 q 503 78 463 42 q 561 175 543 114 q 586 292 579 236 q 593 412 593 349 q 586 532 593 476 q 561 649 579 589 q 503 745 543 709 z "},"1":{"ha":814,"x_min":141,"x_max":685,"o":"m 141 723 l 410 842 l 453 842 l 453 64 l 685 64 l 685 0 l 149 0 l 149 64 l 385 64 l 385 764 l 168 663 l 141 723 z "},"2":{"ha":814,"x_min":111,"x_max":642,"o":"m 576 198 l 640 198 l 640 0 l 111 0 l 111 72 q 488 418 347 275 q 551 504 534 464 q 568 594 568 544 q 507 728 568 681 q 381 774 445 774 q 331 768 358 774 q 273 746 304 761 q 224 702 243 731 q 209 633 206 673 l 138 633 l 138 722 q 384 842 239 842 q 563 772 484 842 q 642 591 642 701 q 595 441 642 514 q 451 282 563 389 q 202 66 339 175 l 202 64 l 576 64 l 576 198 z "},"3":{"ha":814,"x_min":114,"x_max":633,"o":"m 114 47 l 140 107 q 365 45 270 45 q 505 94 445 45 q 564 229 564 144 q 549 307 564 273 q 511 359 534 342 q 475 383 488 376 q 452 393 461 391 q 320 406 401 411 l 320 469 q 450 498 407 469 q 521 631 521 545 q 475 738 521 697 q 359 779 429 779 q 189 715 293 779 l 164 700 l 130 753 q 250 820 198 798 q 361 842 302 842 q 522 785 453 842 q 591 632 591 727 q 487 448 591 511 q 588 370 543 425 q 633 232 633 316 q 555 50 633 119 q 361 -19 477 -19 q 281 -10 321 -19 q 212 9 241 -1 q 114 47 183 20 z "},"4":{"ha":814,"x_min":100,"x_max":651,"o":"m 529 842 l 529 263 l 651 263 l 651 198 l 529 198 l 529 64 l 651 64 l 651 0 l 281 0 l 281 64 l 464 64 l 464 198 l 100 198 l 100 277 l 437 842 l 529 842 m 167 263 l 464 263 l 464 764 l 461 764 l 167 263 z "},"5":{"ha":814,"x_min":123,"x_max":663,"o":"m 171 822 l 624 822 l 624 757 l 232 757 l 232 483 q 396 521 323 521 q 590 444 517 521 q 663 255 663 368 q 649 165 663 210 q 604 78 635 121 q 514 8 572 35 q 378 -19 456 -19 q 258 -5 312 -19 q 123 42 205 9 l 148 103 q 373 49 269 49 q 534 106 479 49 q 590 252 590 163 q 534 397 590 338 q 385 457 479 457 q 205 392 290 457 l 171 411 l 171 822 z "},"6":{"ha":814,"x_min":138,"x_max":659,"o":"m 659 842 l 659 774 q 538 775 597 774 q 427 755 480 776 q 330 698 373 735 q 257 586 288 661 q 214 403 227 511 l 217 400 q 414 502 293 502 q 584 423 517 502 q 651 239 651 345 q 583 58 651 134 q 411 -19 514 -19 q 321 -1 366 -19 q 234 58 277 18 q 165 174 191 98 q 138 353 138 251 q 142 426 138 388 q 160 527 145 464 q 201 642 175 590 q 277 743 227 693 q 395 817 327 792 q 659 842 494 850 m 214 288 q 283 106 221 163 q 411 49 345 49 q 529 100 480 49 q 578 239 578 152 q 532 376 578 319 q 414 434 486 434 q 378 431 396 434 q 327 414 359 427 q 264 369 294 401 q 214 288 235 336 z "},"7":{"ha":814,"x_min":129,"x_max":662,"o":"m 129 822 l 662 822 l 662 758 l 399 0 l 320 0 l 594 758 l 195 758 l 195 633 l 129 633 l 129 822 z "},"8":{"ha":814,"x_min":145,"x_max":669,"o":"m 282 419 q 200 492 240 441 q 160 620 160 544 q 231 777 160 712 q 407 842 302 842 q 583 777 511 842 q 654 620 654 712 q 623 507 654 562 q 532 419 591 452 q 634 330 600 389 q 669 214 669 271 q 600 54 669 127 q 407 -19 530 -19 q 214 54 283 -19 q 145 214 145 127 q 183 335 145 278 q 282 419 221 392 m 407 779 q 277 728 321 779 q 233 618 233 677 q 282 502 233 553 q 407 450 331 450 q 528 497 476 450 q 581 618 581 544 q 528 736 581 694 q 407 779 475 779 m 407 387 q 269 334 319 387 q 218 214 218 281 q 273 95 218 145 q 407 45 328 45 q 541 95 486 45 q 595 214 595 145 q 545 334 595 281 q 407 387 494 387 z "},"9":{"ha":814,"x_min":110,"x_max":631,"o":"m 110 -19 l 110 49 q 231 48 172 49 q 342 68 289 47 q 439 125 396 88 q 512 237 481 163 q 555 420 543 312 l 552 423 q 355 321 476 321 q 185 399 252 321 q 118 585 118 477 q 186 766 118 689 q 358 842 255 842 q 448 824 403 842 q 535 766 492 806 q 604 649 578 726 q 631 471 631 572 q 627 397 631 435 q 609 296 624 359 q 568 182 594 233 q 492 81 543 130 q 374 7 442 31 q 110 -19 275 -27 m 555 536 q 486 718 548 661 q 358 774 425 774 q 240 723 289 774 q 191 585 191 671 q 237 447 191 505 q 355 389 283 389 q 391 393 373 389 q 442 409 410 396 q 505 454 475 422 q 555 536 534 487 z "}," ":{"ha":864,"x_min":0,"x_max":0,"o":""},"!":{"ha":814,"x_min":313,"x_max":500,"o":"m 464 774 l 438 262 l 376 262 l 351 774 l 464 774 m 407 144 q 474 119 448 144 q 500 60 500 95 q 473 1 500 26 q 407 -23 446 -23 q 340 1 368 -23 q 313 61 313 26 q 340 119 313 95 q 407 144 368 144 z "},"\"":{"ha":814,"x_min":213,"x_max":601,"o":"m 213 764 l 342 764 l 328 382 l 228 382 l 213 764 m 472 764 l 601 764 l 586 382 l 486 382 l 472 764 z "},"#":{"ha":814,"x_min":106,"x_max":708,"o":"m 273 894 l 336 894 l 320 616 l 517 616 l 533 894 l 597 894 l 581 616 l 708 616 l 708 528 l 576 528 l 563 301 l 708 301 l 708 213 l 559 213 l 543 -77 l 479 -77 l 495 213 l 297 213 l 282 -77 l 218 -77 l 233 213 l 106 213 l 106 301 l 239 301 l 252 528 l 106 528 l 106 616 l 256 616 l 273 894 m 513 528 l 316 528 l 302 301 l 499 301 l 513 528 z "},"$":{"ha":814,"x_min":133,"x_max":666,"o":"m 582 742 l 646 742 q 643 677 643 707 q 658 479 643 602 l 595 472 q 568 578 586 536 q 524 642 551 621 q 481 669 498 662 q 437 682 465 675 l 437 406 q 505 386 481 393 q 565 361 529 378 q 619 326 601 345 q 652 278 637 308 q 666 210 666 248 q 602 77 666 127 q 437 19 537 26 l 437 -184 l 372 -184 l 372 19 q 259 45 334 20 q 229 52 239 52 q 214 44 217 52 q 210 12 212 37 l 146 12 q 133 275 153 127 l 197 275 q 210 220 202 243 q 235 165 217 198 q 287 111 252 132 q 372 84 321 91 l 372 354 q 297 376 324 366 q 232 409 270 387 q 175 467 194 431 q 156 552 156 503 q 215 688 156 636 q 372 749 274 741 l 372 890 l 437 890 l 437 749 q 530 720 479 743 q 563 708 556 708 q 576 714 572 708 q 582 742 579 720 m 372 425 l 372 684 q 227 555 227 661 q 237 503 227 525 q 273 465 248 480 q 317 443 298 450 q 372 425 336 435 m 437 338 l 437 84 q 505 97 473 88 q 566 135 536 106 q 595 209 595 164 q 583 260 595 239 q 543 297 571 282 q 496 319 515 312 q 437 338 476 327 z "},"%":{"ha":814,"x_min":61,"x_max":736,"o":"m 404 286 q 430 315 404 286 q 544 343 456 343 q 684 287 632 343 q 736 161 736 231 q 684 37 736 92 q 544 -19 631 -19 q 404 37 456 -19 q 353 161 353 92 q 404 286 353 229 m 544 279 q 458 244 491 279 q 426 163 426 209 q 458 80 426 115 q 544 45 491 45 q 631 80 600 45 q 663 163 663 115 q 631 244 663 209 q 544 279 600 279 m 252 833 q 393 777 340 833 q 445 651 445 722 q 392 526 445 581 q 252 471 339 471 q 114 526 167 471 q 61 651 61 581 q 113 777 61 720 q 252 833 165 833 m 254 769 q 166 733 198 769 q 134 651 134 697 q 167 570 134 605 q 254 534 199 534 q 339 569 307 534 q 372 651 372 604 q 340 734 372 699 q 254 769 308 769 m 669 570 l 696 506 l 145 262 l 118 326 l 669 570 z "},"&":{"ha":814,"x_min":133,"x_max":727,"o":"m 589 380 l 718 380 l 718 316 l 636 316 q 566 151 605 225 l 625 64 l 727 64 l 727 0 l 572 0 l 517 81 q 330 -11 431 -11 q 186 49 240 -11 q 133 187 133 109 q 176 318 133 258 q 294 407 220 378 q 289 416 294 411 q 229 515 241 488 q 216 578 216 541 q 264 688 216 644 q 391 732 312 732 q 498 709 445 732 q 553 694 536 694 q 604 705 575 694 l 541 608 q 391 667 458 667 q 318 642 340 667 q 296 583 296 616 q 303 550 296 568 q 319 519 311 532 q 349 473 327 506 l 525 212 q 589 380 556 279 m 480 136 l 331 358 q 254 301 286 340 q 222 203 222 262 q 254 103 222 146 q 346 60 286 60 q 480 136 416 60 z "},"'":{"ha":814,"x_min":330,"x_max":484,"o":"m 330 764 l 484 764 l 457 381 l 355 381 l 330 764 z "},"(":{"ha":814,"x_min":389,"x_max":628,"o":"m 559 880 l 628 880 q 577 780 595 819 q 530 668 559 741 q 486 522 500 595 q 471 374 471 448 q 502 171 471 279 q 559 7 533 62 q 628 -130 585 -47 l 559 -130 q 436 123 483 -16 q 389 374 389 262 q 435 625 389 486 q 559 880 481 765 z "},")":{"ha":814,"x_min":186,"x_max":426,"o":"m 256 -130 l 186 -130 q 345 374 345 160 q 329 523 345 448 q 284 671 313 598 q 236 783 255 743 q 186 880 217 822 l 256 880 q 382 619 338 755 q 426 374 426 483 q 380 125 426 263 q 256 -130 335 -12 z "},"*":{"ha":814,"x_min":151,"x_max":663,"o":"m 361 764 l 453 764 l 445 564 l 635 633 l 663 547 l 468 492 l 594 335 l 519 279 l 407 449 l 294 279 l 220 335 l 346 492 l 151 547 l 179 633 l 369 564 l 361 764 z "},"+":{"ha":814,"x_min":90,"x_max":724,"o":"m 373 723 l 441 723 l 441 445 l 724 445 l 724 377 l 441 377 l 441 99 l 373 99 l 373 377 l 90 377 l 90 445 l 373 445 l 373 723 z "},",":{"ha":814,"x_min":240,"x_max":484,"o":"m 343 180 l 484 180 l 336 -148 l 240 -148 l 343 180 z "},"-":{"ha":814,"x_min":263,"x_max":551,"o":"m 263 430 l 551 430 l 551 355 l 263 355 l 263 430 z "},".":{"ha":814,"x_min":302,"x_max":511,"o":"m 334 136 q 350 149 334 136 q 407 161 366 161 q 479 136 448 161 q 511 69 511 110 q 479 3 511 28 q 407 -23 448 -23 q 335 2 368 -23 q 302 69 302 27 q 334 136 302 110 z "},"/":{"ha":814,"x_min":123,"x_max":690,"o":"m 632 952 l 690 928 l 182 -180 l 123 -153 l 632 952 z "},":":{"ha":814,"x_min":302,"x_max":511,"o":"m 407 529 q 479 503 448 529 q 511 437 511 477 q 479 370 511 396 q 407 345 446 345 q 335 370 368 345 q 302 437 302 395 q 335 503 302 477 q 407 529 368 529 m 407 161 q 479 136 448 161 q 511 69 511 110 q 479 3 511 28 q 407 -23 446 -23 q 335 2 368 -23 q 302 69 302 27 q 335 136 302 110 q 407 161 368 161 z "},";":{"ha":814,"x_min":245,"x_max":511,"o":"m 350 182 l 490 182 l 342 -146 l 245 -146 l 350 182 m 407 529 q 479 503 448 529 q 511 437 511 477 q 479 370 511 396 q 407 345 446 345 q 335 370 368 345 q 302 437 302 395 q 335 503 302 477 q 407 529 368 529 z "},"<":{"ha":814,"x_min":73,"x_max":741,"o":"m 713 121 l 73 418 l 713 722 l 741 661 l 224 418 l 741 180 l 713 121 z "},"=":{"ha":814,"x_min":87,"x_max":727,"o":"m 87 568 l 727 568 l 727 500 l 87 500 l 87 568 m 87 323 l 727 323 l 727 255 l 87 255 l 87 323 z "},">":{"ha":814,"x_min":73,"x_max":741,"o":"m 100 715 l 741 418 l 100 114 l 73 175 l 590 418 l 73 655 l 100 715 z "},"?":{"ha":814,"x_min":163,"x_max":643,"o":"m 163 590 l 163 728 q 286 766 243 755 q 382 776 328 776 q 574 711 505 776 q 643 553 643 646 q 619 455 643 498 q 552 387 595 412 q 476 348 509 361 q 397 323 444 335 l 397 241 l 331 241 l 331 373 q 358 380 346 378 q 417 395 397 389 q 471 416 437 401 q 524 448 506 431 q 557 493 543 464 q 572 557 572 522 q 529 661 572 613 q 384 709 486 709 q 231 677 313 709 l 231 590 l 163 590 m 294 119 q 308 132 294 119 q 361 144 321 144 q 427 120 400 144 q 454 61 454 96 q 427 1 454 24 q 361 -23 399 -23 q 295 1 323 -23 q 267 61 267 24 q 294 119 267 95 z "},"@":{"ha":814,"x_min":43,"x_max":769,"o":"m 694 134 l 723 77 q 719 75 722 77 q 715 73 716 73 q 391 -19 559 -19 q 133 89 222 -19 q 43 353 43 197 q 144 631 43 521 q 419 741 244 741 q 671 650 572 741 q 769 403 769 560 q 714 216 769 288 q 572 144 659 144 q 534 150 547 144 q 480 186 521 156 q 465 213 465 197 q 336 141 401 141 q 265 173 300 141 q 231 278 231 205 q 290 461 231 374 q 430 548 350 548 q 507 494 475 548 l 519 541 l 590 541 l 532 330 q 518 262 518 275 q 535 226 518 244 q 581 208 552 208 q 667 267 631 208 q 704 411 704 327 q 623 608 704 538 q 416 677 541 677 q 190 581 266 677 q 114 351 114 486 q 129 242 114 294 q 176 144 144 190 q 264 72 208 99 q 395 45 320 45 q 665 119 525 45 l 685 130 q 690 133 686 130 l 694 134 m 343 208 q 431 277 391 208 q 471 412 471 347 q 456 461 471 442 q 422 480 441 480 q 338 409 377 480 q 300 273 300 338 q 311 229 300 250 q 343 208 321 208 z "},"A":{"ha":814,"x_min":14,"x_max":800,"o":"m 153 764 l 445 764 l 731 64 l 800 64 l 800 0 l 522 0 l 522 64 l 661 64 l 583 252 l 229 252 l 153 64 l 292 64 l 292 0 l 14 0 l 14 64 l 85 64 l 347 700 l 153 700 l 153 764 m 560 312 l 407 684 l 254 312 l 560 312 z "},"B":{"ha":814,"x_min":61,"x_max":738,"o":"m 61 764 l 431 764 q 627 707 563 764 q 690 567 690 650 q 583 399 690 454 q 738 209 738 353 q 711 107 738 153 q 642 38 685 61 q 555 7 598 15 q 419 0 511 0 l 61 0 l 61 64 l 174 64 l 174 700 l 61 700 l 61 764 m 429 700 l 241 700 l 241 429 l 422 429 q 528 444 484 429 q 589 484 571 460 q 613 529 606 509 q 620 570 620 549 q 596 644 620 614 q 533 684 572 674 q 473 697 494 694 q 429 700 452 700 m 411 365 l 241 365 l 241 64 l 416 64 q 469 64 450 64 q 523 69 488 65 q 578 82 557 73 q 623 106 600 91 q 656 148 646 122 q 667 209 667 174 q 598 327 667 289 q 411 365 529 365 z "},"C":{"ha":814,"x_min":87,"x_max":806,"o":"m 761 183 l 806 134 q 453 -23 642 -23 q 184 96 281 -23 q 87 391 87 216 q 191 676 87 566 q 450 787 294 787 q 624 728 557 787 q 647 713 642 713 q 667 779 661 713 l 718 779 q 731 519 713 656 l 667 509 q 623 639 652 595 q 448 719 568 719 q 239 625 317 719 q 160 392 160 530 q 168 303 160 347 q 197 212 176 259 q 249 127 217 164 q 334 68 281 91 q 453 45 387 45 q 761 183 604 45 z "},"D":{"ha":814,"x_min":46,"x_max":747,"o":"m 46 764 l 385 764 q 549 745 487 764 q 663 662 612 726 q 747 396 747 557 q 635 79 747 186 q 380 0 552 0 l 46 0 l 46 64 l 153 64 l 153 700 l 46 700 l 46 764 m 387 700 l 221 700 l 221 64 l 380 64 q 583 127 518 64 q 674 392 674 218 q 610 612 674 524 q 522 684 571 667 q 387 700 473 700 z "},"E":{"ha":814,"x_min":77,"x_max":734,"o":"m 77 764 l 722 764 l 727 514 l 665 514 l 651 700 l 260 700 l 260 435 l 480 435 l 480 534 l 543 534 l 543 274 l 480 274 l 480 372 l 260 372 l 260 64 l 665 64 l 671 250 l 734 250 l 734 0 l 77 0 l 77 64 l 193 64 l 193 700 l 77 700 l 77 764 z "},"F":{"ha":814,"x_min":98,"x_max":741,"o":"m 98 764 l 734 764 l 741 519 l 680 519 l 663 700 l 275 700 l 275 435 l 495 435 l 495 534 l 557 534 l 557 274 l 495 274 l 495 372 l 275 372 l 275 64 l 452 64 l 452 0 l 98 0 l 98 64 l 208 64 l 208 700 l 98 700 l 98 764 z "},"G":{"ha":814,"x_min":65,"x_max":784,"o":"m 643 779 l 708 779 q 705 753 705 768 q 700 643 700 693 q 708 519 700 585 l 650 509 q 641 555 646 536 q 621 608 636 574 q 583 663 605 642 q 519 702 560 685 q 423 719 477 719 q 220 623 302 719 q 138 380 138 528 q 216 138 138 232 q 442 45 294 45 q 650 88 525 45 l 650 271 l 449 271 l 449 335 l 784 335 l 784 271 l 719 271 l 719 43 q 441 -23 562 -23 q 266 14 342 -23 q 148 111 190 50 q 85 239 106 172 q 65 378 65 307 q 163 666 65 545 q 426 787 260 787 q 595 728 524 787 q 623 712 613 712 q 635 722 632 712 q 643 779 637 731 z "},"H":{"ha":814,"x_min":53,"x_max":762,"o":"m 53 764 l 324 764 l 324 700 l 222 700 l 222 426 l 591 426 l 591 700 l 490 700 l 490 764 l 762 764 l 762 700 l 659 700 l 659 64 l 762 64 l 762 0 l 490 0 l 490 64 l 591 64 l 591 362 l 222 362 l 222 64 l 324 64 l 324 0 l 53 0 l 53 64 l 155 64 l 155 700 l 53 700 l 53 764 z "},"I":{"ha":814,"x_min":136,"x_max":678,"o":"m 136 764 l 678 764 l 678 700 l 441 700 l 441 64 l 678 64 l 678 0 l 136 0 l 136 64 l 373 64 l 373 700 l 136 700 l 136 764 z "},"J":{"ha":814,"x_min":80,"x_max":785,"o":"m 278 764 l 785 764 l 785 700 l 613 700 l 613 277 q 574 64 613 123 q 492 -1 544 20 q 391 -23 441 -23 q 118 53 282 -23 l 92 64 l 80 357 l 146 357 l 152 225 q 166 139 155 168 q 216 87 178 110 q 376 45 282 45 q 458 60 425 45 q 508 94 491 75 q 534 149 525 113 q 544 210 543 186 q 545 277 545 233 l 545 700 l 278 700 l 278 764 z "},"K":{"ha":814,"x_min":81,"x_max":798,"o":"m 81 764 l 378 764 l 378 700 l 263 700 l 263 368 l 605 700 l 494 700 l 494 764 l 758 764 l 758 700 l 697 700 l 403 414 q 536 304 471 380 q 673 64 601 229 l 798 64 l 798 0 l 624 0 q 536 183 601 62 q 454 296 494 254 q 357 368 414 339 l 263 278 l 263 64 l 378 64 l 378 0 l 81 0 l 81 64 l 195 64 l 195 700 l 81 700 l 81 764 z "},"L":{"ha":814,"x_min":80,"x_max":750,"o":"m 80 764 l 450 764 l 450 700 l 283 700 l 283 64 l 667 64 l 686 338 l 750 338 l 735 0 l 80 0 l 80 64 l 216 64 l 216 700 l 80 700 l 80 764 z "},"M":{"ha":814,"x_min":1,"x_max":812,"o":"m 11 764 l 237 764 l 392 304 l 416 304 l 585 764 l 803 764 l 803 700 l 707 700 l 730 64 l 812 64 l 812 0 l 525 0 l 525 64 l 670 64 l 650 700 l 625 700 l 435 195 l 365 195 l 189 700 l 164 700 l 144 64 l 289 64 l 289 0 l 1 0 l 1 64 l 84 64 l 107 700 l 11 700 l 11 764 z "},"N":{"ha":814,"x_min":38,"x_max":802,"o":"m 38 764 l 270 764 l 627 57 l 651 57 l 651 700 l 499 700 l 499 764 l 802 764 l 802 700 l 713 700 l 713 -18 l 593 -18 l 229 700 l 206 700 l 206 64 l 359 64 l 359 0 l 38 0 l 38 64 l 144 64 l 144 700 l 38 700 l 38 764 z "},"O":{"ha":814,"x_min":58,"x_max":755,"o":"m 58 381 q 155 670 58 553 q 407 787 251 787 q 660 669 564 787 q 755 381 755 552 q 660 94 755 212 q 407 -23 564 -23 q 155 94 251 -23 q 58 381 58 210 m 132 382 q 205 147 132 250 q 407 45 279 45 q 608 146 534 45 q 682 382 682 247 q 608 619 682 519 q 407 719 533 719 q 204 616 277 719 q 132 382 132 514 z "},"P":{"ha":814,"x_min":96,"x_max":724,"o":"m 96 764 l 407 764 q 608 728 544 764 q 692 644 659 700 q 724 526 724 589 q 696 417 724 469 q 625 340 669 365 q 528 307 578 313 q 350 300 479 300 l 274 300 l 274 64 l 473 64 l 473 0 l 96 0 l 96 64 l 206 64 l 206 700 l 96 700 l 96 764 m 407 700 l 274 700 l 274 363 l 351 363 q 457 364 426 363 q 530 374 488 365 q 594 400 572 382 q 651 529 651 445 q 627 618 651 581 q 570 673 602 656 q 407 700 519 700 z "},"Q":{"ha":814,"x_min":58,"x_max":755,"o":"m 700 -71 l 742 -119 q 605 -174 665 -174 q 490 -141 563 -174 q 384 -114 429 -114 q 312 -126 343 -114 q 224 -170 281 -138 l 193 -119 q 308 -9 266 -72 q 126 133 194 26 q 58 381 58 240 q 160 677 58 567 q 406 787 262 787 q 655 673 555 787 q 755 376 755 559 q 736 235 755 302 q 675 106 716 167 q 559 11 635 46 q 384 -23 484 -24 q 374 -34 380 -28 q 362 -46 369 -39 q 359 -49 361 -47 l 357 -49 l 357 -52 q 369 -51 359 -52 q 387 -50 378 -50 q 506 -77 439 -50 q 600 -106 576 -106 q 700 -71 647 -106 m 132 382 q 205 147 132 250 q 407 45 279 45 q 608 146 534 45 q 682 382 682 247 q 608 619 682 519 q 407 719 533 719 q 204 616 277 719 q 132 382 132 514 z "},"R":{"ha":814,"x_min":61,"x_max":783,"o":"m 61 764 l 410 764 q 521 757 481 764 q 594 727 560 750 q 653 655 629 703 q 677 559 677 608 q 627 425 677 487 q 469 351 576 362 q 663 64 518 305 l 783 64 l 783 0 l 613 0 q 483 232 567 100 q 435 302 450 282 q 396 336 420 321 q 338 350 372 350 l 240 350 l 240 64 l 361 64 l 361 0 l 61 0 l 61 64 l 172 64 l 172 700 l 61 700 l 61 764 m 407 700 l 240 700 l 240 414 l 366 414 q 420 414 400 414 q 479 422 439 415 q 543 444 519 430 q 585 489 566 458 q 604 563 604 519 q 547 677 604 637 q 407 700 513 700 z "},"S":{"ha":814,"x_min":134,"x_max":696,"o":"m 627 779 l 688 779 q 675 681 675 726 q 688 519 675 618 l 627 509 q 585 636 616 589 q 412 719 530 719 q 261 669 315 719 q 208 559 208 618 q 229 486 208 515 q 288 441 250 456 q 351 422 327 427 q 414 414 376 418 q 539 395 499 404 q 612 365 579 387 q 696 208 696 308 q 612 37 696 98 q 418 -23 528 -23 q 232 39 307 -23 q 221 45 227 45 q 208 34 214 45 q 195 -27 202 18 l 134 -27 q 146 94 146 31 q 134 237 146 123 l 195 237 q 241 117 212 156 q 408 45 296 45 q 572 92 521 45 q 623 202 623 140 q 609 261 623 236 q 577 300 595 286 q 530 324 559 315 q 481 336 500 334 q 434 342 463 339 q 360 350 388 346 q 284 369 332 354 q 208 404 236 384 q 157 463 179 425 q 134 553 134 502 q 212 718 134 648 q 404 787 290 787 q 572 731 502 787 q 604 712 598 712 q 614 719 612 712 q 624 761 617 726 q 627 779 627 772 z "},"T":{"ha":814,"x_min":58,"x_max":755,"o":"m 81 764 l 732 764 l 755 444 l 690 435 l 671 700 l 441 700 l 441 64 l 605 64 l 605 0 l 209 0 l 209 64 l 373 64 l 373 700 l 142 700 l 123 435 l 58 444 l 81 764 z "},"U":{"ha":814,"x_min":33,"x_max":783,"o":"m 33 764 l 336 764 l 336 700 l 198 700 l 198 317 q 224 141 198 194 q 406 45 270 45 q 590 130 547 45 q 617 304 617 179 l 617 700 l 479 700 l 479 764 l 783 764 l 783 700 l 685 700 l 685 304 q 636 76 685 144 q 549 7 609 38 q 407 -23 490 -23 q 176 83 251 -23 q 130 317 130 149 l 130 700 l 33 700 l 33 764 z "},"V":{"ha":814,"x_min":8,"x_max":806,"o":"m 8 764 l 298 764 l 298 700 l 171 700 l 411 76 l 655 700 l 517 700 l 517 764 l 806 764 l 806 700 l 720 700 l 452 0 l 368 0 l 102 700 l 8 700 l 8 764 z "},"W":{"ha":814,"x_min":3,"x_max":811,"o":"m 3 764 l 270 764 l 270 700 l 133 700 l 209 130 l 212 130 l 387 624 l 433 624 l 604 130 l 606 130 l 685 700 l 547 700 l 547 764 l 811 764 l 811 700 l 749 700 l 647 0 l 579 0 l 407 494 l 404 494 l 229 0 l 161 0 l 66 700 l 3 700 l 3 764 z "},"X":{"ha":814,"x_min":45,"x_max":769,"o":"m 71 764 l 334 764 l 334 700 l 222 700 l 408 452 l 598 700 l 495 700 l 495 764 l 743 764 l 743 700 l 674 700 l 446 401 l 699 64 l 769 64 l 769 0 l 495 0 l 495 64 l 617 64 l 408 351 l 190 64 l 334 64 l 334 0 l 45 0 l 45 64 l 114 64 l 370 401 l 142 700 l 71 700 l 71 764 z "},"Y":{"ha":814,"x_min":43,"x_max":770,"o":"m 43 764 l 309 764 l 309 700 l 206 700 l 411 363 l 613 700 l 507 700 l 507 764 l 770 764 l 770 700 l 685 700 l 442 296 l 442 64 l 602 64 l 602 0 l 213 0 l 213 64 l 374 64 l 374 296 l 129 700 l 43 700 l 43 764 z "},"Z":{"ha":814,"x_min":114,"x_max":700,"o":"m 123 764 l 669 764 l 669 708 l 195 64 l 636 64 l 636 283 l 700 283 l 700 0 l 114 0 l 114 64 l 582 700 l 187 700 l 187 502 l 123 502 l 123 764 z "},"[":{"ha":814,"x_min":419,"x_max":658,"o":"m 419 887 l 658 887 l 658 819 l 487 819 l 487 -60 l 658 -60 l 658 -127 l 419 -127 l 419 887 z "},"\\":{"ha":814,"x_min":126,"x_max":693,"o":"m 184 956 l 693 -161 l 635 -189 l 126 930 l 184 956 z "},"]":{"ha":814,"x_min":156,"x_max":395,"o":"m 395 -127 l 156 -127 l 156 -60 l 327 -60 l 327 819 l 156 819 l 156 887 l 395 887 l 395 -127 z "},"^":{"ha":814,"x_min":99,"x_max":715,"o":"m 407 682 l 186 209 l 99 209 l 357 764 l 457 764 l 715 209 l 628 209 l 407 682 z "},"_":{"ha":814,"x_min":-65,"x_max":879,"o":"m -65 -102 l 879 -102 l 879 -170 l -65 -170 l -65 -102 z "},"`":{"ha":814,"x_min":258,"x_max":507,"o":"m 258 838 l 403 838 l 507 682 l 437 682 l 258 838 z "},"a":{"ha":814,"x_min":80,"x_max":746,"o":"m 625 401 l 625 64 l 746 64 l 746 0 l 557 0 l 557 98 q 298 -19 431 -19 q 141 39 202 -19 q 80 172 80 98 q 94 236 80 203 q 139 302 109 269 q 229 356 170 335 q 368 377 288 377 q 557 359 468 377 l 557 401 q 556 433 557 420 q 547 470 555 446 q 522 508 538 494 q 473 534 506 522 q 393 545 439 545 q 161 488 292 545 l 136 549 q 395 610 282 610 q 507 593 460 610 q 576 553 553 575 q 610 497 598 532 q 624 445 623 463 q 625 401 625 427 m 557 189 l 557 297 q 381 312 472 312 q 272 298 319 312 q 203 268 225 285 q 170 227 182 251 q 155 192 157 203 q 153 171 153 180 q 197 83 153 121 q 297 46 240 46 q 557 189 430 46 z "},"b":{"ha":814,"x_min":7,"x_max":738,"o":"m 7 841 l 199 853 l 199 469 l 202 469 q 434 589 293 589 q 649 500 560 589 q 738 286 738 412 q 652 77 738 168 q 439 -14 567 -14 q 348 -2 389 -14 q 275 33 307 9 q 231 69 244 57 q 199 104 218 81 l 199 0 l 23 0 l 23 64 l 132 64 l 132 784 l 7 777 l 7 841 m 201 289 q 269 123 201 193 q 438 54 338 54 q 600 123 536 54 q 665 288 665 193 q 600 452 665 382 q 437 521 534 521 q 269 452 338 521 q 201 289 201 382 z "},"c":{"ha":814,"x_min":96,"x_max":745,"o":"m 647 601 l 709 594 q 697 469 697 513 q 701 380 697 433 l 639 370 l 633 393 q 625 424 629 412 q 607 460 621 435 q 573 498 593 484 q 515 524 553 511 q 427 536 477 536 q 237 463 304 536 q 170 294 170 391 q 234 123 170 198 q 422 49 298 49 q 709 164 544 49 l 745 113 q 415 -19 568 -19 q 186 71 275 -19 q 96 293 96 161 q 117 403 96 349 q 175 503 137 457 q 277 576 213 548 q 420 604 340 604 q 620 532 533 604 q 625 528 624 528 q 639 557 633 528 q 647 601 642 575 z "},"d":{"ha":814,"x_min":72,"x_max":788,"o":"m 382 825 l 673 850 l 673 64 l 788 64 l 788 0 l 605 0 l 605 100 l 602 100 q 373 -14 518 -14 q 159 75 247 -14 q 72 288 72 164 q 163 504 72 419 q 370 589 254 589 q 500 557 435 589 q 602 472 566 526 l 605 472 l 605 777 l 387 764 l 382 825 m 602 285 q 541 448 602 374 q 373 521 479 521 q 213 456 281 521 q 145 289 145 391 q 212 121 145 187 q 373 54 279 54 q 534 121 467 54 q 602 285 602 187 z "},"e":{"ha":814,"x_min":100,"x_max":758,"o":"m 727 137 l 758 77 q 430 -19 586 -19 q 186 71 273 -19 q 100 290 100 161 q 189 512 100 420 q 422 604 277 604 q 648 521 566 604 q 730 334 730 438 q 728 298 730 321 q 727 273 727 275 l 174 273 q 187 206 175 240 q 225 134 199 172 q 304 71 251 95 q 431 46 358 46 q 727 137 545 46 m 174 336 l 656 336 q 595 475 655 412 q 422 538 534 538 q 310 516 359 538 q 233 459 260 494 q 192 394 206 425 q 174 336 178 363 z "},"f":{"ha":814,"x_min":132,"x_max":686,"o":"m 132 567 l 273 567 l 273 643 q 279 723 273 692 q 305 786 285 754 q 370 833 326 818 q 486 848 415 848 q 686 826 570 848 l 658 758 q 468 780 571 780 q 395 770 422 780 q 356 735 368 760 q 342 693 345 711 q 340 639 340 675 l 340 567 l 629 567 l 629 503 l 340 503 l 340 64 l 629 64 l 629 0 l 132 0 l 132 64 l 273 64 l 273 503 l 132 503 l 132 567 z "},"g":{"ha":814,"x_min":64,"x_max":750,"o":"m 572 583 l 750 583 l 750 519 l 640 519 l 640 41 q 572 -151 640 -90 q 330 -213 505 -213 l 244 -213 l 244 -149 q 349 -148 313 -149 q 429 -141 384 -146 q 494 -124 473 -136 q 536 -92 515 -113 q 565 -38 557 -71 q 572 41 572 -5 l 572 119 l 570 119 q 491 50 549 87 q 354 14 433 14 q 148 99 232 14 q 64 301 64 184 q 151 506 64 423 q 354 589 237 589 q 401 586 376 589 q 481 557 427 583 q 570 484 536 530 l 572 484 l 572 583 m 572 298 q 509 458 572 396 q 357 521 445 521 q 203 458 270 521 q 137 302 137 396 q 201 146 137 210 q 357 81 266 81 q 511 146 450 81 q 572 298 572 212 z "},"h":{"ha":814,"x_min":34,"x_max":780,"o":"m 34 837 l 233 853 l 233 507 q 300 553 274 537 q 374 587 327 570 q 465 604 420 604 q 612 542 557 604 q 666 380 666 480 l 666 64 l 780 64 l 780 0 l 483 0 l 483 64 l 598 64 l 598 374 q 563 492 598 448 q 468 536 528 536 q 233 427 366 536 l 233 64 l 340 64 l 340 0 l 52 0 l 52 64 l 165 64 l 165 784 l 39 773 l 34 837 z "},"i":{"ha":814,"x_min":137,"x_max":678,"o":"m 176 583 l 444 583 l 444 64 l 678 64 l 678 0 l 137 0 l 137 64 l 376 64 l 376 519 l 176 519 l 176 583 m 346 728 l 346 890 l 444 890 l 444 728 l 346 728 z "},"j":{"ha":814,"x_min":92,"x_max":529,"o":"m 115 583 l 529 583 l 529 54 q 528 16 529 31 q 523 -28 528 1 q 509 -79 518 -58 q 481 -125 500 -99 q 437 -167 463 -151 q 370 -194 411 -183 q 275 -205 328 -205 q 92 -182 202 -205 l 107 -117 q 279 -137 195 -137 q 368 -122 331 -137 q 422 -89 404 -107 q 449 -39 439 -71 q 460 12 458 -7 q 461 64 461 31 l 461 519 l 115 519 l 115 583 m 404 728 l 404 890 l 502 890 l 502 728 l 404 728 z "},"k":{"ha":814,"x_min":49,"x_max":764,"o":"m 49 836 l 251 853 l 251 324 l 505 517 l 505 519 l 429 519 l 429 583 l 712 583 l 712 519 l 606 519 l 378 345 q 650 64 553 187 l 764 64 l 764 0 l 481 0 l 481 64 l 568 64 q 327 307 498 148 l 251 248 l 251 0 l 71 0 l 71 64 l 183 64 l 183 783 l 54 772 l 49 836 z "},"l":{"ha":814,"x_min":137,"x_max":677,"o":"m 145 810 l 441 829 l 441 64 l 677 64 l 677 0 l 137 0 l 137 64 l 373 64 l 373 764 l 152 747 l 145 810 z "},"m":{"ha":814,"x_min":0,"x_max":812,"o":"m 0 583 l 155 583 l 155 536 l 172 551 q 289 598 220 598 q 369 576 332 598 q 425 513 406 553 q 579 598 498 598 q 648 582 614 598 q 700 540 682 566 q 728 477 720 510 q 735 369 735 444 l 735 64 l 812 64 l 812 0 l 667 0 l 667 369 q 666 428 667 408 q 657 476 665 448 q 631 517 650 505 q 581 530 612 530 q 448 441 511 530 l 448 64 l 532 64 l 532 0 l 380 0 l 380 374 q 379 415 380 401 q 374 454 378 429 q 361 494 370 480 q 334 519 353 507 q 290 530 316 530 q 160 454 221 530 l 160 64 l 252 64 l 252 0 l 0 0 l 0 64 l 92 64 l 92 519 l 0 519 l 0 583 z "},"n":{"ha":814,"x_min":46,"x_max":769,"o":"m 46 583 l 225 583 l 225 507 q 293 553 269 538 q 365 586 317 568 q 458 604 412 604 q 606 541 551 604 q 661 380 661 479 l 661 64 l 769 64 l 769 0 l 476 0 l 476 64 l 593 64 l 593 374 q 556 492 593 449 q 460 536 519 536 q 225 427 362 536 l 225 64 l 339 64 l 339 0 l 46 0 l 46 64 l 157 64 l 157 519 l 46 519 l 46 583 z "},"o":{"ha":814,"x_min":71,"x_max":743,"o":"m 71 296 q 160 518 71 426 q 407 610 250 610 q 655 517 567 610 q 743 296 743 423 q 655 75 743 168 q 407 -19 567 -19 q 160 74 250 -19 q 71 296 71 167 m 214 470 q 179 434 214 470 q 144 296 144 397 q 214 121 144 194 q 407 49 285 49 q 600 122 530 49 q 670 296 670 195 q 600 470 670 397 q 407 543 530 543 q 214 470 285 543 z "},"p":{"ha":814,"x_min":26,"x_max":743,"o":"m 26 583 l 205 583 l 205 487 l 208 487 q 441 601 292 601 q 659 510 574 601 q 743 297 743 419 q 651 78 743 165 q 444 -9 559 -9 q 208 107 301 -9 l 205 107 l 205 -149 l 407 -149 l 407 -213 l 26 -213 l 26 -149 l 137 -149 l 137 519 l 26 519 l 26 583 m 199 301 q 275 124 199 190 q 441 58 351 58 q 602 127 534 58 q 670 298 670 197 q 610 462 670 391 q 442 533 549 533 q 269 465 338 533 q 199 301 199 396 z "},"q":{"ha":814,"x_min":71,"x_max":788,"o":"m 788 583 l 788 519 l 677 519 l 677 -149 l 788 -149 l 788 -213 l 407 -213 l 407 -149 l 609 -149 l 609 107 l 606 107 q 370 -9 513 -9 q 163 78 255 -9 q 71 297 71 165 q 155 510 71 419 q 373 601 240 601 q 606 487 522 601 l 609 487 l 609 583 l 788 583 m 614 301 q 545 465 614 396 q 372 533 476 533 q 204 462 264 533 q 144 298 144 391 q 212 127 144 197 q 373 58 279 58 q 538 124 463 58 q 614 301 614 190 z "},"r":{"ha":814,"x_min":102,"x_max":770,"o":"m 113 583 l 338 583 l 338 448 q 391 499 372 481 q 450 546 411 517 q 531 589 490 575 q 618 602 572 602 q 690 589 658 602 q 736 564 722 576 q 770 528 751 551 l 699 475 q 693 484 693 480 q 676 508 682 500 q 651 525 670 515 q 608 534 632 534 q 525 517 567 534 q 444 465 483 499 q 385 412 404 431 q 338 361 366 392 l 338 64 l 595 64 l 595 0 l 102 0 l 102 64 l 270 64 l 270 519 l 113 519 l 113 583 z "},"s":{"ha":814,"x_min":132,"x_max":684,"o":"m 593 610 l 654 601 q 642 484 642 537 q 648 399 642 456 l 589 392 q 576 438 583 420 q 549 481 570 456 q 486 520 529 507 q 376 533 442 533 q 253 505 298 533 q 208 433 208 476 q 216 391 208 408 q 245 361 224 373 q 286 342 267 350 q 345 331 305 335 q 410 325 385 327 q 487 320 434 323 q 520 317 505 319 q 568 307 536 316 q 624 283 601 297 q 665 239 647 269 q 684 168 684 209 q 604 28 684 77 q 425 -20 525 -20 q 225 37 326 -20 q 218 39 221 39 q 191 -18 206 39 l 132 -18 q 140 68 140 28 q 132 202 140 109 l 191 209 q 199 174 195 189 q 217 133 202 159 q 254 90 232 107 q 316 60 275 73 q 410 47 357 47 q 465 52 437 47 q 530 66 494 56 q 588 103 566 77 q 610 165 610 129 q 597 213 610 195 q 553 239 585 231 q 496 251 522 248 q 416 255 469 254 q 134 430 134 266 q 201 552 134 503 q 374 601 269 601 q 530 562 467 601 q 560 549 543 549 q 585 582 574 549 l 593 610 z "},"t":{"ha":814,"x_min":142,"x_max":730,"o":"m 235 764 l 302 764 l 302 564 l 631 564 l 631 500 l 302 500 l 302 244 q 303 184 302 203 q 311 133 304 164 q 332 87 319 102 q 374 61 346 73 q 444 49 403 49 q 705 119 537 49 l 730 58 q 450 -19 559 -19 q 282 42 343 -19 q 242 117 250 75 q 235 244 235 160 l 235 500 l 142 500 l 142 564 l 235 564 l 235 764 z "},"u":{"ha":814,"x_min":43,"x_max":754,"o":"m 43 583 l 222 583 l 222 224 q 358 49 222 49 q 576 167 471 49 l 576 519 l 460 519 l 460 583 l 644 583 l 644 64 l 754 64 l 754 0 l 576 0 l 576 75 q 363 -19 472 -19 q 259 3 302 -19 q 194 63 216 26 q 163 140 172 100 q 155 224 155 179 l 155 519 l 43 519 l 43 583 z "},"v":{"ha":814,"x_min":28,"x_max":785,"o":"m 28 583 l 317 583 l 317 519 l 208 519 l 411 79 l 617 519 l 510 519 l 510 583 l 785 583 l 785 519 l 685 519 l 439 0 l 376 0 l 129 519 l 28 519 l 28 583 z "},"w":{"ha":814,"x_min":3,"x_max":811,"o":"m 3 583 l 245 583 l 245 519 l 133 519 l 252 109 l 255 109 l 388 477 l 435 477 l 570 103 l 572 103 l 694 519 l 581 519 l 581 583 l 811 583 l 811 519 l 758 519 l 606 0 l 536 0 l 407 350 l 281 0 l 214 0 l 61 519 l 3 519 l 3 583 z "},"x":{"ha":814,"x_min":35,"x_max":779,"o":"m 56 583 l 317 583 l 317 519 l 235 519 l 404 350 l 574 519 l 495 519 l 495 583 l 745 583 l 745 519 l 662 519 l 449 305 l 693 64 l 779 64 l 779 0 l 503 0 l 503 64 l 600 64 l 404 262 l 208 64 l 302 64 l 302 0 l 35 0 l 35 64 l 119 64 l 358 305 l 142 519 l 56 519 l 56 583 z "},"y":{"ha":814,"x_min":33,"x_max":799,"o":"m 33 583 l 286 583 l 286 519 l 193 519 l 407 107 l 643 519 l 551 519 l 551 583 l 799 583 l 799 519 l 720 519 l 340 -144 l 461 -144 l 461 -208 l 54 -208 l 54 -144 l 263 -144 l 368 37 l 115 519 l 33 519 l 33 583 z "},"z":{"ha":814,"x_min":141,"x_max":673,"o":"m 155 583 l 673 583 l 673 525 l 233 64 l 609 64 l 609 189 l 673 189 l 673 0 l 141 0 l 141 64 l 576 519 l 218 519 l 218 399 l 155 399 l 155 583 z "},"{":{"ha":814,"x_min":319,"x_max":625,"o":"m 625 884 l 625 819 q 572 817 593 819 q 525 805 551 814 q 486 774 499 796 q 472 718 472 753 q 488 608 472 678 l 499 560 q 506 500 506 513 q 493 444 506 469 q 467 406 480 418 q 431 377 454 395 q 466 349 453 361 q 492 311 479 336 q 506 255 506 285 q 499 195 506 243 l 488 148 q 472 37 472 77 q 486 -20 472 1 q 528 -51 500 -42 q 576 -62 556 -60 q 625 -64 595 -64 l 625 -129 q 514 -118 548 -129 q 431 -58 461 -100 q 401 39 401 -15 q 410 107 401 69 q 422 163 416 145 q 434 258 434 227 q 319 343 434 331 l 319 412 q 434 500 434 423 q 422 593 434 532 q 401 712 401 696 q 625 884 401 884 z "},"|":{"ha":814,"x_min":372,"x_max":444,"o":"m 444 913 l 444 -251 l 372 -251 l 372 913 l 444 913 z "},"}":{"ha":814,"x_min":189,"x_max":495,"o":"m 189 -129 l 189 -64 q 242 -61 221 -64 q 289 -50 263 -58 q 328 -19 315 -41 q 342 38 342 3 q 326 148 342 77 l 315 195 q 308 255 308 243 q 321 312 308 286 q 347 349 334 338 q 382 378 359 361 q 348 407 361 395 q 321 445 335 419 q 308 500 308 471 q 315 560 308 513 l 326 608 q 342 719 342 678 q 328 776 342 754 q 286 806 313 798 q 238 817 258 815 q 189 819 218 819 l 189 884 q 300 873 266 884 q 382 813 353 856 q 412 716 412 770 q 404 648 412 686 q 392 593 397 610 q 380 498 380 529 q 495 412 380 423 l 495 343 q 380 255 380 332 q 392 163 380 224 q 412 43 412 60 q 189 -129 412 -129 z "},"~":{"ha":814,"x_min":117,"x_max":699,"o":"m 652 525 l 699 473 q 532 345 625 345 q 404 382 499 345 q 282 423 309 423 q 234 406 256 423 q 199 370 212 389 q 161 311 186 351 l 117 363 q 157 429 141 406 q 208 476 174 452 q 282 500 243 500 q 425 457 321 500 q 530 422 510 422 q 646 513 594 422 q 652 525 646 518 z "},"¡":{"ha":814,"x_min":313,"x_max":500,"o":"m 350 -187 l 376 326 l 438 326 l 463 -187 l 350 -187 m 407 444 q 340 468 366 444 q 313 528 313 492 q 340 586 313 562 q 407 610 368 610 q 473 586 446 610 q 500 526 500 562 q 473 468 500 492 q 407 444 446 444 z "},"¢":{"ha":814,"x_min":151,"x_max":690,"o":"m 450 583 l 450 184 q 549 210 513 195 q 658 267 586 224 l 690 212 q 686 210 689 212 q 682 208 684 208 q 574 149 616 165 q 450 118 532 133 l 450 -77 l 384 -77 l 384 118 q 269 157 308 134 q 198 225 231 179 q 151 381 151 296 q 212 554 151 480 q 384 646 274 628 l 384 830 l 450 830 l 450 646 q 524 629 490 643 q 570 606 557 616 q 590 589 583 595 q 594 586 591 589 q 598 583 597 583 q 608 596 604 583 q 612 614 612 609 q 614 631 614 625 l 678 624 q 666 514 666 551 q 670 433 666 494 l 606 425 q 555 549 602 514 q 450 583 509 583 m 384 186 l 384 579 q 304 545 338 568 q 256 498 271 522 q 231 446 240 475 q 222 405 222 416 q 221 382 221 393 q 267 251 221 311 q 384 186 307 202 z "},"£":{"ha":814,"x_min":130,"x_max":716,"o":"m 130 460 l 254 460 q 218 608 218 553 q 290 766 218 701 q 461 830 362 830 q 616 798 533 830 q 631 793 628 793 q 642 807 636 793 l 703 807 q 677 655 684 734 l 616 648 q 618 693 618 692 q 601 731 618 719 q 464 764 544 764 q 333 716 381 764 q 285 609 285 669 q 321 460 285 562 l 651 460 l 651 396 l 340 396 q 353 297 353 342 q 281 66 353 172 l 283 64 q 380 90 335 90 q 484 65 422 90 q 562 45 538 45 q 677 100 609 45 l 716 52 q 566 -19 646 -19 q 471 1 525 -19 q 373 26 404 26 q 220 -27 311 26 l 175 31 q 289 292 289 148 q 273 396 289 345 l 130 396 l 130 460 z "},"¤":{"ha":814,"x_min":102,"x_max":712,"o":"m 601 237 l 712 129 l 665 83 l 555 191 q 407 141 492 141 q 259 191 324 141 l 149 83 l 102 129 l 213 237 q 165 373 165 307 q 213 529 165 461 l 102 639 l 149 684 l 259 575 q 407 625 323 625 q 555 575 487 625 l 665 684 l 712 639 l 601 529 q 650 393 650 461 q 601 237 650 305 m 535 258 q 561 285 535 258 q 586 384 586 312 q 536 509 586 456 q 407 562 486 562 q 278 508 327 562 q 229 384 229 454 q 278 258 229 312 q 406 205 327 205 q 535 258 484 205 z "},"¥":{"ha":814,"x_min":43,"x_max":770,"o":"m 444 189 l 444 64 l 605 64 l 605 0 l 217 0 l 217 64 l 378 64 l 378 189 l 179 189 l 179 252 l 378 252 l 378 331 l 179 331 l 179 395 l 378 395 l 378 412 l 126 741 l 43 741 l 43 804 l 311 804 l 311 741 l 208 741 l 411 476 l 610 741 l 507 741 l 507 804 l 770 804 l 770 741 l 689 741 l 444 412 l 444 395 l 639 395 l 639 331 l 444 331 l 444 252 l 639 252 l 639 189 l 444 189 z "},"¦":{"ha":814,"x_min":372,"x_max":444,"o":"m 444 913 l 444 407 l 372 407 l 372 913 l 444 913 m 444 255 l 444 -251 l 372 -251 l 372 255 l 444 255 z "},"§":{"ha":814,"x_min":168,"x_max":665,"o":"m 636 764 l 636 583 l 572 583 l 572 700 l 416 700 q 316 621 316 700 q 365 540 316 576 l 552 396 q 613 346 594 363 q 648 300 632 328 q 665 237 665 271 q 638 157 665 195 q 552 106 612 118 q 578 24 578 65 q 528 -84 578 -45 q 392 -123 477 -123 l 178 -123 l 178 72 l 241 72 l 241 -60 l 400 -60 q 475 -39 442 -60 q 507 23 507 -18 q 452 106 507 64 l 270 245 q 193 317 217 286 q 168 391 168 347 q 201 479 168 438 q 278 529 233 519 q 245 620 245 564 q 308 736 245 694 q 435 764 347 764 l 636 764 m 510 343 l 336 477 q 289 465 309 475 q 260 446 269 456 q 245 422 251 435 q 239 404 240 410 q 239 392 239 397 q 252 353 239 372 q 307 304 264 335 l 491 161 q 571 189 548 164 q 594 237 594 213 q 578 283 594 262 q 510 343 562 304 z "},"¨":{"ha":814,"x_min":270,"x_max":544,"o":"m 270 696 l 270 842 l 368 842 l 368 696 l 270 696 m 446 696 l 446 842 l 544 842 l 544 696 l 446 696 z "},"©":{"ha":814,"x_min":14,"x_max":800,"o":"m 583 595 l 583 464 l 545 464 q 532 545 541 532 q 429 586 507 586 q 303 532 349 586 q 258 399 258 477 q 304 260 258 317 q 425 202 350 202 q 495 221 464 202 q 538 256 526 240 q 562 298 549 273 l 594 285 q 519 192 571 224 q 406 160 468 160 q 248 228 308 160 q 189 393 189 296 q 250 557 189 490 q 423 625 312 625 q 583 595 499 625 m 407 787 q 685 672 570 787 q 800 393 800 557 q 685 114 800 229 q 407 -1 570 -1 q 129 115 244 -1 q 14 393 14 231 q 130 672 14 557 q 407 787 245 787 m 648 635 q 598 685 648 635 q 407 735 548 735 q 165 635 266 735 q 65 392 65 534 q 165 151 65 251 q 407 50 266 50 q 648 151 548 50 q 749 392 749 251 q 648 635 749 534 z "},"ª":{"ha":814,"x_min":235,"x_max":579,"o":"m 278 707 l 259 753 q 397 787 343 787 q 521 678 521 787 l 521 518 l 579 518 l 579 469 l 469 469 l 469 507 q 350 460 407 460 q 269 490 302 460 q 235 562 235 519 q 277 641 235 610 q 385 671 319 671 q 469 665 420 671 l 469 674 q 452 723 469 708 q 396 738 434 738 q 278 707 350 738 m 469 574 l 469 616 q 392 623 422 623 q 315 606 343 623 q 286 562 286 590 q 305 524 286 540 q 350 509 324 509 q 469 574 411 509 m 241 410 l 572 410 l 572 361 l 241 361 l 241 410 z "},"«":{"ha":814,"x_min":107,"x_max":705,"o":"m 425 583 l 469 534 l 206 308 l 464 84 l 425 35 l 107 308 l 425 583 m 662 583 l 705 534 l 442 308 l 701 84 l 662 35 l 343 308 l 662 583 z "},"¬":{"ha":814,"x_min":122,"x_max":704,"o":"m 122 594 l 704 594 l 704 229 l 636 229 l 636 526 l 122 526 l 122 594 z "},"®":{"ha":814,"x_min":14,"x_max":800,"o":"m 217 598 l 217 632 l 404 632 q 562 517 562 632 q 458 400 562 425 q 532 279 488 378 q 565 224 552 233 q 613 216 578 214 l 613 183 l 559 183 q 505 206 522 183 q 465 286 487 229 q 422 372 438 358 q 358 387 407 387 l 334 387 l 334 251 q 343 220 334 225 q 389 214 345 218 l 389 183 l 217 183 l 217 214 q 227 215 220 214 q 236 217 233 216 q 267 224 262 220 q 273 251 273 228 l 273 567 q 264 594 273 591 q 217 598 260 595 m 334 571 l 334 419 l 365 419 q 500 513 500 419 q 389 600 500 600 q 342 595 351 600 q 334 571 334 591 m 407 787 q 685 672 570 787 q 800 393 800 557 q 685 116 800 232 q 407 0 570 0 q 129 116 244 0 q 14 393 14 232 q 130 672 14 557 q 407 787 245 787 m 407 735 q 165 635 266 735 q 65 393 65 536 q 165 152 65 252 q 407 52 264 52 q 649 152 549 52 q 749 393 749 252 q 648 635 749 536 q 407 735 547 735 z "},"¯":{"ha":814,"x_min":176,"x_max":637,"o":"m 176 803 l 637 803 l 637 735 l 176 735 l 176 803 z "},"°":{"ha":814,"x_min":199,"x_max":614,"o":"m 260 487 q 230 517 260 487 q 199 633 199 547 q 260 781 199 720 q 407 842 320 842 q 554 781 494 842 q 614 633 614 719 q 554 488 614 548 q 407 427 494 427 q 260 487 320 427 m 274 635 q 313 541 274 581 q 407 502 353 502 q 501 541 463 502 q 540 635 540 579 q 501 729 540 690 q 407 768 463 768 q 313 729 351 768 q 274 635 274 690 z "},"±":{"ha":814,"x_min":90,"x_max":724,"o":"m 373 781 l 441 781 l 441 515 l 724 515 l 724 448 l 441 448 l 441 182 l 373 182 l 373 448 l 90 448 l 90 515 l 373 515 l 373 781 m 90 110 l 724 110 l 724 42 l 90 42 l 90 110 z "},"²":{"ha":814,"x_min":227,"x_max":552,"o":"m 498 468 l 551 468 l 551 336 l 227 336 l 227 389 l 239 400 q 391 537 239 400 q 476 626 458 600 q 494 690 494 652 q 464 760 494 731 q 392 788 434 788 q 327 768 354 788 q 298 720 300 747 l 300 704 l 243 704 l 243 768 q 393 842 302 842 q 506 798 460 842 q 552 689 552 753 q 524 601 552 640 q 403 476 495 562 l 309 391 l 498 391 l 498 468 z "},"³":{"ha":814,"x_min":225,"x_max":547,"o":"m 263 739 l 235 785 q 380 842 321 842 q 481 805 441 842 q 522 712 522 768 q 471 606 522 648 q 547 479 547 560 q 500 368 547 411 q 380 324 453 324 q 251 357 328 324 l 225 368 l 247 418 q 382 378 331 378 q 459 407 429 378 q 490 479 490 435 q 380 571 490 571 l 347 571 l 347 625 q 431 644 407 627 q 465 711 465 670 q 441 766 465 745 q 380 788 416 788 q 283 753 335 788 l 263 739 z "},"´":{"ha":814,"x_min":292,"x_max":557,"o":"m 557 838 l 363 682 l 292 682 l 412 838 l 557 838 z "},"µ":{"ha":814,"x_min":49,"x_max":762,"o":"m 49 583 l 228 583 l 228 263 q 235 170 228 201 q 266 110 243 138 q 400 47 316 47 q 441 51 420 47 q 488 67 461 54 q 534 102 514 80 q 568 166 553 125 q 582 263 582 208 l 582 519 l 471 519 l 471 583 l 650 583 l 650 64 l 762 64 l 762 0 l 582 0 l 582 94 l 579 94 q 397 -20 513 -20 q 297 10 340 -20 q 231 84 254 41 l 228 84 l 228 -212 l 160 -212 l 160 519 l 49 519 l 49 583 z "},"¶":{"ha":814,"x_min":137,"x_max":673,"o":"m 602 723 l 602 -64 l 673 -64 l 673 -104 l 515 -104 l 515 -64 l 541 -64 l 541 723 l 430 723 l 430 -64 l 456 -64 l 456 -104 l 285 -104 l 285 -64 l 369 -64 l 369 354 q 289 360 327 351 q 215 390 251 369 q 158 455 179 411 q 137 562 137 499 q 146 646 137 610 q 177 704 156 682 q 218 739 198 726 q 272 756 237 751 q 327 762 307 761 q 387 764 347 764 l 667 764 l 667 723 l 602 723 m 369 395 l 369 723 q 323 720 339 722 q 287 707 308 718 q 256 669 266 696 q 247 601 247 643 l 247 519 q 248 496 247 509 q 257 464 250 484 q 276 428 264 444 q 312 402 288 412 q 369 395 336 392 z "},"·":{"ha":814,"x_min":302,"x_max":511,"o":"m 334 477 q 350 490 334 477 q 407 503 366 503 q 479 477 448 503 q 511 411 511 452 q 479 345 511 370 q 407 319 448 319 q 335 344 368 319 q 302 411 302 369 q 334 477 302 452 z "},"¸":{"ha":814,"x_min":274,"x_max":532,"o":"m 441 -3 l 437 -34 q 501 -60 477 -39 q 528 -94 525 -80 q 532 -118 532 -107 q 529 -138 532 -127 q 517 -163 526 -148 q 483 -187 507 -178 q 423 -197 458 -197 q 274 -176 366 -197 l 283 -117 q 422 -136 363 -136 q 468 -118 468 -136 q 444 -94 468 -100 q 370 -84 420 -88 l 380 -3 l 441 -3 z "},"¹":{"ha":814,"x_min":241,"x_max":578,"o":"m 241 769 l 407 842 l 442 842 l 442 391 l 578 391 l 578 336 l 248 336 l 248 391 l 387 391 l 387 774 l 263 720 l 241 769 z "},"º":{"ha":814,"x_min":233,"x_max":581,"o":"m 282 505 q 258 528 282 505 q 233 623 233 551 q 282 741 233 694 q 407 787 331 787 q 532 741 483 787 q 581 623 581 694 q 532 505 581 551 q 407 460 483 460 q 282 505 331 460 m 288 624 q 321 541 288 572 q 407 509 354 509 q 493 541 460 509 q 526 624 526 572 q 493 706 526 674 q 407 738 460 738 q 321 706 354 738 q 288 624 288 674 m 241 410 l 572 410 l 572 361 l 241 361 l 241 410 z "},"»":{"ha":814,"x_min":109,"x_max":707,"o":"m 389 583 l 707 308 l 389 35 l 350 84 l 608 308 l 345 534 l 389 583 m 153 583 l 471 308 l 153 35 l 113 84 l 372 308 l 109 534 l 153 583 z "},"¼":{"ha":814,"x_min":35,"x_max":811,"o":"m 726 401 l 726 62 l 798 62 l 798 12 l 726 12 l 726 -56 l 798 -56 l 798 -104 l 583 -104 l 583 -56 l 674 -56 l 674 12 l 458 12 l 458 66 l 661 401 l 726 401 m 674 62 l 674 327 l 671 327 l 515 62 l 674 62 m 35 785 l 175 844 l 208 844 l 208 389 l 311 389 l 311 338 l 52 338 l 52 389 l 156 389 l 156 780 l 57 739 l 35 785 m 773 859 l 811 831 l 119 -122 l 81 -92 l 773 859 z "},"½":{"ha":814,"x_min":26,"x_max":802,"o":"m 26 785 l 167 844 l 198 844 l 198 389 l 301 389 l 301 338 l 42 338 l 42 389 l 146 389 l 146 780 l 47 739 l 26 785 m 754 859 l 793 831 l 102 -122 l 64 -92 l 754 859 m 754 24 l 800 24 l 800 -104 l 490 -104 l 490 -52 q 502 -42 491 -50 q 511 -34 505 -39 q 532 -14 517 -28 q 567 18 548 1 l 686 132 q 736 193 723 168 q 749 248 749 217 q 720 320 749 292 q 646 349 690 349 q 583 328 610 349 q 555 282 555 308 q 555 276 555 281 q 556 266 556 271 l 505 266 l 505 327 q 648 400 564 400 q 758 357 715 400 q 802 248 802 313 q 774 156 802 199 q 673 46 746 113 l 589 -28 l 563 -53 l 754 -53 l 754 24 z "},"¾":{"ha":814,"x_min":30,"x_max":821,"o":"m 684 62 l 684 327 l 681 327 l 525 62 l 684 62 m 735 401 l 735 62 l 807 62 l 807 12 l 735 12 l 735 -56 l 807 -56 l 807 -104 l 593 -104 l 593 -56 l 684 -56 l 684 12 l 468 12 l 468 66 l 670 401 l 735 401 m 65 745 l 39 788 q 184 844 125 844 q 287 806 245 844 q 328 715 328 769 q 274 608 328 650 q 353 480 353 563 q 305 370 353 414 q 184 327 258 327 q 54 359 140 327 l 30 369 l 50 416 q 187 378 132 378 q 267 406 236 378 q 298 480 298 434 q 269 552 298 526 q 184 576 239 578 l 155 575 l 155 625 q 239 644 214 627 q 274 713 274 669 q 249 770 274 747 q 184 792 224 792 q 85 757 145 792 l 65 745 m 783 859 l 821 831 l 129 -122 l 91 -92 l 783 859 z "},"¿":{"ha":814,"x_min":163,"x_max":643,"o":"m 643 -4 l 643 -142 q 520 -180 563 -170 q 423 -190 477 -190 q 232 -125 301 -190 q 163 33 163 -60 q 186 131 163 88 q 254 199 210 174 q 330 238 297 225 q 408 263 362 251 l 408 345 l 475 345 l 475 213 q 448 206 460 208 q 389 191 408 197 q 334 170 369 184 q 281 138 300 155 q 248 93 263 122 q 233 28 233 64 q 277 -75 233 -27 q 422 -123 320 -123 q 575 -91 492 -123 l 575 -4 l 643 -4 m 513 468 q 499 456 513 468 q 446 444 486 444 q 380 467 407 444 q 353 526 353 491 q 380 587 353 563 q 446 610 408 610 q 512 587 484 610 q 540 526 540 563 q 513 468 540 492 z "},"À":{"ha":814,"x_min":14,"x_max":800,"o":"m 153 764 l 445 764 l 731 64 l 800 64 l 800 0 l 522 0 l 522 64 l 661 64 l 583 252 l 229 252 l 153 64 l 292 64 l 292 0 l 14 0 l 14 64 l 85 64 l 347 700 l 153 700 l 153 764 m 560 312 l 407 684 l 254 312 l 560 312 m 258 1019 l 403 1019 l 507 863 l 437 863 l 258 1019 z "},"Á":{"ha":814,"x_min":14,"x_max":800,"o":"m 153 764 l 445 764 l 731 64 l 800 64 l 800 0 l 522 0 l 522 64 l 661 64 l 583 252 l 229 252 l 153 64 l 292 64 l 292 0 l 14 0 l 14 64 l 85 64 l 347 700 l 153 700 l 153 764 m 560 312 l 407 684 l 254 312 l 560 312 m 557 1019 l 363 863 l 292 863 l 412 1019 l 557 1019 z "},"Â":{"ha":814,"x_min":14,"x_max":800,"o":"m 153 764 l 445 764 l 731 64 l 800 64 l 800 0 l 522 0 l 522 64 l 661 64 l 583 252 l 229 252 l 153 64 l 292 64 l 292 0 l 14 0 l 14 64 l 85 64 l 347 700 l 153 700 l 153 764 m 560 312 l 407 684 l 254 312 l 560 312 m 351 1023 l 456 1023 l 581 895 l 537 861 l 400 951 l 277 861 l 232 894 l 351 1023 z "},"Ã":{"ha":814,"x_min":14,"x_max":800,"o":"m 153 764 l 445 764 l 731 64 l 800 64 l 800 0 l 522 0 l 522 64 l 661 64 l 583 252 l 229 252 l 153 64 l 292 64 l 292 0 l 14 0 l 14 64 l 85 64 l 347 700 l 153 700 l 153 764 m 560 312 l 407 684 l 254 312 l 560 312 m 570 1020 l 624 1002 q 621 993 621 1000 q 569 908 605 939 q 488 878 533 878 q 392 921 446 878 q 317 960 339 960 q 247 890 274 960 l 244 882 l 190 901 q 317 1021 233 1021 q 418 975 363 1021 q 492 939 467 939 q 570 1020 541 939 z "},"Ä":{"ha":814,"x_min":14,"x_max":800,"o":"m 153 764 l 445 764 l 731 64 l 800 64 l 800 0 l 522 0 l 522 64 l 661 64 l 583 252 l 229 252 l 153 64 l 292 64 l 292 0 l 14 0 l 14 64 l 85 64 l 347 700 l 153 700 l 153 764 m 560 312 l 407 684 l 254 312 l 560 312 m 270 876 l 270 1023 l 368 1023 l 368 876 l 270 876 m 446 876 l 446 1023 l 544 1023 l 544 876 l 446 876 z "},"Å":{"ha":814,"x_min":14,"x_max":800,"o":"m 153 764 l 445 764 l 731 64 l 800 64 l 800 0 l 522 0 l 522 64 l 661 64 l 583 252 l 229 252 l 153 64 l 292 64 l 292 0 l 14 0 l 14 64 l 85 64 l 347 700 l 153 700 l 153 764 m 560 312 l 407 684 l 254 312 l 560 312 m 334 1021 q 349 1036 334 1021 q 407 1051 363 1051 q 480 1021 450 1051 q 510 948 510 991 q 480 875 510 905 q 407 845 450 845 q 334 875 363 845 q 304 948 304 905 q 334 1021 304 991 m 444 985 q 437 992 444 985 q 408 1000 430 1000 q 371 985 387 1000 q 355 948 355 971 q 371 911 355 926 q 408 897 387 897 q 444 911 430 897 q 458 948 458 926 q 444 985 458 970 z "},"Æ":{"ha":814,"x_min":26,"x_max":754,"o":"m 214 764 l 745 764 l 745 519 l 684 519 l 671 700 l 477 700 l 477 437 l 566 437 l 566 536 l 628 536 l 628 274 l 566 274 l 566 373 l 477 373 l 477 64 l 684 64 l 692 252 l 754 252 l 754 0 l 410 0 l 410 250 l 243 250 l 165 64 l 286 64 l 286 0 l 26 0 l 26 64 l 98 64 l 354 700 l 214 700 l 214 764 m 410 313 l 410 684 l 407 684 l 266 313 l 410 313 z "},"Ç":{"ha":814,"x_min":87,"x_max":806,"o":"m 480 -23 l 480 -34 q 543 -58 511 -34 q 575 -118 575 -81 q 572 -137 575 -127 q 560 -162 570 -146 q 526 -187 551 -178 q 467 -197 502 -197 q 317 -176 410 -197 l 327 -117 q 468 -136 410 -136 q 511 -118 511 -136 q 488 -94 511 -100 q 414 -84 464 -88 l 422 -23 q 261 29 330 -14 q 157 134 193 72 q 104 261 121 197 q 87 391 87 326 q 191 676 87 566 q 450 787 294 787 q 600 747 537 787 q 613 736 602 746 q 633 720 624 727 q 647 713 643 713 q 667 779 661 713 l 718 779 q 731 519 713 656 l 667 509 q 659 555 663 536 q 640 608 655 574 q 602 663 624 642 q 541 702 581 685 q 448 719 500 719 q 248 634 335 719 q 160 392 160 549 q 234 146 160 247 q 453 45 308 45 q 761 183 604 45 l 806 134 q 480 -23 656 -8 z "},"È":{"ha":814,"x_min":77,"x_max":734,"o":"m 77 764 l 722 764 l 727 514 l 665 514 l 651 700 l 260 700 l 260 435 l 480 435 l 480 534 l 543 534 l 543 274 l 480 274 l 480 372 l 260 372 l 260 64 l 665 64 l 671 250 l 734 250 l 734 0 l 77 0 l 77 64 l 193 64 l 193 700 l 77 700 l 77 764 m 258 1019 l 403 1019 l 507 863 l 437 863 l 258 1019 z "},"É":{"ha":814,"x_min":77,"x_max":734,"o":"m 77 764 l 722 764 l 727 514 l 665 514 l 651 700 l 260 700 l 260 435 l 480 435 l 480 534 l 543 534 l 543 274 l 480 274 l 480 372 l 260 372 l 260 64 l 665 64 l 671 250 l 734 250 l 734 0 l 77 0 l 77 64 l 193 64 l 193 700 l 77 700 l 77 764 m 557 1019 l 363 863 l 292 863 l 412 1019 l 557 1019 z "},"Ê":{"ha":814,"x_min":77,"x_max":734,"o":"m 77 764 l 722 764 l 727 514 l 665 514 l 651 700 l 260 700 l 260 435 l 480 435 l 480 534 l 543 534 l 543 274 l 480 274 l 480 372 l 260 372 l 260 64 l 665 64 l 671 250 l 734 250 l 734 0 l 77 0 l 77 64 l 193 64 l 193 700 l 77 700 l 77 764 m 351 1023 l 456 1023 l 581 895 l 537 861 l 400 951 l 277 861 l 232 894 l 351 1023 z "},"Ë":{"ha":814,"x_min":77,"x_max":734,"o":"m 77 764 l 722 764 l 727 514 l 665 514 l 651 700 l 260 700 l 260 435 l 480 435 l 480 534 l 543 534 l 543 274 l 480 274 l 480 372 l 260 372 l 260 64 l 665 64 l 671 250 l 734 250 l 734 0 l 77 0 l 77 64 l 193 64 l 193 700 l 77 700 l 77 764 m 270 876 l 270 1023 l 368 1023 l 368 876 l 270 876 m 446 876 l 446 1023 l 544 1023 l 544 876 l 446 876 z "},"Ì":{"ha":814,"x_min":136,"x_max":678,"o":"m 136 764 l 678 764 l 678 700 l 441 700 l 441 64 l 678 64 l 678 0 l 136 0 l 136 64 l 373 64 l 373 700 l 136 700 l 136 764 m 258 1019 l 403 1019 l 507 863 l 437 863 l 258 1019 z "},"Í":{"ha":814,"x_min":136,"x_max":678,"o":"m 136 764 l 678 764 l 678 700 l 441 700 l 441 64 l 678 64 l 678 0 l 136 0 l 136 64 l 373 64 l 373 700 l 136 700 l 136 764 m 557 1019 l 363 863 l 292 863 l 412 1019 l 557 1019 z "},"Î":{"ha":814,"x_min":136,"x_max":678,"o":"m 136 764 l 678 764 l 678 700 l 441 700 l 441 64 l 678 64 l 678 0 l 136 0 l 136 64 l 373 64 l 373 700 l 136 700 l 136 764 m 351 1023 l 456 1023 l 581 895 l 537 861 l 400 951 l 277 861 l 232 894 l 351 1023 z "},"Ï":{"ha":814,"x_min":136,"x_max":678,"o":"m 136 764 l 678 764 l 678 700 l 441 700 l 441 64 l 678 64 l 678 0 l 136 0 l 136 64 l 373 64 l 373 700 l 136 700 l 136 764 m 270 876 l 270 1023 l 368 1023 l 368 876 l 270 876 m 446 876 l 446 1023 l 544 1023 l 544 876 l 446 876 z "},"Ð":{"ha":814,"x_min":46,"x_max":747,"o":"m 153 372 l 46 372 l 46 435 l 153 435 l 153 700 l 46 700 l 46 764 l 385 764 q 549 745 487 764 q 663 662 612 726 q 747 396 747 557 q 635 79 747 186 q 380 0 552 0 l 46 0 l 46 64 l 153 64 l 153 372 m 446 372 l 221 372 l 221 64 l 380 64 q 583 127 518 64 q 674 392 674 218 q 610 612 674 524 q 522 684 571 667 q 387 700 473 700 l 221 700 l 221 435 l 446 435 l 446 372 z "},"Ñ":{"ha":814,"x_min":38,"x_max":802,"o":"m 38 764 l 270 764 l 627 57 l 651 57 l 651 700 l 499 700 l 499 764 l 802 764 l 802 700 l 713 700 l 713 -18 l 593 -18 l 229 700 l 206 700 l 206 64 l 359 64 l 359 0 l 38 0 l 38 64 l 144 64 l 144 700 l 38 700 l 38 764 m 570 1020 l 624 1002 q 621 993 621 1000 q 569 908 605 939 q 488 878 533 878 q 392 921 446 878 q 317 960 339 960 q 247 890 274 960 l 244 882 l 190 901 q 317 1021 233 1021 q 418 975 363 1021 q 492 939 467 939 q 570 1020 541 939 z "},"Ò":{"ha":814,"x_min":58,"x_max":755,"o":"m 58 381 q 155 670 58 553 q 407 787 251 787 q 660 669 564 787 q 755 381 755 552 q 660 94 755 212 q 407 -23 564 -23 q 155 94 251 -23 q 58 381 58 210 m 132 382 q 205 147 132 250 q 407 45 279 45 q 608 146 534 45 q 682 382 682 247 q 608 619 682 519 q 407 719 533 719 q 204 616 277 719 q 132 382 132 514 m 258 1019 l 403 1019 l 507 863 l 437 863 l 258 1019 z "},"Ó":{"ha":814,"x_min":58,"x_max":755,"o":"m 58 381 q 155 670 58 553 q 407 787 251 787 q 660 669 564 787 q 755 381 755 552 q 660 94 755 212 q 407 -23 564 -23 q 155 94 251 -23 q 58 381 58 210 m 132 382 q 205 147 132 250 q 407 45 279 45 q 608 146 534 45 q 682 382 682 247 q 608 619 682 519 q 407 719 533 719 q 204 616 277 719 q 132 382 132 514 m 557 1019 l 363 863 l 292 863 l 412 1019 l 557 1019 z "},"Ô":{"ha":814,"x_min":58,"x_max":755,"o":"m 58 381 q 155 670 58 553 q 407 787 251 787 q 660 669 564 787 q 755 381 755 552 q 660 94 755 212 q 407 -23 564 -23 q 155 94 251 -23 q 58 381 58 210 m 132 382 q 205 147 132 250 q 407 45 279 45 q 608 146 534 45 q 682 382 682 247 q 608 619 682 519 q 407 719 533 719 q 204 616 277 719 q 132 382 132 514 m 351 1023 l 456 1023 l 581 895 l 537 861 l 400 951 l 277 861 l 232 894 l 351 1023 z "},"Õ":{"ha":814,"x_min":58,"x_max":755,"o":"m 58 381 q 155 670 58 553 q 407 787 251 787 q 660 669 564 787 q 755 381 755 552 q 660 94 755 212 q 407 -23 564 -23 q 155 94 251 -23 q 58 381 58 210 m 132 382 q 205 147 132 250 q 407 45 279 45 q 608 146 534 45 q 682 382 682 247 q 608 619 682 519 q 407 719 533 719 q 204 616 277 719 q 132 382 132 514 m 570 1020 l 624 1002 q 621 993 621 1000 q 569 908 605 939 q 488 878 533 878 q 392 921 446 878 q 317 960 339 960 q 247 890 274 960 l 244 882 l 190 901 q 317 1021 233 1021 q 418 975 363 1021 q 492 939 467 939 q 570 1020 541 939 z "},"Ö":{"ha":814,"x_min":58,"x_max":755,"o":"m 58 381 q 155 670 58 553 q 407 787 251 787 q 660 669 564 787 q 755 381 755 552 q 660 94 755 212 q 407 -23 564 -23 q 155 94 251 -23 q 58 381 58 210 m 132 382 q 205 147 132 250 q 407 45 279 45 q 608 146 534 45 q 682 382 682 247 q 608 619 682 519 q 407 719 533 719 q 204 616 277 719 q 132 382 132 514 m 270 876 l 270 1023 l 368 1023 l 368 876 l 270 876 m 446 876 l 446 1023 l 544 1023 l 544 876 l 446 876 z "},"×":{"ha":814,"x_min":160,"x_max":654,"o":"m 359 415 l 160 614 l 209 662 l 407 464 l 605 662 l 654 614 l 454 415 l 654 217 l 605 168 l 407 368 l 209 168 l 160 217 l 359 415 z "},"Ø":{"ha":814,"x_min":58,"x_max":755,"o":"m 201 50 l 133 -31 l 87 5 l 155 94 q 58 380 58 220 q 155 669 58 552 q 408 787 251 787 q 628 703 529 787 l 681 769 l 728 734 l 669 658 q 755 378 755 553 q 661 94 755 212 q 412 -23 566 -23 q 201 50 289 -23 m 623 598 l 240 106 q 407 45 313 45 q 606 142 529 45 q 682 380 682 239 q 623 598 682 500 m 201 152 l 585 647 q 406 719 522 719 q 207 618 282 719 q 132 384 132 518 q 148 264 132 331 q 201 152 164 197 z "},"Ù":{"ha":814,"x_min":33,"x_max":783,"o":"m 33 764 l 336 764 l 336 700 l 198 700 l 198 317 q 224 141 198 194 q 406 45 270 45 q 590 130 547 45 q 617 304 617 179 l 617 700 l 479 700 l 479 764 l 783 764 l 783 700 l 685 700 l 685 304 q 636 76 685 144 q 549 7 609 38 q 407 -23 490 -23 q 176 83 251 -23 q 130 317 130 149 l 130 700 l 33 700 l 33 764 m 258 1019 l 403 1019 l 507 863 l 437 863 l 258 1019 z "},"Ú":{"ha":814,"x_min":33,"x_max":783,"o":"m 33 764 l 336 764 l 336 700 l 198 700 l 198 317 q 224 141 198 194 q 406 45 270 45 q 590 130 547 45 q 617 304 617 179 l 617 700 l 479 700 l 479 764 l 783 764 l 783 700 l 685 700 l 685 304 q 636 76 685 144 q 549 7 609 38 q 407 -23 490 -23 q 176 83 251 -23 q 130 317 130 149 l 130 700 l 33 700 l 33 764 m 557 1019 l 363 863 l 292 863 l 412 1019 l 557 1019 z "},"Û":{"ha":814,"x_min":33,"x_max":783,"o":"m 33 764 l 336 764 l 336 700 l 198 700 l 198 317 q 224 141 198 194 q 406 45 270 45 q 590 130 547 45 q 617 304 617 179 l 617 700 l 479 700 l 479 764 l 783 764 l 783 700 l 685 700 l 685 304 q 636 76 685 144 q 549 7 609 38 q 407 -23 490 -23 q 176 83 251 -23 q 130 317 130 149 l 130 700 l 33 700 l 33 764 m 351 1023 l 456 1023 l 581 895 l 537 861 l 400 951 l 277 861 l 232 894 l 351 1023 z "},"Ü":{"ha":814,"x_min":33,"x_max":783,"o":"m 33 764 l 336 764 l 336 700 l 198 700 l 198 317 q 224 141 198 194 q 406 45 270 45 q 590 130 547 45 q 617 304 617 179 l 617 700 l 479 700 l 479 764 l 783 764 l 783 700 l 685 700 l 685 304 q 636 76 685 144 q 549 7 609 38 q 407 -23 490 -23 q 176 83 251 -23 q 130 317 130 149 l 130 700 l 33 700 l 33 764 m 270 876 l 270 1023 l 368 1023 l 368 876 l 270 876 m 446 876 l 446 1023 l 544 1023 l 544 876 l 446 876 z "},"Ý":{"ha":814,"x_min":43,"x_max":770,"o":"m 43 764 l 309 764 l 309 700 l 206 700 l 411 363 l 613 700 l 507 700 l 507 764 l 770 764 l 770 700 l 685 700 l 442 296 l 442 64 l 602 64 l 602 0 l 213 0 l 213 64 l 374 64 l 374 296 l 129 700 l 43 700 l 43 764 m 557 1019 l 363 863 l 292 863 l 412 1019 l 557 1019 z "},"Þ":{"ha":814,"x_min":96,"x_max":724,"o":"m 274 64 l 427 64 l 427 0 l 96 0 l 96 64 l 206 64 l 206 700 l 96 700 l 96 764 l 427 764 l 427 700 l 274 700 l 274 631 l 349 631 q 530 623 477 631 q 624 589 582 616 q 696 510 669 560 q 724 400 724 460 q 696 286 724 339 q 624 208 667 232 q 527 174 576 180 q 349 167 477 167 l 274 167 l 274 64 m 407 567 l 274 567 l 274 231 l 351 231 q 457 231 426 231 q 530 241 488 232 q 594 267 572 250 q 651 396 651 312 q 627 486 651 448 q 570 540 602 524 q 407 567 519 567 z "},"ß":{"ha":814,"x_min":88,"x_max":696,"o":"m 88 64 l 191 64 l 191 612 q 256 783 191 719 q 411 848 320 848 q 551 791 498 848 q 604 654 604 735 q 572 549 604 595 q 491 481 540 502 q 533 466 517 472 q 584 438 549 460 q 640 391 618 416 q 678 319 661 365 q 696 218 696 274 q 637 57 696 123 q 473 -9 578 -9 q 317 35 382 -9 l 317 106 q 472 58 399 58 q 576 100 530 58 q 623 225 623 141 q 349 442 623 431 l 349 505 q 533 652 533 518 q 500 744 533 708 q 408 780 468 780 q 303 738 347 780 q 259 601 259 696 l 259 0 l 88 0 l 88 64 z "},"à":{"ha":814,"x_min":80,"x_max":746,"o":"m 625 401 l 625 64 l 746 64 l 746 0 l 557 0 l 557 98 q 298 -19 431 -19 q 141 39 202 -19 q 80 172 80 98 q 94 236 80 203 q 139 302 109 269 q 229 356 170 335 q 368 377 288 377 q 557 359 468 377 l 557 401 q 556 433 557 420 q 547 470 555 446 q 522 508 538 494 q 473 534 506 522 q 393 545 439 545 q 161 488 292 545 l 136 549 q 395 610 282 610 q 507 593 460 610 q 576 553 553 575 q 610 497 598 532 q 624 445 623 463 q 625 401 625 427 m 557 189 l 557 297 q 381 312 472 312 q 272 298 319 312 q 203 268 225 285 q 170 227 182 251 q 155 192 157 203 q 153 171 153 180 q 197 83 153 121 q 297 46 240 46 q 557 189 430 46 m 258 838 l 403 838 l 507 682 l 437 682 l 258 838 z "},"á":{"ha":814,"x_min":80,"x_max":746,"o":"m 625 401 l 625 64 l 746 64 l 746 0 l 557 0 l 557 98 q 298 -19 431 -19 q 141 39 202 -19 q 80 172 80 98 q 94 236 80 203 q 139 302 109 269 q 229 356 170 335 q 368 377 288 377 q 557 359 468 377 l 557 401 q 556 433 557 420 q 547 470 555 446 q 522 508 538 494 q 473 534 506 522 q 393 545 439 545 q 161 488 292 545 l 136 549 q 395 610 282 610 q 507 593 460 610 q 576 553 553 575 q 610 497 598 532 q 624 445 623 463 q 625 401 625 427 m 557 189 l 557 297 q 381 312 472 312 q 272 298 319 312 q 203 268 225 285 q 170 227 182 251 q 155 192 157 203 q 153 171 153 180 q 197 83 153 121 q 297 46 240 46 q 557 189 430 46 m 557 838 l 363 682 l 292 682 l 412 838 l 557 838 z "},"â":{"ha":814,"x_min":80,"x_max":746,"o":"m 625 401 l 625 64 l 746 64 l 746 0 l 557 0 l 557 98 q 298 -19 431 -19 q 141 39 202 -19 q 80 172 80 98 q 94 236 80 203 q 139 302 109 269 q 229 356 170 335 q 368 377 288 377 q 557 359 468 377 l 557 401 q 556 433 557 420 q 547 470 555 446 q 522 508 538 494 q 473 534 506 522 q 393 545 439 545 q 161 488 292 545 l 136 549 q 395 610 282 610 q 507 593 460 610 q 576 553 553 575 q 610 497 598 532 q 624 445 623 463 q 625 401 625 427 m 557 189 l 557 297 q 381 312 472 312 q 272 298 319 312 q 203 268 225 285 q 170 227 182 251 q 155 192 157 203 q 153 171 153 180 q 197 83 153 121 q 297 46 240 46 q 557 189 430 46 m 324 842 l 429 842 l 553 715 l 510 681 l 373 770 l 250 681 l 205 713 l 324 842 z "},"ã":{"ha":814,"x_min":80,"x_max":746,"o":"m 625 401 l 625 64 l 746 64 l 746 0 l 557 0 l 557 98 q 298 -19 431 -19 q 141 39 202 -19 q 80 172 80 98 q 94 236 80 203 q 139 302 109 269 q 229 356 170 335 q 368 377 288 377 q 557 359 468 377 l 557 401 q 556 433 557 420 q 547 470 555 446 q 522 508 538 494 q 473 534 506 522 q 393 545 439 545 q 161 488 292 545 l 136 549 q 395 610 282 610 q 507 593 460 610 q 576 553 553 575 q 610 497 598 532 q 624 445 623 463 q 625 401 625 427 m 557 189 l 557 297 q 381 312 472 312 q 272 298 319 312 q 203 268 225 285 q 170 227 182 251 q 155 192 157 203 q 153 171 153 180 q 197 83 153 121 q 297 46 240 46 q 557 189 430 46 m 570 840 l 624 822 q 621 812 621 819 q 569 728 605 758 q 488 697 533 697 q 392 741 446 697 q 317 780 339 780 q 247 709 274 780 l 244 701 l 190 720 q 317 841 233 841 q 418 795 363 841 q 492 758 467 758 q 570 840 541 758 z "},"ä":{"ha":814,"x_min":80,"x_max":746,"o":"m 625 401 l 625 64 l 746 64 l 746 0 l 557 0 l 557 98 q 298 -19 431 -19 q 141 39 202 -19 q 80 172 80 98 q 94 236 80 203 q 139 302 109 269 q 229 356 170 335 q 368 377 288 377 q 557 359 468 377 l 557 401 q 556 433 557 420 q 547 470 555 446 q 522 508 538 494 q 473 534 506 522 q 393 545 439 545 q 161 488 292 545 l 136 549 q 395 610 282 610 q 507 593 460 610 q 576 553 553 575 q 610 497 598 532 q 624 445 623 463 q 625 401 625 427 m 557 189 l 557 297 q 381 312 472 312 q 272 298 319 312 q 203 268 225 285 q 170 227 182 251 q 155 192 157 203 q 153 171 153 180 q 197 83 153 121 q 297 46 240 46 q 557 189 430 46 m 243 696 l 243 842 l 340 842 l 340 696 l 243 696 m 419 696 l 419 842 l 517 842 l 517 696 l 419 696 z "},"å":{"ha":814,"x_min":80,"x_max":746,"o":"m 625 401 l 625 64 l 746 64 l 746 0 l 557 0 l 557 98 q 298 -19 431 -19 q 141 39 202 -19 q 80 172 80 98 q 94 236 80 203 q 139 302 109 269 q 229 356 170 335 q 368 377 288 377 q 557 359 468 377 l 557 401 q 556 433 557 420 q 547 470 555 446 q 522 508 538 494 q 473 534 506 522 q 393 545 439 545 q 161 488 292 545 l 136 549 q 395 610 282 610 q 507 593 460 610 q 576 553 553 575 q 610 497 598 532 q 624 445 623 463 q 625 401 625 427 m 557 189 l 557 297 q 381 312 472 312 q 272 298 319 312 q 203 268 225 285 q 170 227 182 251 q 155 192 157 203 q 153 171 153 180 q 197 83 153 121 q 297 46 240 46 q 557 189 430 46 m 334 841 q 349 856 334 841 q 407 871 363 871 q 480 841 450 871 q 510 768 510 811 q 480 694 510 724 q 407 665 450 665 q 334 694 363 665 q 304 768 304 724 q 334 841 304 811 m 444 804 q 437 812 444 804 q 408 819 430 819 q 371 805 387 819 q 355 768 355 791 q 371 731 355 746 q 408 716 387 716 q 444 731 430 716 q 458 768 458 746 q 444 804 458 789 z "},"æ":{"ha":814,"x_min":45,"x_max":770,"o":"m 764 275 l 434 275 q 445 173 437 210 q 477 103 453 136 q 593 46 519 46 q 746 76 656 46 l 770 18 q 590 -19 665 -19 q 415 81 484 -19 q 213 -20 313 -20 q 90 33 136 -20 q 45 157 45 85 q 102 298 45 235 q 262 361 160 361 q 366 349 275 361 l 366 396 q 347 509 366 473 q 267 545 327 545 q 104 509 208 545 l 85 568 q 269 610 195 610 q 367 583 335 610 q 415 509 399 556 q 452 554 437 537 q 502 591 467 571 q 576 610 537 610 q 607 608 591 610 q 656 587 623 605 q 712 536 689 568 q 751 437 735 505 q 764 275 768 369 m 366 121 l 366 283 q 263 296 307 296 q 147 252 182 296 q 113 157 113 208 q 138 79 113 113 q 212 45 164 45 q 366 121 278 45 m 434 339 l 696 339 q 663 492 694 438 q 575 545 631 545 q 476 491 521 545 q 448 441 457 468 q 437 395 438 415 q 434 339 435 376 z "},"ç":{"ha":814,"x_min":96,"x_max":745,"o":"m 448 -18 l 448 -35 q 489 -63 475 -42 q 503 -110 503 -84 q 484 -168 503 -140 q 422 -195 464 -195 q 343 -165 387 -195 l 373 -115 q 416 -136 404 -136 q 442 -111 442 -136 q 414 -88 442 -88 q 382 -91 399 -88 l 388 -18 q 185 72 274 -14 q 96 293 96 157 q 181 509 96 414 q 420 604 266 604 q 597 548 518 604 q 606 542 598 547 q 618 532 613 537 l 625 528 q 636 545 631 528 l 647 601 l 709 594 q 697 469 697 513 q 701 380 697 433 l 639 370 q 617 448 627 425 q 583 491 608 471 q 427 536 528 536 q 237 463 305 536 q 170 294 170 391 q 234 123 170 197 q 422 49 298 49 q 709 164 544 49 l 745 113 q 596 21 662 52 q 448 -18 530 -9 z "},"è":{"ha":814,"x_min":100,"x_max":758,"o":"m 727 137 l 758 77 q 430 -19 586 -19 q 186 71 273 -19 q 100 290 100 161 q 189 512 100 420 q 422 604 277 604 q 648 521 566 604 q 730 334 730 438 q 728 298 730 321 q 727 273 727 275 l 174 273 q 187 206 175 240 q 225 134 199 172 q 304 71 251 95 q 431 46 358 46 q 727 137 545 46 m 174 336 l 656 336 q 595 475 655 412 q 422 538 534 538 q 310 516 359 538 q 233 459 260 494 q 192 394 206 425 q 174 336 178 363 m 281 838 l 426 838 l 530 682 l 460 682 l 281 838 z "},"é":{"ha":814,"x_min":100,"x_max":758,"o":"m 727 137 l 758 77 q 430 -19 586 -19 q 186 71 273 -19 q 100 290 100 161 q 189 512 100 420 q 422 604 277 604 q 648 521 566 604 q 730 334 730 438 q 728 298 730 321 q 727 273 727 275 l 174 273 q 187 206 175 240 q 225 134 199 172 q 304 71 251 95 q 431 46 358 46 q 727 137 545 46 m 174 336 l 656 336 q 595 475 655 412 q 422 538 534 538 q 310 516 359 538 q 233 459 260 494 q 192 394 206 425 q 174 336 178 363 m 557 838 l 363 682 l 292 682 l 412 838 l 557 838 z "},"ê":{"ha":814,"x_min":100,"x_max":758,"o":"m 727 137 l 758 77 q 430 -19 586 -19 q 186 71 273 -19 q 100 290 100 161 q 189 512 100 420 q 422 604 277 604 q 648 521 566 604 q 730 334 730 438 q 728 298 730 321 q 727 273 727 275 l 174 273 q 187 206 175 240 q 225 134 199 172 q 304 71 251 95 q 431 46 358 46 q 727 137 545 46 m 174 336 l 656 336 q 595 475 655 412 q 422 538 534 538 q 310 516 359 538 q 233 459 260 494 q 192 394 206 425 q 174 336 178 363 m 351 842 l 456 842 l 581 715 l 537 681 l 400 770 l 277 681 l 232 713 l 351 842 z "},"ë":{"ha":814,"x_min":100,"x_max":758,"o":"m 727 137 l 758 77 q 430 -19 586 -19 q 186 71 273 -19 q 100 290 100 161 q 189 512 100 420 q 422 604 277 604 q 648 521 566 604 q 730 334 730 438 q 728 298 730 321 q 727 273 727 275 l 174 273 q 187 206 175 240 q 225 134 199 172 q 304 71 251 95 q 431 46 358 46 q 727 137 545 46 m 174 336 l 656 336 q 595 475 655 412 q 422 538 534 538 q 310 516 359 538 q 233 459 260 494 q 192 394 206 425 q 174 336 178 363 m 270 696 l 270 842 l 368 842 l 368 696 l 270 696 m 446 696 l 446 842 l 544 842 l 544 696 l 446 696 z "},"ì":{"ha":814,"x_min":137,"x_max":678,"o":"m 176 583 l 444 583 l 444 64 l 678 64 l 678 0 l 137 0 l 137 64 l 376 64 l 376 519 l 176 519 l 176 583 m 258 838 l 403 838 l 507 682 l 437 682 l 258 838 z "},"í":{"ha":814,"x_min":137,"x_max":678,"o":"m 176 583 l 444 583 l 444 64 l 678 64 l 678 0 l 137 0 l 137 64 l 376 64 l 376 519 l 176 519 l 176 583 m 557 838 l 363 682 l 292 682 l 412 838 l 557 838 z "},"î":{"ha":814,"x_min":137,"x_max":678,"o":"m 176 583 l 444 583 l 444 64 l 678 64 l 678 0 l 137 0 l 137 64 l 376 64 l 376 519 l 176 519 l 176 583 m 351 842 l 456 842 l 581 715 l 537 681 l 400 770 l 277 681 l 232 713 l 351 842 z "},"ï":{"ha":814,"x_min":137,"x_max":678,"o":"m 176 583 l 444 583 l 444 64 l 678 64 l 678 0 l 137 0 l 137 64 l 376 64 l 376 519 l 176 519 l 176 583 m 270 696 l 270 842 l 368 842 l 368 696 l 270 696 m 446 696 l 446 842 l 544 842 l 544 696 l 446 696 z "},"ð":{"ha":814,"x_min":71,"x_max":743,"o":"m 359 770 l 289 659 l 231 700 l 298 803 q 148 864 202 848 l 171 930 q 336 864 256 903 l 392 955 l 450 917 l 397 833 q 743 308 743 623 q 648 68 743 155 q 407 -19 553 -19 q 159 74 248 -19 q 71 296 71 167 q 167 524 71 438 q 395 610 263 610 q 581 574 505 610 l 583 576 q 493 677 538 635 q 359 770 448 719 m 215 473 q 179 436 215 473 q 144 296 144 399 q 215 119 144 193 q 407 45 286 45 q 600 119 530 45 q 670 296 670 194 q 600 472 670 397 q 407 547 529 547 q 215 473 286 547 z "},"ñ":{"ha":814,"x_min":46,"x_max":769,"o":"m 46 583 l 225 583 l 225 507 q 293 553 269 538 q 365 586 317 568 q 458 604 412 604 q 606 541 551 604 q 661 380 661 479 l 661 64 l 769 64 l 769 0 l 476 0 l 476 64 l 593 64 l 593 374 q 556 492 593 449 q 460 536 519 536 q 225 427 362 536 l 225 64 l 339 64 l 339 0 l 46 0 l 46 64 l 157 64 l 157 519 l 46 519 l 46 583 m 570 840 l 624 822 q 621 812 621 819 q 569 728 605 758 q 488 697 533 697 q 392 741 446 697 q 317 780 339 780 q 247 709 274 780 l 244 701 l 190 720 q 317 841 233 841 q 418 795 363 841 q 492 758 467 758 q 570 840 541 758 z "},"ò":{"ha":814,"x_min":71,"x_max":743,"o":"m 71 296 q 160 518 71 426 q 407 610 250 610 q 655 517 567 610 q 743 296 743 423 q 655 75 743 168 q 407 -19 567 -19 q 160 74 250 -19 q 71 296 71 167 m 214 470 q 179 434 214 470 q 144 296 144 397 q 214 121 144 194 q 407 49 285 49 q 600 122 530 49 q 670 296 670 195 q 600 470 670 397 q 407 543 530 543 q 214 470 285 543 m 258 838 l 403 838 l 507 682 l 437 682 l 258 838 z "},"ó":{"ha":814,"x_min":71,"x_max":743,"o":"m 71 296 q 160 518 71 426 q 407 610 250 610 q 655 517 567 610 q 743 296 743 423 q 655 75 743 168 q 407 -19 567 -19 q 160 74 250 -19 q 71 296 71 167 m 214 470 q 179 434 214 470 q 144 296 144 397 q 214 121 144 194 q 407 49 285 49 q 600 122 530 49 q 670 296 670 195 q 600 470 670 397 q 407 543 530 543 q 214 470 285 543 m 557 838 l 363 682 l 292 682 l 412 838 l 557 838 z "},"ô":{"ha":814,"x_min":71,"x_max":743,"o":"m 71 296 q 160 518 71 426 q 407 610 250 610 q 655 517 567 610 q 743 296 743 423 q 655 75 743 168 q 407 -19 567 -19 q 160 74 250 -19 q 71 296 71 167 m 214 470 q 179 434 214 470 q 144 296 144 397 q 214 121 144 194 q 407 49 285 49 q 600 122 530 49 q 670 296 670 195 q 600 470 670 397 q 407 543 530 543 q 214 470 285 543 m 351 842 l 456 842 l 581 715 l 537 681 l 400 770 l 277 681 l 232 713 l 351 842 z "},"õ":{"ha":814,"x_min":71,"x_max":743,"o":"m 71 296 q 160 518 71 426 q 407 610 250 610 q 655 517 567 610 q 743 296 743 423 q 655 75 743 168 q 407 -19 567 -19 q 160 74 250 -19 q 71 296 71 167 m 214 470 q 179 434 214 470 q 144 296 144 397 q 214 121 144 194 q 407 49 285 49 q 600 122 530 49 q 670 296 670 195 q 600 470 670 397 q 407 543 530 543 q 214 470 285 543 m 570 840 l 624 822 q 621 812 621 819 q 569 728 605 758 q 488 697 533 697 q 392 741 446 697 q 317 780 339 780 q 247 709 274 780 l 244 701 l 190 720 q 317 841 233 841 q 418 795 363 841 q 492 758 467 758 q 570 840 541 758 z "},"ö":{"ha":814,"x_min":71,"x_max":743,"o":"m 71 296 q 160 518 71 426 q 407 610 250 610 q 655 517 567 610 q 743 296 743 423 q 655 75 743 168 q 407 -19 567 -19 q 160 74 250 -19 q 71 296 71 167 m 214 470 q 179 434 214 470 q 144 296 144 397 q 214 121 144 194 q 407 49 285 49 q 600 122 530 49 q 670 296 670 195 q 600 470 670 397 q 407 543 530 543 q 214 470 285 543 m 270 696 l 270 842 l 368 842 l 368 696 l 270 696 m 446 696 l 446 842 l 544 842 l 544 696 l 446 696 z "},"÷":{"ha":814,"x_min":90,"x_max":724,"o":"m 364 699 q 373 708 364 699 q 407 716 382 716 q 450 699 431 716 q 468 655 468 681 q 450 612 468 631 q 407 594 433 594 q 363 612 381 594 q 346 655 346 631 q 364 699 346 682 m 90 445 l 724 445 l 724 377 l 90 377 l 90 445 m 407 228 q 449 210 430 228 q 468 167 468 193 q 450 123 468 141 q 407 106 431 106 q 364 123 382 106 q 346 167 346 141 q 364 210 346 193 q 407 228 382 228 z "},"ø":{"ha":814,"x_min":71,"x_max":743,"o":"m 197 43 l 134 -19 l 81 31 l 144 94 q 71 297 71 182 q 160 517 71 425 q 407 610 250 610 q 613 549 537 610 l 680 617 l 731 566 l 669 503 q 743 296 743 416 q 653 73 743 165 q 410 -19 563 -19 q 197 43 285 -19 m 616 450 l 250 92 q 286 71 274 77 q 330 57 297 65 q 407 49 363 49 q 600 122 530 49 q 670 296 670 195 q 616 450 670 384 m 195 142 l 563 500 q 545 510 559 503 q 527 519 532 517 q 510 526 522 521 q 490 533 498 532 q 468 538 481 534 q 439 542 454 541 q 407 543 425 543 q 214 469 283 543 q 144 296 144 395 q 195 142 144 208 z "},"ù":{"ha":814,"x_min":43,"x_max":754,"o":"m 43 583 l 222 583 l 222 224 q 358 49 222 49 q 576 167 471 49 l 576 519 l 460 519 l 460 583 l 644 583 l 644 64 l 754 64 l 754 0 l 576 0 l 576 75 q 363 -19 472 -19 q 259 3 302 -19 q 194 63 216 26 q 163 140 172 100 q 155 224 155 179 l 155 519 l 43 519 l 43 583 m 258 838 l 403 838 l 507 682 l 437 682 l 258 838 z "},"ú":{"ha":814,"x_min":43,"x_max":754,"o":"m 43 583 l 222 583 l 222 224 q 358 49 222 49 q 576 167 471 49 l 576 519 l 460 519 l 460 583 l 644 583 l 644 64 l 754 64 l 754 0 l 576 0 l 576 75 q 363 -19 472 -19 q 259 3 302 -19 q 194 63 216 26 q 163 140 172 100 q 155 224 155 179 l 155 519 l 43 519 l 43 583 m 557 838 l 363 682 l 292 682 l 412 838 l 557 838 z "},"û":{"ha":814,"x_min":43,"x_max":754,"o":"m 43 583 l 222 583 l 222 224 q 358 49 222 49 q 576 167 471 49 l 576 519 l 460 519 l 460 583 l 644 583 l 644 64 l 754 64 l 754 0 l 576 0 l 576 75 q 363 -19 472 -19 q 259 3 302 -19 q 194 63 216 26 q 163 140 172 100 q 155 224 155 179 l 155 519 l 43 519 l 43 583 m 351 842 l 456 842 l 581 715 l 537 681 l 400 770 l 277 681 l 232 713 l 351 842 z "},"ü":{"ha":814,"x_min":43,"x_max":754,"o":"m 43 583 l 222 583 l 222 224 q 358 49 222 49 q 576 167 471 49 l 576 519 l 460 519 l 460 583 l 644 583 l 644 64 l 754 64 l 754 0 l 576 0 l 576 75 q 363 -19 472 -19 q 259 3 302 -19 q 194 63 216 26 q 163 140 172 100 q 155 224 155 179 l 155 519 l 43 519 l 43 583 m 270 696 l 270 842 l 368 842 l 368 696 l 270 696 m 446 696 l 446 842 l 544 842 l 544 696 l 446 696 z "},"ý":{"ha":814,"x_min":33,"x_max":799,"o":"m 33 583 l 286 583 l 286 519 l 193 519 l 407 107 l 643 519 l 551 519 l 551 583 l 799 583 l 799 519 l 720 519 l 340 -144 l 461 -144 l 461 -208 l 54 -208 l 54 -144 l 263 -144 l 368 37 l 115 519 l 33 519 l 33 583 m 557 838 l 363 682 l 292 682 l 412 838 l 557 838 z "},"þ":{"ha":814,"x_min":16,"x_max":743,"o":"m 205 853 l 205 487 l 208 487 q 441 601 288 601 q 659 510 574 601 q 743 297 743 419 q 651 78 743 165 q 444 -9 559 -9 q 208 107 301 -9 l 205 107 l 205 -149 l 407 -149 l 407 -213 l 26 -213 l 26 -149 l 137 -149 l 137 783 l 16 777 l 16 841 l 205 853 m 199 301 q 275 124 199 190 q 441 58 351 58 q 602 127 534 58 q 670 298 670 197 q 610 462 670 391 q 442 533 549 533 q 269 465 338 533 q 199 301 199 396 z "},"ÿ":{"ha":814,"x_min":33,"x_max":799,"o":"m 33 583 l 286 583 l 286 519 l 193 519 l 407 107 l 643 519 l 551 519 l 551 583 l 799 583 l 799 519 l 720 519 l 340 -144 l 461 -144 l 461 -208 l 54 -208 l 54 -144 l 263 -144 l 368 37 l 115 519 l 33 519 l 33 583 m 270 696 l 270 842 l 368 842 l 368 696 l 270 696 m 446 696 l 446 842 l 544 842 l 544 696 l 446 696 z "},"Ā":{"ha":814,"x_min":14,"x_max":800,"o":"m 153 764 l 445 764 l 731 64 l 800 64 l 800 0 l 522 0 l 522 64 l 661 64 l 583 252 l 229 252 l 153 64 l 292 64 l 292 0 l 14 0 l 14 64 l 85 64 l 347 700 l 153 700 l 153 764 m 560 312 l 407 684 l 254 312 l 560 312 m 176 983 l 637 983 l 637 916 l 176 916 l 176 983 z "},"ā":{"ha":814,"x_min":80,"x_max":746,"o":"m 625 401 l 625 64 l 746 64 l 746 0 l 557 0 l 557 98 q 298 -19 431 -19 q 141 39 202 -19 q 80 172 80 98 q 94 236 80 203 q 139 302 109 269 q 229 356 170 335 q 368 377 288 377 q 557 359 468 377 l 557 401 q 556 433 557 420 q 547 470 555 446 q 522 508 538 494 q 473 534 506 522 q 393 545 439 545 q 161 488 292 545 l 136 549 q 395 610 282 610 q 507 593 460 610 q 576 553 553 575 q 610 497 598 532 q 624 445 623 463 q 625 401 625 427 m 557 189 l 557 297 q 381 312 472 312 q 272 298 319 312 q 203 268 225 285 q 170 227 182 251 q 155 192 157 203 q 153 171 153 180 q 197 83 153 121 q 297 46 240 46 q 557 189 430 46 m 176 803 l 637 803 l 637 735 l 176 735 l 176 803 z "},"Ă":{"ha":814,"x_min":14,"x_max":800,"o":"m 153 764 l 445 764 l 731 64 l 800 64 l 800 0 l 522 0 l 522 64 l 661 64 l 583 252 l 229 252 l 153 64 l 292 64 l 292 0 l 14 0 l 14 64 l 85 64 l 347 700 l 153 700 l 153 764 m 560 312 l 407 684 l 254 312 l 560 312 m 187 1027 l 250 1027 q 252 1023 250 1027 q 407 930 302 930 q 562 1023 509 930 q 564 1027 562 1027 l 627 1027 q 407 872 571 872 q 214 967 281 872 q 187 1027 206 979 z "},"ă":{"ha":814,"x_min":80,"x_max":746,"o":"m 625 401 l 625 64 l 746 64 l 746 0 l 557 0 l 557 98 q 298 -19 431 -19 q 141 39 202 -19 q 80 172 80 98 q 94 236 80 203 q 139 302 109 269 q 229 356 170 335 q 368 377 288 377 q 557 359 468 377 l 557 401 q 556 433 557 420 q 547 470 555 446 q 522 508 538 494 q 473 534 506 522 q 393 545 439 545 q 161 488 292 545 l 136 549 q 395 610 282 610 q 507 593 460 610 q 576 553 553 575 q 610 497 598 532 q 624 445 623 463 q 625 401 625 427 m 557 189 l 557 297 q 381 312 472 312 q 272 298 319 312 q 203 268 225 285 q 170 227 182 251 q 155 192 157 203 q 153 171 153 180 q 197 83 153 121 q 297 46 240 46 q 557 189 430 46 m 187 846 l 250 846 q 252 842 250 846 q 407 750 302 750 q 562 842 509 750 q 564 846 562 846 l 627 846 q 407 692 571 692 q 214 787 281 692 q 187 846 206 799 z "},"Ą":{"ha":814,"x_min":14,"x_max":800,"o":"m 743 -54 l 730 -126 q 650 -159 692 -159 q 593 -136 616 -159 q 571 -80 571 -113 q 618 -3 571 -34 l 618 0 l 522 0 l 522 64 l 661 64 l 583 252 l 229 252 l 153 64 l 292 64 l 292 0 l 14 0 l 14 64 l 85 64 l 347 700 l 153 700 l 153 764 l 445 764 l 731 64 l 800 64 l 800 0 l 731 0 q 677 -25 703 -8 q 652 -62 652 -42 q 660 -81 652 -75 q 677 -88 667 -88 q 699 -83 690 -88 q 743 -54 708 -79 m 560 312 l 407 684 l 254 312 l 560 312 z "},"ą":{"ha":814,"x_min":80,"x_max":746,"o":"m 689 -54 l 677 -126 q 597 -159 639 -159 q 541 -136 563 -159 q 518 -80 518 -113 q 566 -3 518 -34 l 566 0 l 557 0 l 557 98 q 298 -19 431 -19 q 141 39 202 -19 q 80 172 80 98 q 94 236 80 203 q 139 302 109 269 q 229 356 170 335 q 368 377 288 377 q 557 359 468 377 l 557 401 q 556 433 557 420 q 547 470 555 446 q 522 508 538 494 q 473 534 506 522 q 393 545 439 545 q 161 488 292 545 l 136 549 q 395 610 282 610 q 507 593 460 610 q 576 553 553 575 q 610 497 598 532 q 624 445 623 463 q 625 401 625 427 l 625 64 l 746 64 l 746 0 l 678 0 q 598 -62 598 -24 q 624 -88 598 -88 q 646 -83 637 -88 q 689 -54 655 -79 m 557 189 l 557 297 q 381 312 472 312 q 272 298 319 312 q 203 268 225 285 q 170 227 182 251 q 155 192 157 203 q 153 171 153 180 q 197 83 153 121 q 297 46 240 46 q 557 189 430 46 z "},"Ć":{"ha":814,"x_min":87,"x_max":806,"o":"m 761 183 l 806 134 q 453 -23 642 -23 q 184 96 281 -23 q 87 391 87 216 q 191 676 87 566 q 450 787 294 787 q 624 728 557 787 q 647 713 642 713 q 667 779 661 713 l 718 779 q 731 519 713 656 l 667 509 q 623 639 652 595 q 448 719 568 719 q 239 625 317 719 q 160 392 160 530 q 168 303 160 347 q 197 212 176 259 q 249 127 217 164 q 334 68 281 91 q 453 45 387 45 q 761 183 604 45 m 598 1019 l 404 863 l 332 863 l 453 1019 l 598 1019 z "},"ć":{"ha":814,"x_min":96,"x_max":745,"o":"m 647 601 l 709 594 q 697 469 697 513 q 701 380 697 433 l 639 370 l 633 393 q 625 424 629 412 q 607 460 621 435 q 573 498 593 484 q 515 524 553 511 q 427 536 477 536 q 237 463 304 536 q 170 294 170 391 q 234 123 170 198 q 422 49 298 49 q 709 164 544 49 l 745 113 q 415 -19 568 -19 q 186 71 275 -19 q 96 293 96 161 q 117 403 96 349 q 175 503 137 457 q 277 576 213 548 q 420 604 340 604 q 620 532 533 604 q 625 528 624 528 q 639 557 633 528 q 647 601 642 575 m 581 838 l 387 682 l 315 682 l 435 838 l 581 838 z "},"Ĉ":{"ha":814,"x_min":87,"x_max":806,"o":"m 761 183 l 806 134 q 453 -23 642 -23 q 184 96 281 -23 q 87 391 87 216 q 191 676 87 566 q 450 787 294 787 q 624 728 557 787 q 647 713 642 713 q 667 779 661 713 l 718 779 q 731 519 713 656 l 667 509 q 623 639 652 595 q 448 719 568 719 q 239 625 317 719 q 160 392 160 530 q 168 303 160 347 q 197 212 176 259 q 249 127 217 164 q 334 68 281 91 q 453 45 387 45 q 761 183 604 45 m 392 1023 l 496 1023 l 621 895 l 578 861 l 441 951 l 317 861 l 273 894 l 392 1023 z "},"ĉ":{"ha":814,"x_min":96,"x_max":745,"o":"m 647 601 l 709 594 q 697 469 697 513 q 701 380 697 433 l 639 370 l 633 393 q 625 424 629 412 q 607 460 621 435 q 573 498 593 484 q 515 524 553 511 q 427 536 477 536 q 237 463 304 536 q 170 294 170 391 q 234 123 170 198 q 422 49 298 49 q 709 164 544 49 l 745 113 q 415 -19 568 -19 q 186 71 275 -19 q 96 293 96 161 q 117 403 96 349 q 175 503 137 457 q 277 576 213 548 q 420 604 340 604 q 620 532 533 604 q 625 528 624 528 q 639 557 633 528 q 647 601 642 575 m 374 845 l 479 845 l 604 718 l 560 684 l 423 773 l 300 684 l 255 716 l 374 845 z "},"Ċ":{"ha":814,"x_min":87,"x_max":806,"o":"m 761 183 l 806 134 q 453 -23 642 -23 q 184 96 281 -23 q 87 391 87 216 q 191 676 87 566 q 450 787 294 787 q 624 728 557 787 q 647 713 642 713 q 667 779 661 713 l 718 779 q 731 519 713 656 l 667 509 q 623 639 652 595 q 448 719 568 719 q 239 625 317 719 q 160 392 160 530 q 168 303 160 347 q 197 212 176 259 q 249 127 217 164 q 334 68 281 91 q 453 45 387 45 q 761 183 604 45 m 399 876 l 399 1023 l 496 1023 l 496 876 l 399 876 z "},"ċ":{"ha":814,"x_min":96,"x_max":745,"o":"m 647 601 l 709 594 q 697 469 697 513 q 701 380 697 433 l 639 370 l 633 393 q 625 424 629 412 q 607 460 621 435 q 573 498 593 484 q 515 524 553 511 q 427 536 477 536 q 237 463 304 536 q 170 294 170 391 q 234 123 170 198 q 422 49 298 49 q 709 164 544 49 l 745 113 q 415 -19 568 -19 q 186 71 275 -19 q 96 293 96 161 q 117 403 96 349 q 175 503 137 457 q 277 576 213 548 q 420 604 340 604 q 620 532 533 604 q 625 528 624 528 q 639 557 633 528 q 647 601 642 575 m 358 696 l 358 842 l 456 842 l 456 696 l 358 696 z "},"Č":{"ha":814,"x_min":87,"x_max":806,"o":"m 761 183 l 806 134 q 453 -23 642 -23 q 184 96 281 -23 q 87 391 87 216 q 191 676 87 566 q 450 787 294 787 q 624 728 557 787 q 647 713 642 713 q 667 779 661 713 l 718 779 q 731 519 713 656 l 667 509 q 623 639 652 595 q 448 719 568 719 q 239 625 317 719 q 160 392 160 530 q 168 303 160 347 q 197 212 176 259 q 249 127 217 164 q 334 68 281 91 q 453 45 387 45 q 761 183 604 45 m 502 871 l 399 871 l 273 998 l 316 1031 l 453 943 l 578 1032 l 621 998 l 502 871 z "},"č":{"ha":814,"x_min":96,"x_max":745,"o":"m 647 601 l 709 594 q 697 469 697 513 q 701 380 697 433 l 639 370 l 633 393 q 625 424 629 412 q 607 460 621 435 q 573 498 593 484 q 515 524 553 511 q 427 536 477 536 q 237 463 304 536 q 170 294 170 391 q 234 123 170 198 q 422 49 298 49 q 709 164 544 49 l 745 113 q 415 -19 568 -19 q 186 71 275 -19 q 96 293 96 161 q 117 403 96 349 q 175 503 137 457 q 277 576 213 548 q 420 604 340 604 q 620 532 533 604 q 625 528 624 528 q 639 557 633 528 q 647 601 642 575 m 484 690 l 381 690 l 255 818 l 298 850 l 435 762 l 560 852 l 604 818 l 484 690 z "},"Ď":{"ha":814,"x_min":46,"x_max":747,"o":"m 46 764 l 385 764 q 549 745 487 764 q 663 662 612 726 q 747 396 747 557 q 635 79 747 186 q 380 0 552 0 l 46 0 l 46 64 l 153 64 l 153 700 l 46 700 l 46 764 m 387 700 l 221 700 l 221 64 l 380 64 q 583 127 518 64 q 674 392 674 218 q 610 612 674 524 q 522 684 571 667 q 387 700 473 700 m 461 871 l 358 871 l 232 998 l 275 1031 l 412 943 l 537 1032 l 581 998 l 461 871 z "},"ď":{"ha":814,"x_min":72,"x_max":788,"o":"m 382 825 l 673 850 l 673 64 l 788 64 l 788 0 l 605 0 l 605 100 l 602 100 q 373 -14 518 -14 q 159 75 247 -14 q 72 288 72 164 q 163 504 72 419 q 370 589 254 589 q 500 557 435 589 q 602 472 566 526 l 605 472 l 605 777 l 387 764 l 382 825 m 602 285 q 541 448 602 374 q 373 521 479 521 q 213 456 281 521 q 145 289 145 391 q 212 121 145 187 q 373 54 279 54 q 534 121 467 54 q 602 285 602 187 m 484 902 l 381 902 l 255 1029 l 298 1062 l 435 974 l 560 1063 l 604 1029 l 484 902 z "},"đ":{"ha":814,"x_min":72,"x_max":788,"o":"m 382 825 l 673 850 l 673 705 l 788 705 l 788 642 l 673 642 l 673 64 l 788 64 l 788 0 l 605 0 l 605 100 l 602 100 q 373 -14 518 -14 q 159 75 247 -14 q 72 288 72 164 q 163 504 72 419 q 370 589 254 589 q 500 557 435 589 q 602 472 566 526 l 605 472 l 605 642 l 278 642 l 278 705 l 605 705 l 605 777 l 387 764 l 382 825 m 602 285 q 541 448 602 374 q 373 521 479 521 q 213 456 281 521 q 145 289 145 391 q 212 121 145 187 q 373 54 279 54 q 534 121 467 54 q 602 285 602 187 z "},"Ē":{"ha":814,"x_min":77,"x_max":734,"o":"m 77 764 l 722 764 l 727 514 l 665 514 l 651 700 l 260 700 l 260 435 l 480 435 l 480 534 l 543 534 l 543 274 l 480 274 l 480 372 l 260 372 l 260 64 l 665 64 l 671 250 l 734 250 l 734 0 l 77 0 l 77 64 l 193 64 l 193 700 l 77 700 l 77 764 m 176 983 l 637 983 l 637 916 l 176 916 l 176 983 z "},"ē":{"ha":814,"x_min":100,"x_max":758,"o":"m 727 137 l 758 77 q 430 -19 586 -19 q 186 71 273 -19 q 100 290 100 161 q 189 512 100 420 q 422 604 277 604 q 648 521 566 604 q 730 334 730 438 q 728 298 730 321 q 727 273 727 275 l 174 273 q 187 206 175 240 q 225 134 199 172 q 304 71 251 95 q 431 46 358 46 q 727 137 545 46 m 174 336 l 656 336 q 595 475 655 412 q 422 538 534 538 q 310 516 359 538 q 233 459 260 494 q 192 394 206 425 q 174 336 178 363 m 199 803 l 661 803 l 661 735 l 199 735 l 199 803 z "},"Ė":{"ha":814,"x_min":77,"x_max":734,"o":"m 77 764 l 722 764 l 727 514 l 665 514 l 651 700 l 260 700 l 260 435 l 480 435 l 480 534 l 543 534 l 543 274 l 480 274 l 480 372 l 260 372 l 260 64 l 665 64 l 671 250 l 734 250 l 734 0 l 77 0 l 77 64 l 193 64 l 193 700 l 77 700 l 77 764 m 358 876 l 358 1023 l 456 1023 l 456 876 l 358 876 z "},"ė":{"ha":814,"x_min":100,"x_max":758,"o":"m 727 137 l 758 77 q 430 -19 586 -19 q 186 71 273 -19 q 100 290 100 161 q 189 512 100 420 q 422 604 277 604 q 648 521 566 604 q 730 334 730 438 q 728 298 730 321 q 727 273 727 275 l 174 273 q 187 206 175 240 q 225 134 199 172 q 304 71 251 95 q 431 46 358 46 q 727 137 545 46 m 174 336 l 656 336 q 595 475 655 412 q 422 538 534 538 q 310 516 359 538 q 233 459 260 494 q 192 394 206 425 q 174 336 178 363 m 358 696 l 358 842 l 456 842 l 456 696 l 358 696 z "},"Ę":{"ha":814,"x_min":77,"x_max":734,"o":"m 674 -54 l 661 -126 q 581 -159 623 -159 q 524 -136 547 -159 q 502 -80 502 -113 q 549 -3 502 -34 l 549 0 l 77 0 l 77 64 l 193 64 l 193 700 l 77 700 l 77 764 l 722 764 l 727 514 l 665 514 l 651 700 l 260 700 l 260 435 l 480 435 l 480 534 l 543 534 l 543 274 l 480 274 l 480 372 l 260 372 l 260 64 l 665 64 l 671 250 l 734 250 l 734 0 l 662 0 q 608 -25 633 -8 q 583 -62 583 -42 q 591 -81 583 -75 q 608 -88 598 -88 q 630 -83 621 -88 q 674 -54 639 -79 z "},"ę":{"ha":814,"x_min":100,"x_max":758,"o":"m 562 -54 l 548 -126 q 468 -159 510 -159 q 412 -136 434 -159 q 389 -80 389 -113 q 415 -19 389 -49 q 235 33 308 -15 q 131 147 161 81 q 100 290 100 213 q 189 512 100 420 q 422 604 277 604 q 648 521 566 604 q 730 334 730 438 q 728 298 730 321 q 727 273 727 275 l 174 273 q 182 222 175 248 q 206 163 189 195 q 250 105 224 130 q 323 63 277 80 q 430 46 370 46 q 727 137 545 46 l 758 77 q 521 -11 629 5 q 471 -62 471 -38 q 478 -81 471 -75 q 495 -88 486 -88 q 517 -83 509 -88 q 562 -54 526 -79 m 174 336 l 656 336 q 595 475 655 412 q 422 538 534 538 q 310 516 359 538 q 233 459 260 494 q 192 394 206 425 q 174 336 178 363 z "},"Ě":{"ha":814,"x_min":77,"x_max":734,"o":"m 77 764 l 722 764 l 727 514 l 665 514 l 651 700 l 260 700 l 260 435 l 480 435 l 480 534 l 543 534 l 543 274 l 480 274 l 480 372 l 260 372 l 260 64 l 665 64 l 671 250 l 734 250 l 734 0 l 77 0 l 77 64 l 193 64 l 193 700 l 77 700 l 77 764 m 461 871 l 358 871 l 232 998 l 275 1031 l 412 943 l 537 1032 l 581 998 l 461 871 z "},"ě":{"ha":814,"x_min":100,"x_max":758,"o":"m 727 137 l 758 77 q 430 -19 586 -19 q 186 71 273 -19 q 100 290 100 161 q 189 512 100 420 q 422 604 277 604 q 648 521 566 604 q 730 334 730 438 q 728 298 730 321 q 727 273 727 275 l 174 273 q 187 206 175 240 q 225 134 199 172 q 304 71 251 95 q 431 46 358 46 q 727 137 545 46 m 174 336 l 656 336 q 595 475 655 412 q 422 538 534 538 q 310 516 359 538 q 233 459 260 494 q 192 394 206 425 q 174 336 178 363 m 461 690 l 358 690 l 232 818 l 275 850 l 412 762 l 537 852 l 581 818 l 461 690 z "},"Ĝ":{"ha":814,"x_min":65,"x_max":784,"o":"m 643 779 l 708 779 q 705 753 705 768 q 700 643 700 693 q 708 519 700 585 l 650 509 q 641 555 646 536 q 621 608 636 574 q 583 663 605 642 q 519 702 560 685 q 423 719 477 719 q 220 623 302 719 q 138 380 138 528 q 216 138 138 232 q 442 45 294 45 q 650 88 525 45 l 650 271 l 449 271 l 449 335 l 784 335 l 784 271 l 719 271 l 719 43 q 441 -23 562 -23 q 266 14 342 -23 q 148 111 190 50 q 85 239 106 172 q 65 378 65 307 q 163 666 65 545 q 426 787 260 787 q 595 728 524 787 q 623 712 613 712 q 635 722 632 712 q 643 779 637 731 m 392 1023 l 496 1023 l 621 895 l 578 861 l 441 951 l 317 861 l 273 894 l 392 1023 z "},"ĝ":{"ha":814,"x_min":64,"x_max":750,"o":"m 572 583 l 750 583 l 750 519 l 640 519 l 640 41 q 572 -151 640 -90 q 330 -213 505 -213 l 244 -213 l 244 -149 q 349 -148 313 -149 q 429 -141 384 -146 q 494 -124 473 -136 q 536 -92 515 -113 q 565 -38 557 -71 q 572 41 572 -5 l 572 119 l 570 119 q 491 50 549 87 q 354 14 433 14 q 148 99 232 14 q 64 301 64 184 q 151 506 64 423 q 354 589 237 589 q 401 586 376 589 q 481 557 427 583 q 570 484 536 530 l 572 484 l 572 583 m 572 298 q 509 458 572 396 q 357 521 445 521 q 203 458 270 521 q 137 302 137 396 q 201 146 137 210 q 357 81 266 81 q 511 146 450 81 q 572 298 572 212 m 351 842 l 456 842 l 581 715 l 537 681 l 400 770 l 277 681 l 232 713 l 351 842 z "},"Ğ":{"ha":814,"x_min":65,"x_max":784,"o":"m 643 779 l 708 779 q 705 753 705 768 q 700 643 700 693 q 708 519 700 585 l 650 509 q 641 555 646 536 q 621 608 636 574 q 583 663 605 642 q 519 702 560 685 q 423 719 477 719 q 220 623 302 719 q 138 380 138 528 q 216 138 138 232 q 442 45 294 45 q 650 88 525 45 l 650 271 l 449 271 l 449 335 l 784 335 l 784 271 l 719 271 l 719 43 q 441 -23 562 -23 q 266 14 342 -23 q 148 111 190 50 q 85 239 106 172 q 65 378 65 307 q 163 666 65 545 q 426 787 260 787 q 595 728 524 787 q 623 712 613 712 q 635 722 632 712 q 643 779 637 731 m 228 1027 l 290 1027 q 293 1023 290 1027 q 448 930 343 930 q 602 1023 549 930 q 605 1027 602 1027 l 667 1027 q 448 872 612 872 q 255 967 321 872 q 228 1027 247 979 z "},"ğ":{"ha":814,"x_min":64,"x_max":750,"o":"m 572 583 l 750 583 l 750 519 l 640 519 l 640 41 q 572 -151 640 -90 q 330 -213 505 -213 l 244 -213 l 244 -149 q 349 -148 313 -149 q 429 -141 384 -146 q 494 -124 473 -136 q 536 -92 515 -113 q 565 -38 557 -71 q 572 41 572 -5 l 572 119 l 570 119 q 491 50 549 87 q 354 14 433 14 q 148 99 232 14 q 64 301 64 184 q 151 506 64 423 q 354 589 237 589 q 401 586 376 589 q 481 557 427 583 q 570 484 536 530 l 572 484 l 572 583 m 572 298 q 509 458 572 396 q 357 521 445 521 q 203 458 270 521 q 137 302 137 396 q 201 146 137 210 q 357 81 266 81 q 511 146 450 81 q 572 298 572 212 m 187 846 l 250 846 q 252 842 250 846 q 407 750 302 750 q 562 842 509 750 q 564 846 562 846 l 627 846 q 407 692 571 692 q 214 787 281 692 q 187 846 206 799 z "},"Ġ":{"ha":814,"x_min":65,"x_max":784,"o":"m 643 779 l 708 779 q 705 753 705 768 q 700 643 700 693 q 708 519 700 585 l 650 509 q 641 555 646 536 q 621 608 636 574 q 583 663 605 642 q 519 702 560 685 q 423 719 477 719 q 220 623 302 719 q 138 380 138 528 q 216 138 138 232 q 442 45 294 45 q 650 88 525 45 l 650 271 l 449 271 l 449 335 l 784 335 l 784 271 l 719 271 l 719 43 q 441 -23 562 -23 q 266 14 342 -23 q 148 111 190 50 q 85 239 106 172 q 65 378 65 307 q 163 666 65 545 q 426 787 260 787 q 595 728 524 787 q 623 712 613 712 q 635 722 632 712 q 643 779 637 731 m 358 876 l 358 1023 l 456 1023 l 456 876 l 358 876 z "},"ġ":{"ha":814,"x_min":64,"x_max":750,"o":"m 572 583 l 750 583 l 750 519 l 640 519 l 640 41 q 572 -151 640 -90 q 330 -213 505 -213 l 244 -213 l 244 -149 q 349 -148 313 -149 q 429 -141 384 -146 q 494 -124 473 -136 q 536 -92 515 -113 q 565 -38 557 -71 q 572 41 572 -5 l 572 119 l 570 119 q 491 50 549 87 q 354 14 433 14 q 148 99 232 14 q 64 301 64 184 q 151 506 64 423 q 354 589 237 589 q 401 586 376 589 q 481 557 427 583 q 570 484 536 530 l 572 484 l 572 583 m 572 298 q 509 458 572 396 q 357 521 445 521 q 203 458 270 521 q 137 302 137 396 q 201 146 137 210 q 357 81 266 81 q 511 146 450 81 q 572 298 572 212 m 358 696 l 358 842 l 456 842 l 456 696 l 358 696 z "},"Ģ":{"ha":814,"x_min":65,"x_max":784,"o":"m 456 -23 l 454 -34 q 519 -60 495 -39 q 546 -94 543 -80 q 549 -118 549 -107 q 547 -138 549 -127 q 534 -163 544 -148 q 500 -187 525 -178 q 441 -197 476 -197 q 292 -176 382 -197 l 301 -117 q 439 -136 377 -136 q 486 -118 486 -136 q 462 -94 486 -100 q 388 -84 438 -88 l 396 -20 q 262 16 321 -14 q 168 86 203 45 q 108 179 132 127 q 75 280 84 231 q 65 378 65 330 q 163 666 65 545 q 426 787 260 787 q 595 728 524 787 q 623 712 613 712 q 635 722 632 712 q 643 779 637 731 l 708 779 q 700 643 700 678 q 708 519 700 585 l 650 509 q 641 555 646 536 q 621 608 636 574 q 583 663 605 642 q 519 702 560 685 q 423 719 477 719 q 221 627 304 719 q 138 378 138 536 q 216 138 138 232 q 442 45 294 45 q 650 88 525 45 l 650 271 l 449 271 l 449 335 l 784 335 l 784 271 l 719 271 l 719 43 q 456 -23 575 -16 z "},"Ĥ":{"ha":814,"x_min":53,"x_max":762,"o":"m 53 764 l 324 764 l 324 700 l 222 700 l 222 426 l 591 426 l 591 700 l 490 700 l 490 764 l 762 764 l 762 700 l 659 700 l 659 64 l 762 64 l 762 0 l 490 0 l 490 64 l 591 64 l 591 362 l 222 362 l 222 64 l 324 64 l 324 0 l 53 0 l 53 64 l 155 64 l 155 700 l 53 700 l 53 764 m 351 1023 l 456 1023 l 581 895 l 537 861 l 400 951 l 277 861 l 232 894 l 351 1023 z "},"ĥ":{"ha":814,"x_min":34,"x_max":780,"o":"m 34 837 l 233 853 l 233 507 q 300 553 274 537 q 374 587 327 570 q 465 604 420 604 q 612 542 557 604 q 666 380 666 480 l 666 64 l 780 64 l 780 0 l 483 0 l 483 64 l 598 64 l 598 374 q 563 492 598 448 q 468 536 528 536 q 233 427 366 536 l 233 64 l 340 64 l 340 0 l 52 0 l 52 64 l 165 64 l 165 784 l 39 773 l 34 837 m 351 1065 l 456 1065 l 581 937 l 537 903 l 400 993 l 277 903 l 232 936 l 351 1065 z "},"Ħ":{"ha":814,"x_min":53,"x_max":762,"o":"m 222 604 l 591 604 l 591 700 l 490 700 l 490 764 l 762 764 l 762 700 l 659 700 l 659 604 l 762 604 l 762 540 l 659 540 l 659 64 l 762 64 l 762 0 l 490 0 l 490 64 l 591 64 l 591 362 l 222 362 l 222 64 l 324 64 l 324 0 l 53 0 l 53 64 l 155 64 l 155 540 l 53 540 l 53 604 l 155 604 l 155 700 l 53 700 l 53 764 l 324 764 l 324 700 l 222 700 l 222 604 m 591 540 l 222 540 l 222 426 l 591 426 l 591 540 z "},"ħ":{"ha":814,"x_min":34,"x_max":780,"o":"m 233 705 l 543 705 l 543 642 l 233 642 l 233 491 q 300 535 274 519 q 372 568 326 551 q 465 585 419 585 q 610 527 553 585 q 666 363 666 469 l 666 64 l 780 64 l 780 0 l 483 0 l 483 64 l 598 64 l 598 357 q 564 473 598 430 q 468 517 529 517 q 233 411 362 517 l 233 64 l 340 64 l 340 0 l 52 0 l 52 64 l 165 64 l 165 642 l 34 642 l 34 705 l 165 705 l 165 784 l 39 773 l 34 837 l 233 853 l 233 705 z "},"Ĩ":{"ha":814,"x_min":136,"x_max":678,"o":"m 136 764 l 678 764 l 678 700 l 441 700 l 441 64 l 678 64 l 678 0 l 136 0 l 136 64 l 373 64 l 373 700 l 136 700 l 136 764 m 570 1020 l 624 1002 q 621 993 621 1000 q 569 908 605 939 q 488 878 533 878 q 392 921 446 878 q 317 960 339 960 q 247 890 274 960 l 244 882 l 190 901 q 317 1021 233 1021 q 418 975 363 1021 q 492 939 467 939 q 570 1020 541 939 z "},"ĩ":{"ha":814,"x_min":137,"x_max":678,"o":"m 176 583 l 444 583 l 444 64 l 678 64 l 678 0 l 137 0 l 137 64 l 376 64 l 376 519 l 176 519 l 176 583 m 570 840 l 624 822 q 621 812 621 819 q 569 728 605 758 q 488 697 533 697 q 392 741 446 697 q 317 780 339 780 q 247 709 274 780 l 244 701 l 190 720 q 317 841 233 841 q 418 795 363 841 q 492 758 467 758 q 570 840 541 758 z "},"Ī":{"ha":814,"x_min":136,"x_max":678,"o":"m 136 764 l 678 764 l 678 700 l 441 700 l 441 64 l 678 64 l 678 0 l 136 0 l 136 64 l 373 64 l 373 700 l 136 700 l 136 764 m 176 983 l 637 983 l 637 916 l 176 916 l 176 983 z "},"ī":{"ha":814,"x_min":137,"x_max":678,"o":"m 176 583 l 444 583 l 444 64 l 678 64 l 678 0 l 137 0 l 137 64 l 376 64 l 376 519 l 176 519 l 176 583 m 176 803 l 637 803 l 637 735 l 176 735 l 176 803 z "},"Į":{"ha":814,"x_min":136,"x_max":678,"o":"m 513 -54 l 499 -126 q 419 -159 461 -159 q 363 -136 385 -159 q 340 -80 340 -113 q 388 -3 340 -34 l 388 0 l 136 0 l 136 64 l 373 64 l 373 700 l 136 700 l 136 764 l 678 764 l 678 700 l 441 700 l 441 64 l 678 64 l 678 0 l 500 0 q 420 -62 420 -24 q 429 -81 420 -75 q 446 -88 437 -88 q 469 -83 460 -88 q 513 -54 477 -79 z "},"į":{"ha":814,"x_min":137,"x_max":678,"o":"m 513 -54 l 499 -126 q 419 -159 461 -159 q 363 -136 385 -159 q 340 -80 340 -113 q 388 -3 340 -34 l 388 0 l 137 0 l 137 64 l 376 64 l 376 519 l 176 519 l 176 583 l 444 583 l 444 64 l 678 64 l 678 0 l 500 0 q 420 -62 420 -24 q 429 -81 420 -75 q 446 -88 437 -88 q 469 -83 460 -88 q 513 -54 477 -79 m 345 728 l 345 890 l 444 890 l 444 728 l 345 728 z "},"İ":{"ha":814,"x_min":136,"x_max":678,"o":"m 136 764 l 678 764 l 678 700 l 441 700 l 441 64 l 678 64 l 678 0 l 136 0 l 136 64 l 373 64 l 373 700 l 136 700 l 136 764 m 358 876 l 358 1023 l 456 1023 l 456 876 l 358 876 z "},"ı":{"ha":814,"x_min":137,"x_max":678,"o":"m 176 583 l 444 583 l 444 64 l 678 64 l 678 0 l 137 0 l 137 64 l 376 64 l 376 519 l 176 519 l 176 583 z "},"Ĳ":{"ha":814,"x_min":64,"x_max":772,"o":"m 64 764 l 369 764 l 369 700 l 250 700 l 250 64 l 369 64 l 369 0 l 64 0 l 64 64 l 182 64 l 182 700 l 64 700 l 64 764 m 484 764 l 772 764 l 772 700 l 685 700 l 685 277 q 684 208 685 232 q 680 142 684 183 q 667 77 677 100 q 644 27 658 53 q 604 -11 629 1 q 545 -23 579 -23 q 391 64 448 -23 l 384 292 l 453 292 l 453 225 q 463 106 457 130 q 488 64 468 81 q 538 45 509 45 q 602 96 587 45 q 617 277 617 146 l 617 700 l 484 700 l 484 764 z "},"ĳ":{"ha":814,"x_min":160,"x_max":654,"o":"m 198 583 l 414 583 l 414 0 l 160 0 l 160 64 l 346 64 l 346 519 l 198 519 l 198 583 m 316 728 l 316 890 l 414 890 l 414 728 l 316 728 m 464 583 l 654 583 l 654 54 q 653 16 654 31 q 648 -28 652 1 q 634 -79 643 -58 q 606 -125 625 -99 q 562 -167 587 -151 q 494 -194 536 -183 q 400 -205 453 -205 q 217 -182 332 -205 l 233 -115 q 404 -137 313 -137 q 492 -123 456 -137 q 547 -90 529 -109 q 574 -39 564 -72 q 585 12 583 -7 q 586 64 586 31 l 586 519 l 464 519 l 464 583 m 529 728 l 529 890 l 627 890 l 627 728 l 529 728 z "},"Ĵ":{"ha":814,"x_min":80,"x_max":785,"o":"m 278 764 l 785 764 l 785 700 l 613 700 l 613 277 q 574 64 613 123 q 492 -1 544 20 q 391 -23 441 -23 q 118 53 282 -23 l 92 64 l 80 357 l 146 357 l 152 225 q 166 139 155 168 q 216 87 178 110 q 376 45 282 45 q 458 60 425 45 q 508 94 491 75 q 534 149 525 113 q 544 210 543 186 q 545 277 545 233 l 545 700 l 278 700 l 278 764 m 487 1023 l 591 1023 l 716 895 l 673 861 l 536 951 l 412 861 l 368 894 l 487 1023 z "},"ĵ":{"ha":814,"x_min":92,"x_max":529,"o":"m 115 583 l 529 583 l 529 54 q 528 16 529 31 q 523 -28 528 1 q 509 -79 518 -58 q 481 -125 500 -99 q 437 -167 463 -151 q 370 -194 411 -183 q 275 -205 328 -205 q 92 -182 202 -205 l 107 -117 q 279 -137 195 -137 q 368 -122 331 -137 q 422 -89 404 -107 q 449 -39 439 -71 q 460 12 458 -7 q 461 64 461 31 l 461 519 l 115 519 l 115 583 m 274 842 l 377 842 l 503 715 l 460 681 l 323 770 l 198 681 l 155 713 l 274 842 z "},"Ķ":{"ha":814,"x_min":81,"x_max":798,"o":"m 81 764 l 378 764 l 378 700 l 263 700 l 263 368 l 605 700 l 494 700 l 494 764 l 758 764 l 758 700 l 697 700 l 403 414 q 536 304 471 380 q 673 64 601 229 l 798 64 l 798 0 l 624 0 q 536 183 601 62 q 454 296 494 254 q 357 368 414 339 l 263 278 l 263 64 l 378 64 l 378 0 l 81 0 l 81 64 l 195 64 l 195 700 l 81 700 l 81 764 m 473 0 l 469 -34 q 534 -60 510 -39 q 561 -94 557 -80 q 564 -118 564 -107 q 562 -138 564 -127 q 549 -163 559 -148 q 515 -187 540 -178 q 456 -197 491 -197 q 307 -176 399 -197 l 316 -117 q 454 -136 392 -136 q 500 -118 500 -136 q 477 -94 500 -100 q 403 -84 453 -88 l 412 0 l 473 0 z "},"ķ":{"ha":814,"x_min":49,"x_max":764,"o":"m 49 836 l 251 853 l 251 324 l 505 517 l 505 519 l 429 519 l 429 583 l 712 583 l 712 519 l 606 519 l 378 345 q 650 64 553 187 l 764 64 l 764 0 l 481 0 l 481 64 l 568 64 q 327 307 498 148 l 251 248 l 251 0 l 71 0 l 71 64 l 183 64 l 183 783 l 54 772 l 49 836 m 410 0 l 406 -34 q 471 -60 448 -39 q 498 -94 495 -80 q 502 -118 502 -107 q 499 -138 502 -127 q 487 -163 496 -148 q 453 -187 477 -178 q 392 -197 429 -197 q 243 -176 334 -197 l 252 -117 q 392 -136 328 -136 q 438 -118 438 -136 q 414 -94 438 -100 q 340 -84 391 -88 l 350 0 l 410 0 z "},"ĸ":{"ha":814,"x_min":50,"x_max":764,"o":"m 251 324 l 505 517 l 505 519 l 429 519 l 429 583 l 713 583 l 713 519 l 606 519 l 378 345 q 650 64 556 184 l 764 64 l 764 0 l 483 0 l 483 64 l 568 64 q 327 307 498 148 l 251 248 l 251 0 l 72 0 l 72 64 l 183 64 l 183 519 l 50 519 l 50 583 l 251 583 l 251 324 z "},"Ĺ":{"ha":814,"x_min":80,"x_max":750,"o":"m 80 764 l 450 764 l 450 700 l 283 700 l 283 64 l 667 64 l 686 338 l 750 338 l 735 0 l 80 0 l 80 64 l 216 64 l 216 700 l 80 700 l 80 764 m 422 1019 l 228 863 l 156 863 l 277 1019 l 422 1019 z "},"ĺ":{"ha":814,"x_min":137,"x_max":677,"o":"m 145 810 l 441 829 l 441 64 l 677 64 l 677 0 l 137 0 l 137 64 l 373 64 l 373 764 l 152 747 l 145 810 m 541 1038 l 347 882 l 275 882 l 396 1038 l 541 1038 z "},"Ļ":{"ha":814,"x_min":80,"x_max":750,"o":"m 449 0 l 445 -34 q 507 -58 484 -39 q 535 -90 530 -76 q 540 -118 540 -104 q 536 -147 540 -133 q 505 -179 532 -161 q 431 -197 479 -197 q 282 -176 374 -197 l 292 -117 q 431 -136 368 -136 q 476 -118 476 -136 q 452 -94 476 -100 q 380 -84 429 -88 l 389 0 l 80 0 l 80 64 l 216 64 l 216 700 l 80 700 l 80 764 l 450 764 l 450 700 l 283 700 l 283 64 l 667 64 l 686 338 l 750 338 l 735 0 l 449 0 z "},"ļ":{"ha":814,"x_min":137,"x_max":677,"o":"m 441 0 l 437 -34 q 501 -60 477 -39 q 528 -94 525 -80 q 532 -118 532 -107 q 529 -138 532 -127 q 517 -163 526 -148 q 483 -187 507 -178 q 423 -197 458 -197 q 274 -176 366 -197 l 283 -117 q 422 -136 359 -136 q 468 -118 468 -136 q 444 -94 468 -100 q 370 -84 420 -88 l 380 0 l 137 0 l 137 64 l 373 64 l 373 764 l 152 747 l 145 810 l 441 829 l 441 64 l 677 64 l 677 0 l 441 0 z "},"Ľ":{"ha":814,"x_min":80,"x_max":750,"o":"m 80 764 l 450 764 l 450 700 l 283 700 l 283 64 l 667 64 l 686 338 l 750 338 l 735 0 l 80 0 l 80 64 l 216 64 l 216 700 l 80 700 l 80 764 m 326 871 l 222 871 l 96 998 l 140 1031 l 277 943 l 401 1032 l 445 998 l 326 871 z "},"ľ":{"ha":814,"x_min":137,"x_max":677,"o":"m 145 810 l 441 829 l 441 64 l 677 64 l 677 0 l 137 0 l 137 64 l 373 64 l 373 764 l 152 747 l 145 810 m 445 886 l 342 886 l 216 1013 l 259 1046 l 396 958 l 521 1047 l 564 1013 l 445 886 z "},"Ŀ":{"ha":814,"x_min":80,"x_max":750,"o":"m 80 764 l 450 764 l 450 700 l 283 700 l 283 64 l 667 64 l 686 338 l 750 338 l 735 0 l 80 0 l 80 64 l 216 64 l 216 700 l 80 700 l 80 764 m 495 517 q 566 492 534 517 q 598 426 598 467 q 566 359 598 384 q 494 334 534 334 q 422 359 454 334 q 391 426 391 385 q 422 492 391 467 q 495 517 454 517 z "},"ŀ":{"ha":814,"x_min":137,"x_max":773,"o":"m 145 810 l 441 829 l 441 64 l 677 64 l 677 0 l 137 0 l 137 64 l 373 64 l 373 764 l 152 747 l 145 810 m 597 481 q 613 493 597 481 q 670 506 629 506 q 742 480 711 506 q 773 414 773 454 q 741 347 773 372 q 670 323 709 323 q 598 347 631 323 q 566 414 566 372 q 597 481 566 456 z "},"Ł":{"ha":814,"x_min":80,"x_max":750,"o":"m 283 435 l 543 583 l 574 529 l 283 361 l 283 64 l 667 64 l 686 338 l 750 338 l 735 0 l 80 0 l 80 64 l 216 64 l 216 331 l 109 269 l 80 324 l 216 404 l 216 700 l 80 700 l 80 764 l 450 764 l 450 700 l 283 700 l 283 435 z "},"ł":{"ha":814,"x_min":137,"x_max":677,"o":"m 441 477 l 625 583 l 656 529 l 441 404 l 441 64 l 677 64 l 677 0 l 137 0 l 137 64 l 373 64 l 373 376 l 189 269 l 157 324 l 373 449 l 373 764 l 152 747 l 145 810 l 441 829 l 441 477 z "},"Ń":{"ha":814,"x_min":38,"x_max":802,"o":"m 38 764 l 270 764 l 627 57 l 651 57 l 651 700 l 499 700 l 499 764 l 802 764 l 802 700 l 713 700 l 713 -18 l 593 -18 l 229 700 l 206 700 l 206 64 l 359 64 l 359 0 l 38 0 l 38 64 l 144 64 l 144 700 l 38 700 l 38 764 m 557 1019 l 363 863 l 292 863 l 412 1019 l 557 1019 z "},"ń":{"ha":814,"x_min":46,"x_max":769,"o":"m 46 583 l 225 583 l 225 507 q 293 553 269 538 q 365 586 317 568 q 458 604 412 604 q 606 541 551 604 q 661 380 661 479 l 661 64 l 769 64 l 769 0 l 476 0 l 476 64 l 593 64 l 593 374 q 556 492 593 449 q 460 536 519 536 q 225 427 362 536 l 225 64 l 339 64 l 339 0 l 46 0 l 46 64 l 157 64 l 157 519 l 46 519 l 46 583 m 557 838 l 363 682 l 292 682 l 412 838 l 557 838 z "},"Ņ":{"ha":814,"x_min":38,"x_max":802,"o":"m 38 764 l 270 764 l 627 57 l 651 57 l 651 700 l 499 700 l 499 764 l 802 764 l 802 700 l 713 700 l 713 -18 l 593 -18 l 229 700 l 206 700 l 206 64 l 359 64 l 359 0 l 38 0 l 38 64 l 144 64 l 144 700 l 38 700 l 38 764 m 453 0 l 449 -34 q 515 -60 491 -39 q 542 -94 538 -80 q 545 -118 545 -107 q 543 -138 545 -127 q 530 -163 540 -148 q 496 -187 521 -178 q 435 -197 472 -197 q 286 -176 377 -197 l 297 -117 q 435 -136 370 -136 q 481 -118 481 -136 q 458 -94 481 -100 q 384 -84 434 -88 l 393 0 l 453 0 z "},"ņ":{"ha":814,"x_min":46,"x_max":769,"o":"m 46 583 l 225 583 l 225 507 q 293 553 269 538 q 365 586 317 568 q 458 604 412 604 q 606 541 551 604 q 661 380 661 479 l 661 64 l 769 64 l 769 0 l 476 0 l 476 64 l 593 64 l 593 374 q 556 492 593 449 q 460 536 519 536 q 225 427 362 536 l 225 64 l 339 64 l 339 0 l 46 0 l 46 64 l 157 64 l 157 519 l 46 519 l 46 583 m 441 0 l 437 -34 q 501 -60 477 -39 q 528 -94 525 -80 q 532 -118 532 -107 q 529 -138 532 -127 q 517 -163 526 -148 q 483 -187 507 -178 q 423 -197 458 -197 q 274 -176 366 -197 l 283 -117 q 422 -136 359 -136 q 468 -118 468 -136 q 444 -94 468 -100 q 370 -84 420 -88 l 380 0 l 441 0 z "},"Ň":{"ha":814,"x_min":38,"x_max":802,"o":"m 38 764 l 270 764 l 627 57 l 651 57 l 651 700 l 499 700 l 499 764 l 802 764 l 802 700 l 713 700 l 713 -18 l 593 -18 l 229 700 l 206 700 l 206 64 l 359 64 l 359 0 l 38 0 l 38 64 l 144 64 l 144 700 l 38 700 l 38 764 m 461 871 l 358 871 l 232 998 l 275 1031 l 412 943 l 537 1032 l 581 998 l 461 871 z "},"ň":{"ha":814,"x_min":46,"x_max":769,"o":"m 46 583 l 225 583 l 225 507 q 293 553 269 538 q 365 586 317 568 q 458 604 412 604 q 606 541 551 604 q 661 380 661 479 l 661 64 l 769 64 l 769 0 l 476 0 l 476 64 l 593 64 l 593 374 q 556 492 593 449 q 460 536 519 536 q 225 427 362 536 l 225 64 l 339 64 l 339 0 l 46 0 l 46 64 l 157 64 l 157 519 l 46 519 l 46 583 m 461 690 l 358 690 l 232 818 l 275 850 l 412 762 l 537 852 l 581 818 l 461 690 z "},"Ŋ":{"ha":814,"x_min":60,"x_max":713,"o":"m 60 764 l 243 764 l 243 673 q 517 781 400 781 q 665 713 616 781 q 713 557 713 646 l 713 28 q 649 -130 713 -73 q 502 -186 585 -186 l 399 -186 l 399 -118 l 502 -118 q 591 -88 556 -118 q 636 -28 627 -58 q 646 28 646 1 l 646 556 q 610 670 646 627 q 507 713 575 713 q 370 676 441 713 q 243 583 298 639 l 243 64 l 357 64 l 357 0 l 60 0 l 60 64 l 175 64 l 175 700 l 60 700 l 60 764 z "},"ŋ":{"ha":814,"x_min":46,"x_max":661,"o":"m 225 427 l 225 64 l 339 64 l 339 0 l 46 0 l 46 64 l 157 64 l 157 519 l 46 519 l 46 583 l 225 583 l 225 507 q 293 553 269 538 q 365 586 317 568 q 458 604 412 604 q 606 542 551 604 q 661 382 661 480 l 661 28 q 595 -132 661 -76 q 448 -189 530 -189 l 357 -189 l 357 -121 l 448 -121 q 555 -73 518 -121 q 593 28 593 -26 l 593 374 q 555 494 593 452 q 461 536 517 536 q 372 517 419 536 q 300 481 326 498 q 225 427 275 464 z "},"Ō":{"ha":814,"x_min":58,"x_max":755,"o":"m 58 381 q 155 670 58 553 q 407 787 251 787 q 660 669 564 787 q 755 381 755 552 q 660 94 755 212 q 407 -23 564 -23 q 155 94 251 -23 q 58 381 58 210 m 132 382 q 205 147 132 250 q 407 45 279 45 q 608 146 534 45 q 682 382 682 247 q 608 619 682 519 q 407 719 533 719 q 204 616 277 719 q 132 382 132 514 m 176 983 l 637 983 l 637 916 l 176 916 l 176 983 z "},"ō":{"ha":814,"x_min":71,"x_max":743,"o":"m 71 296 q 160 518 71 426 q 407 610 250 610 q 655 517 567 610 q 743 296 743 423 q 655 75 743 168 q 407 -19 567 -19 q 160 74 250 -19 q 71 296 71 167 m 214 470 q 179 434 214 470 q 144 296 144 397 q 214 121 144 194 q 407 49 285 49 q 600 122 530 49 q 670 296 670 195 q 600 470 670 397 q 407 543 530 543 q 214 470 285 543 m 176 803 l 637 803 l 637 735 l 176 735 l 176 803 z "},"Ő":{"ha":814,"x_min":58,"x_max":755,"o":"m 58 381 q 155 670 58 553 q 407 787 251 787 q 660 669 564 787 q 755 381 755 552 q 660 94 755 212 q 407 -23 564 -23 q 155 94 251 -23 q 58 381 58 210 m 132 382 q 205 147 132 250 q 407 45 279 45 q 608 146 534 45 q 682 382 682 247 q 608 619 682 519 q 407 719 533 719 q 204 616 277 719 q 132 382 132 514 m 480 1017 l 304 864 l 244 864 l 377 1017 l 480 1017 m 651 1017 l 475 864 l 415 864 l 548 1017 l 651 1017 z "},"ő":{"ha":814,"x_min":71,"x_max":743,"o":"m 71 296 q 160 518 71 426 q 407 610 250 610 q 655 517 567 610 q 743 296 743 423 q 655 75 743 168 q 407 -19 567 -19 q 160 74 250 -19 q 71 296 71 167 m 214 470 q 179 434 214 470 q 144 296 144 397 q 214 121 144 194 q 407 49 285 49 q 600 122 530 49 q 670 296 670 195 q 600 470 670 397 q 407 543 530 543 q 214 470 285 543 m 480 837 l 304 684 l 244 684 l 377 837 l 480 837 m 651 837 l 475 684 l 415 684 l 548 837 l 651 837 z "},"Œ":{"ha":814,"x_min":22,"x_max":746,"o":"m 378 764 l 728 764 l 728 519 l 669 519 l 656 700 l 477 700 l 477 437 l 566 437 l 566 536 l 628 536 l 628 274 l 566 274 l 566 373 l 477 373 l 477 64 l 675 64 l 684 251 l 746 251 l 746 0 l 328 0 q 157 62 229 0 q 53 208 84 125 q 22 376 22 290 q 121 652 22 541 q 378 764 220 764 m 410 64 l 410 700 l 374 700 q 170 608 244 700 q 95 380 95 515 q 110 274 95 327 q 153 173 125 221 q 233 94 182 125 q 350 64 285 64 l 410 64 z "},"œ":{"ha":814,"x_min":14,"x_max":770,"o":"m 762 278 l 434 278 q 448 163 433 212 q 488 90 463 114 q 539 56 514 66 q 590 45 564 45 q 746 75 648 45 l 770 16 q 593 -20 663 -20 q 407 106 464 -20 q 221 -20 349 -20 q 133 -3 171 -20 q 74 45 95 14 q 39 105 53 76 q 21 173 26 134 q 15 229 16 212 q 14 267 14 245 q 35 434 14 359 q 108 560 56 509 q 239 612 160 612 q 351 574 309 612 q 407 499 392 536 q 482 582 437 553 q 575 610 528 610 q 686 562 640 610 q 748 456 731 514 q 765 340 765 397 q 762 278 765 302 m 366 286 q 356 423 366 369 q 326 503 346 477 q 286 538 307 529 q 239 547 266 547 q 151 503 186 547 q 101 399 115 458 q 87 271 87 339 q 97 167 87 214 q 139 82 107 119 q 220 45 171 45 q 366 286 366 45 m 434 338 l 697 338 q 666 484 697 423 q 575 545 635 545 q 541 538 560 545 q 496 511 522 530 q 453 447 471 492 q 434 338 435 401 z "},"Ŕ":{"ha":814,"x_min":61,"x_max":783,"o":"m 61 764 l 410 764 q 521 757 481 764 q 594 727 560 750 q 653 655 629 703 q 677 559 677 608 q 627 425 677 487 q 469 351 576 362 q 663 64 518 305 l 783 64 l 783 0 l 613 0 q 483 232 567 100 q 435 302 450 282 q 396 336 420 321 q 338 350 372 350 l 240 350 l 240 64 l 361 64 l 361 0 l 61 0 l 61 64 l 172 64 l 172 700 l 61 700 l 61 764 m 407 700 l 240 700 l 240 414 l 366 414 q 420 414 400 414 q 479 422 439 415 q 543 444 519 430 q 585 489 566 458 q 604 563 604 519 q 547 677 604 637 q 407 700 513 700 m 557 1019 l 363 863 l 292 863 l 412 1019 l 557 1019 z "},"ŕ":{"ha":814,"x_min":102,"x_max":770,"o":"m 113 583 l 338 583 l 338 448 q 391 499 372 481 q 450 546 411 517 q 531 589 490 575 q 618 602 572 602 q 690 589 658 602 q 736 564 722 576 q 770 528 751 551 l 699 475 q 693 484 693 480 q 676 508 682 500 q 651 525 670 515 q 608 534 632 534 q 525 517 567 534 q 444 465 483 499 q 385 412 404 431 q 338 361 366 392 l 338 64 l 595 64 l 595 0 l 102 0 l 102 64 l 270 64 l 270 519 l 113 519 l 113 583 m 557 838 l 363 682 l 292 682 l 412 838 l 557 838 z "},"Ŗ":{"ha":814,"x_min":61,"x_max":783,"o":"m 61 764 l 410 764 q 521 757 481 764 q 594 727 560 750 q 653 655 629 703 q 677 559 677 608 q 627 425 677 487 q 469 351 576 362 q 663 64 518 305 l 783 64 l 783 0 l 613 0 q 483 232 567 100 q 435 302 450 282 q 396 336 420 321 q 338 350 372 350 l 240 350 l 240 64 l 361 64 l 361 0 l 61 0 l 61 64 l 172 64 l 172 700 l 61 700 l 61 764 m 407 700 l 240 700 l 240 414 l 366 414 q 420 414 400 414 q 479 422 439 415 q 543 444 519 430 q 585 489 566 458 q 604 563 604 519 q 547 677 604 637 q 407 700 513 700 m 456 0 l 452 -34 q 517 -60 494 -39 q 545 -94 541 -80 q 548 -118 548 -107 q 545 -138 548 -127 q 533 -163 543 -148 q 499 -187 524 -178 q 438 -197 475 -197 q 289 -176 380 -197 l 300 -117 q 438 -136 373 -136 q 484 -118 484 -136 q 460 -94 484 -100 q 387 -84 437 -88 l 396 0 l 456 0 z "},"ŗ":{"ha":814,"x_min":102,"x_max":770,"o":"m 469 0 l 465 -34 q 530 -60 507 -39 q 557 -93 553 -80 q 560 -118 560 -106 q 556 -147 560 -133 q 526 -179 552 -161 q 452 -197 499 -197 q 302 -176 393 -197 l 312 -117 q 452 -136 388 -136 q 498 -118 498 -136 q 474 -94 498 -100 q 400 -84 450 -88 l 410 0 l 102 0 l 102 64 l 270 64 l 270 519 l 113 519 l 113 583 l 338 583 l 338 448 q 391 499 372 481 q 450 546 411 517 q 531 589 490 575 q 618 602 572 602 q 690 589 658 602 q 736 564 722 576 q 770 528 751 551 l 699 475 q 677 505 685 495 q 650 525 669 515 q 608 534 632 534 q 525 517 567 534 q 444 465 483 499 q 385 412 404 431 q 338 361 366 392 l 338 64 l 595 64 l 595 0 l 469 0 z "},"Ř":{"ha":814,"x_min":61,"x_max":783,"o":"m 61 764 l 410 764 q 521 757 481 764 q 594 727 560 750 q 653 655 629 703 q 677 559 677 608 q 627 425 677 487 q 469 351 576 362 q 663 64 518 305 l 783 64 l 783 0 l 613 0 q 483 232 567 100 q 435 302 450 282 q 396 336 420 321 q 338 350 372 350 l 240 350 l 240 64 l 361 64 l 361 0 l 61 0 l 61 64 l 172 64 l 172 700 l 61 700 l 61 764 m 407 700 l 240 700 l 240 414 l 366 414 q 420 414 400 414 q 479 422 439 415 q 543 444 519 430 q 585 489 566 458 q 604 563 604 519 q 547 677 604 637 q 407 700 513 700 m 461 871 l 358 871 l 232 998 l 275 1031 l 412 943 l 537 1032 l 581 998 l 461 871 z "},"ř":{"ha":814,"x_min":102,"x_max":770,"o":"m 113 583 l 338 583 l 338 448 q 391 499 372 481 q 450 546 411 517 q 531 589 490 575 q 618 602 572 602 q 690 589 658 602 q 736 564 722 576 q 770 528 751 551 l 699 475 q 693 484 693 480 q 676 508 682 500 q 651 525 670 515 q 608 534 632 534 q 525 517 567 534 q 444 465 483 499 q 385 412 404 431 q 338 361 366 392 l 338 64 l 595 64 l 595 0 l 102 0 l 102 64 l 270 64 l 270 519 l 113 519 l 113 583 m 461 690 l 358 690 l 232 818 l 275 850 l 412 762 l 537 852 l 581 818 l 461 690 z "},"Ś":{"ha":814,"x_min":134,"x_max":696,"o":"m 627 779 l 688 779 q 675 681 675 726 q 688 519 675 618 l 627 509 q 585 636 616 589 q 412 719 530 719 q 261 669 315 719 q 208 559 208 618 q 229 486 208 515 q 288 441 250 456 q 351 422 327 427 q 414 414 376 418 q 539 395 499 404 q 612 365 579 387 q 696 208 696 308 q 612 37 696 98 q 418 -23 528 -23 q 232 39 307 -23 q 221 45 227 45 q 208 34 214 45 q 195 -27 202 18 l 134 -27 q 146 94 146 31 q 134 237 146 123 l 195 237 q 241 117 212 156 q 408 45 296 45 q 572 92 521 45 q 623 202 623 140 q 609 261 623 236 q 577 300 595 286 q 530 324 559 315 q 481 336 500 334 q 434 342 463 339 q 360 350 388 346 q 284 369 332 354 q 208 404 236 384 q 157 463 179 425 q 134 553 134 502 q 212 718 134 648 q 404 787 290 787 q 572 731 502 787 q 604 712 598 712 q 614 719 612 712 q 624 761 617 726 q 627 779 627 772 m 557 1019 l 363 863 l 292 863 l 412 1019 l 557 1019 z "},"ś":{"ha":814,"x_min":132,"x_max":684,"o":"m 593 610 l 654 601 q 642 484 642 537 q 648 399 642 456 l 589 392 q 576 438 583 420 q 549 481 570 456 q 486 520 529 507 q 376 533 442 533 q 253 505 298 533 q 208 433 208 476 q 216 391 208 408 q 245 361 224 373 q 286 342 267 350 q 345 331 305 335 q 410 325 385 327 q 487 320 434 323 q 520 317 505 319 q 568 307 536 316 q 624 283 601 297 q 665 239 647 269 q 684 168 684 209 q 604 28 684 77 q 425 -20 525 -20 q 225 37 326 -20 q 218 39 221 39 q 191 -18 206 39 l 132 -18 q 140 68 140 28 q 132 202 140 109 l 191 209 q 199 174 195 189 q 217 133 202 159 q 254 90 232 107 q 316 60 275 73 q 410 47 357 47 q 465 52 437 47 q 530 66 494 56 q 588 103 566 77 q 610 165 610 129 q 597 213 610 195 q 553 239 585 231 q 496 251 522 248 q 416 255 469 254 q 134 430 134 266 q 201 552 134 503 q 374 601 269 601 q 530 562 467 601 q 560 549 543 549 q 585 582 574 549 l 593 610 m 557 838 l 363 682 l 292 682 l 412 838 l 557 838 z "},"Ŝ":{"ha":814,"x_min":134,"x_max":696,"o":"m 627 779 l 688 779 q 675 681 675 726 q 688 519 675 618 l 627 509 q 585 636 616 589 q 412 719 530 719 q 261 669 315 719 q 208 559 208 618 q 229 486 208 515 q 288 441 250 456 q 351 422 327 427 q 414 414 376 418 q 539 395 499 404 q 612 365 579 387 q 696 208 696 308 q 612 37 696 98 q 418 -23 528 -23 q 232 39 307 -23 q 221 45 227 45 q 208 34 214 45 q 195 -27 202 18 l 134 -27 q 146 94 146 31 q 134 237 146 123 l 195 237 q 241 117 212 156 q 408 45 296 45 q 572 92 521 45 q 623 202 623 140 q 609 261 623 236 q 577 300 595 286 q 530 324 559 315 q 481 336 500 334 q 434 342 463 339 q 360 350 388 346 q 284 369 332 354 q 208 404 236 384 q 157 463 179 425 q 134 553 134 502 q 212 718 134 648 q 404 787 290 787 q 572 731 502 787 q 604 712 598 712 q 614 719 612 712 q 624 761 617 726 q 627 779 627 772 m 351 1023 l 456 1023 l 581 895 l 537 861 l 400 951 l 277 861 l 232 894 l 351 1023 z "},"ŝ":{"ha":814,"x_min":132,"x_max":684,"o":"m 593 610 l 654 601 q 642 484 642 537 q 648 399 642 456 l 589 392 q 576 438 583 420 q 549 481 570 456 q 486 520 529 507 q 376 533 442 533 q 253 505 298 533 q 208 433 208 476 q 216 391 208 408 q 245 361 224 373 q 286 342 267 350 q 345 331 305 335 q 410 325 385 327 q 487 320 434 323 q 520 317 505 319 q 568 307 536 316 q 624 283 601 297 q 665 239 647 269 q 684 168 684 209 q 604 28 684 77 q 425 -20 525 -20 q 225 37 326 -20 q 218 39 221 39 q 191 -18 206 39 l 132 -18 q 140 68 140 28 q 132 202 140 109 l 191 209 q 199 174 195 189 q 217 133 202 159 q 254 90 232 107 q 316 60 275 73 q 410 47 357 47 q 465 52 437 47 q 530 66 494 56 q 588 103 566 77 q 610 165 610 129 q 597 213 610 195 q 553 239 585 231 q 496 251 522 248 q 416 255 469 254 q 134 430 134 266 q 201 552 134 503 q 374 601 269 601 q 530 562 467 601 q 560 549 543 549 q 585 582 574 549 l 593 610 m 351 842 l 456 842 l 581 715 l 537 681 l 400 770 l 277 681 l 232 713 l 351 842 z "},"Ş":{"ha":814,"x_min":134,"x_max":696,"o":"m 445 -22 l 444 -34 q 509 -60 486 -39 q 536 -94 533 -80 q 540 -118 540 -107 q 537 -138 540 -127 q 525 -163 534 -148 q 491 -187 515 -178 q 430 -197 467 -197 q 281 -176 372 -197 l 290 -117 q 430 -136 366 -136 q 476 -118 476 -136 q 452 -94 476 -100 q 378 -84 429 -88 l 385 -22 q 264 16 317 -16 q 252 25 262 18 q 233 39 243 33 q 221 45 224 45 q 208 34 214 45 q 195 -27 202 18 l 134 -27 q 146 94 146 31 q 134 237 146 123 l 195 237 q 211 177 202 201 q 241 118 220 153 q 306 64 263 83 q 410 45 349 45 q 567 89 511 45 q 623 201 623 133 q 604 271 623 243 q 553 313 586 300 q 494 332 519 327 q 434 342 469 338 q 360 350 388 346 q 284 369 332 354 q 208 404 236 384 q 157 463 179 425 q 134 553 134 502 q 212 718 134 648 q 404 787 290 787 q 572 731 502 787 q 604 712 598 712 q 618 730 610 712 q 627 779 627 762 l 688 779 q 675 681 675 726 q 688 519 675 618 l 627 509 q 614 567 621 543 q 587 632 608 591 q 521 696 566 673 q 412 719 476 719 q 264 671 320 719 q 208 559 208 623 q 229 486 208 515 q 288 441 250 456 q 351 422 327 427 q 414 414 376 418 q 539 395 499 404 q 612 365 579 387 q 696 208 696 309 q 637 59 696 126 q 445 -22 578 -8 z "},"ş":{"ha":814,"x_min":132,"x_max":684,"o":"m 439 -20 l 437 -34 q 503 -60 479 -39 q 530 -94 526 -80 q 533 -118 533 -107 q 530 -138 533 -127 q 518 -163 528 -148 q 484 -187 509 -178 q 423 -197 460 -197 q 274 -176 366 -197 l 283 -117 q 423 -136 359 -136 q 469 -118 469 -136 q 446 -94 469 -100 q 372 -84 422 -88 l 380 -18 q 273 12 317 -7 l 218 39 q 191 -18 206 39 l 132 -18 q 140 68 140 28 q 132 202 140 109 l 191 209 q 199 174 195 189 q 217 133 202 159 q 254 90 232 107 q 316 60 275 73 q 410 47 357 47 q 465 52 435 47 q 529 67 494 56 q 587 104 564 79 q 610 167 610 130 q 600 208 610 191 q 576 232 589 224 q 532 245 563 240 q 481 252 502 251 q 416 255 460 254 q 134 430 134 266 q 201 552 134 503 q 374 601 269 601 q 515 570 458 601 q 538 558 519 567 q 560 549 556 549 q 573 558 568 549 q 593 610 578 567 l 654 601 q 642 484 642 537 q 648 399 642 456 l 589 392 q 580 428 583 415 q 562 464 576 441 q 528 500 548 487 q 468 523 507 513 q 376 533 429 533 q 253 504 298 533 q 208 431 208 475 q 216 389 208 407 q 246 360 224 372 q 286 342 269 349 q 346 330 304 335 q 410 324 388 326 q 487 320 431 323 q 533 315 510 319 q 595 297 556 311 q 659 250 635 283 q 684 167 684 216 q 619 38 684 90 q 439 -20 555 -14 z "},"Š":{"ha":814,"x_min":134,"x_max":696,"o":"m 627 779 l 688 779 q 675 681 675 726 q 688 519 675 618 l 627 509 q 585 636 616 589 q 412 719 530 719 q 261 669 315 719 q 208 559 208 618 q 229 486 208 515 q 288 441 250 456 q 351 422 327 427 q 414 414 376 418 q 539 395 499 404 q 612 365 579 387 q 696 208 696 308 q 612 37 696 98 q 418 -23 528 -23 q 232 39 307 -23 q 221 45 227 45 q 208 34 214 45 q 195 -27 202 18 l 134 -27 q 146 94 146 31 q 134 237 146 123 l 195 237 q 241 117 212 156 q 408 45 296 45 q 572 92 521 45 q 623 202 623 140 q 609 261 623 236 q 577 300 595 286 q 530 324 559 315 q 481 336 500 334 q 434 342 463 339 q 360 350 388 346 q 284 369 332 354 q 208 404 236 384 q 157 463 179 425 q 134 553 134 502 q 212 718 134 648 q 404 787 290 787 q 572 731 502 787 q 604 712 598 712 q 614 719 612 712 q 624 761 617 726 q 627 779 627 772 m 461 871 l 358 871 l 232 998 l 275 1031 l 412 943 l 537 1032 l 581 998 l 461 871 z "},"š":{"ha":814,"x_min":132,"x_max":684,"o":"m 593 610 l 654 601 q 642 484 642 537 q 648 399 642 456 l 589 392 q 576 438 583 420 q 549 481 570 456 q 486 520 529 507 q 376 533 442 533 q 253 505 298 533 q 208 433 208 476 q 216 391 208 408 q 245 361 224 373 q 286 342 267 350 q 345 331 305 335 q 410 325 385 327 q 487 320 434 323 q 520 317 505 319 q 568 307 536 316 q 624 283 601 297 q 665 239 647 269 q 684 168 684 209 q 604 28 684 77 q 425 -20 525 -20 q 225 37 326 -20 q 218 39 221 39 q 191 -18 206 39 l 132 -18 q 140 68 140 28 q 132 202 140 109 l 191 209 q 199 174 195 189 q 217 133 202 159 q 254 90 232 107 q 316 60 275 73 q 410 47 357 47 q 465 52 437 47 q 530 66 494 56 q 588 103 566 77 q 610 165 610 129 q 597 213 610 195 q 553 239 585 231 q 496 251 522 248 q 416 255 469 254 q 134 430 134 266 q 201 552 134 503 q 374 601 269 601 q 530 562 467 601 q 560 549 543 549 q 585 582 574 549 l 593 610 m 461 690 l 358 690 l 232 818 l 275 850 l 412 762 l 537 852 l 581 818 l 461 690 z "},"Ţ":{"ha":814,"x_min":58,"x_max":755,"o":"m 427 0 l 423 -34 q 486 -58 463 -39 q 513 -90 509 -76 q 518 -118 518 -104 q 515 -138 518 -127 q 503 -163 513 -148 q 469 -187 494 -178 q 410 -197 445 -197 q 260 -176 353 -197 l 270 -117 q 408 -136 346 -136 q 454 -118 454 -136 q 431 -94 454 -100 q 357 -84 407 -88 l 366 0 l 209 0 l 209 64 l 373 64 l 373 700 l 142 700 l 123 435 l 58 444 l 81 764 l 732 764 l 755 444 l 690 435 l 671 700 l 441 700 l 441 64 l 605 64 l 605 0 l 427 0 z "},"ţ":{"ha":814,"x_min":142,"x_max":730,"o":"m 468 -19 l 467 -34 q 532 -60 509 -39 q 558 -93 555 -80 q 562 -118 562 -106 q 557 -147 562 -133 q 527 -179 553 -161 q 453 -197 500 -197 q 304 -176 396 -197 l 313 -117 q 453 -136 389 -136 q 498 -118 498 -136 q 474 -94 498 -100 q 401 -84 450 -88 l 410 -16 q 325 10 359 -9 q 273 51 290 30 q 246 110 255 72 q 236 173 237 148 q 235 244 235 198 l 235 500 l 142 500 l 142 564 l 235 564 l 235 764 l 302 764 l 302 564 l 631 564 l 631 500 l 302 500 l 302 245 q 303 185 302 205 q 311 134 304 165 q 332 88 319 103 q 374 61 346 73 q 444 49 403 49 q 705 119 537 49 l 730 58 q 468 -19 578 -12 z "},"Ť":{"ha":814,"x_min":58,"x_max":755,"o":"m 81 764 l 732 764 l 755 444 l 690 435 l 671 700 l 441 700 l 441 64 l 605 64 l 605 0 l 209 0 l 209 64 l 373 64 l 373 700 l 142 700 l 123 435 l 58 444 l 81 764 m 461 871 l 358 871 l 232 998 l 275 1031 l 412 943 l 537 1032 l 581 998 l 461 871 z "},"ť":{"ha":814,"x_min":127,"x_max":730,"o":"m 235 764 l 302 764 l 302 564 l 631 564 l 631 500 l 302 500 l 302 244 q 303 184 302 203 q 311 133 304 164 q 332 87 319 102 q 374 61 346 73 q 444 49 403 49 q 705 119 537 49 l 730 58 q 450 -19 559 -19 q 282 42 343 -19 q 242 117 250 75 q 235 244 235 160 l 235 500 l 142 500 l 142 564 l 235 564 l 235 764 m 357 815 l 254 815 l 127 943 l 171 975 l 308 887 l 433 977 l 476 943 l 357 815 z "},"Ŧ":{"ha":814,"x_min":58,"x_max":755,"o":"m 441 480 l 631 480 l 631 416 l 441 416 l 441 64 l 608 64 l 608 0 l 209 0 l 209 64 l 373 64 l 373 416 l 183 416 l 183 480 l 373 480 l 373 700 l 142 700 l 125 435 l 58 444 l 81 764 l 732 764 l 755 444 l 690 435 l 671 700 l 441 700 l 441 480 z "},"ŧ":{"ha":814,"x_min":144,"x_max":730,"o":"m 302 415 l 631 415 l 631 351 l 302 351 l 302 244 q 304 183 302 205 q 313 132 305 161 q 334 87 320 102 q 376 60 349 72 q 444 49 403 49 q 705 119 536 49 l 730 58 q 449 -19 562 -19 q 282 42 343 -19 q 242 117 250 75 q 235 244 235 160 l 235 351 l 144 351 l 144 415 l 235 415 l 235 500 l 144 500 l 144 564 l 235 564 l 235 764 l 302 764 l 302 564 l 631 564 l 631 500 l 302 500 l 302 415 z "},"Ũ":{"ha":814,"x_min":33,"x_max":783,"o":"m 33 764 l 336 764 l 336 700 l 198 700 l 198 317 q 224 141 198 194 q 406 45 270 45 q 590 130 547 45 q 617 304 617 179 l 617 700 l 479 700 l 479 764 l 783 764 l 783 700 l 685 700 l 685 304 q 636 76 685 144 q 549 7 609 38 q 407 -23 490 -23 q 176 83 251 -23 q 130 317 130 149 l 130 700 l 33 700 l 33 764 m 570 1020 l 624 1002 q 621 993 621 1000 q 569 908 605 939 q 488 878 533 878 q 392 921 446 878 q 317 960 339 960 q 247 890 274 960 l 244 882 l 190 901 q 317 1021 233 1021 q 418 975 363 1021 q 492 939 467 939 q 570 1020 541 939 z "},"ũ":{"ha":814,"x_min":43,"x_max":754,"o":"m 43 583 l 222 583 l 222 224 q 358 49 222 49 q 576 167 471 49 l 576 519 l 460 519 l 460 583 l 644 583 l 644 64 l 754 64 l 754 0 l 576 0 l 576 75 q 363 -19 472 -19 q 259 3 302 -19 q 194 63 216 26 q 163 140 172 100 q 155 224 155 179 l 155 519 l 43 519 l 43 583 m 570 840 l 624 822 q 621 812 621 819 q 569 728 605 758 q 488 697 533 697 q 392 741 446 697 q 317 780 339 780 q 247 709 274 780 l 244 701 l 190 720 q 317 841 233 841 q 418 795 363 841 q 492 758 467 758 q 570 840 541 758 z "},"Ū":{"ha":814,"x_min":33,"x_max":783,"o":"m 33 764 l 336 764 l 336 700 l 198 700 l 198 317 q 224 141 198 194 q 406 45 270 45 q 590 130 547 45 q 617 304 617 179 l 617 700 l 479 700 l 479 764 l 783 764 l 783 700 l 685 700 l 685 304 q 636 76 685 144 q 549 7 609 38 q 407 -23 490 -23 q 176 83 251 -23 q 130 317 130 149 l 130 700 l 33 700 l 33 764 m 176 983 l 637 983 l 637 916 l 176 916 l 176 983 z "},"ū":{"ha":814,"x_min":43,"x_max":754,"o":"m 43 583 l 222 583 l 222 224 q 358 49 222 49 q 576 167 471 49 l 576 519 l 460 519 l 460 583 l 644 583 l 644 64 l 754 64 l 754 0 l 576 0 l 576 75 q 363 -19 472 -19 q 259 3 302 -19 q 194 63 216 26 q 163 140 172 100 q 155 224 155 179 l 155 519 l 43 519 l 43 583 m 176 803 l 637 803 l 637 735 l 176 735 l 176 803 z "},"Ŭ":{"ha":814,"x_min":33,"x_max":783,"o":"m 33 764 l 336 764 l 336 700 l 198 700 l 198 317 q 224 141 198 194 q 406 45 270 45 q 590 130 547 45 q 617 304 617 179 l 617 700 l 479 700 l 479 764 l 783 764 l 783 700 l 685 700 l 685 304 q 636 76 685 144 q 549 7 609 38 q 407 -23 490 -23 q 176 83 251 -23 q 130 317 130 149 l 130 700 l 33 700 l 33 764 m 187 1027 l 250 1027 q 252 1023 250 1027 q 407 930 302 930 q 562 1023 509 930 q 564 1027 562 1027 l 627 1027 q 407 872 571 872 q 214 967 281 872 q 187 1027 206 979 z "},"ŭ":{"ha":814,"x_min":43,"x_max":754,"o":"m 43 583 l 222 583 l 222 224 q 358 49 222 49 q 576 167 471 49 l 576 519 l 460 519 l 460 583 l 644 583 l 644 64 l 754 64 l 754 0 l 576 0 l 576 75 q 363 -19 472 -19 q 259 3 302 -19 q 194 63 216 26 q 163 140 172 100 q 155 224 155 179 l 155 519 l 43 519 l 43 583 m 187 846 l 250 846 q 252 842 250 846 q 407 750 302 750 q 562 842 509 750 q 564 846 562 846 l 627 846 q 407 692 571 692 q 214 787 281 692 q 187 846 206 799 z "},"Ů":{"ha":814,"x_min":33,"x_max":783,"o":"m 33 764 l 336 764 l 336 700 l 198 700 l 198 317 q 224 141 198 194 q 406 45 270 45 q 590 130 547 45 q 617 304 617 179 l 617 700 l 479 700 l 479 764 l 783 764 l 783 700 l 685 700 l 685 304 q 636 76 685 144 q 549 7 609 38 q 407 -23 490 -23 q 176 83 251 -23 q 130 317 130 149 l 130 700 l 33 700 l 33 764 m 334 1021 q 349 1036 334 1021 q 407 1051 363 1051 q 480 1021 450 1051 q 510 948 510 991 q 480 875 510 905 q 407 845 450 845 q 334 875 363 845 q 304 948 304 905 q 334 1021 304 991 m 444 985 q 437 992 444 985 q 408 1000 430 1000 q 371 985 387 1000 q 355 948 355 971 q 371 911 355 926 q 408 897 387 897 q 444 911 430 897 q 458 948 458 926 q 444 985 458 970 z "},"ů":{"ha":814,"x_min":43,"x_max":754,"o":"m 43 583 l 222 583 l 222 224 q 358 49 222 49 q 576 167 471 49 l 576 519 l 460 519 l 460 583 l 644 583 l 644 64 l 754 64 l 754 0 l 576 0 l 576 75 q 363 -19 472 -19 q 259 3 302 -19 q 194 63 216 26 q 163 140 172 100 q 155 224 155 179 l 155 519 l 43 519 l 43 583 m 334 841 q 349 856 334 841 q 407 871 363 871 q 480 841 450 871 q 510 768 510 811 q 480 694 510 724 q 407 665 450 665 q 334 694 363 665 q 304 768 304 724 q 334 841 304 811 m 444 804 q 437 812 444 804 q 408 819 430 819 q 371 805 387 819 q 355 768 355 791 q 371 731 355 746 q 408 716 387 716 q 444 731 430 716 q 458 768 458 746 q 444 804 458 789 z "},"Ű":{"ha":814,"x_min":33,"x_max":783,"o":"m 33 764 l 336 764 l 336 700 l 198 700 l 198 317 q 224 141 198 194 q 406 45 270 45 q 590 130 547 45 q 617 304 617 179 l 617 700 l 479 700 l 479 764 l 783 764 l 783 700 l 685 700 l 685 304 q 636 76 685 144 q 549 7 609 38 q 407 -23 490 -23 q 176 83 251 -23 q 130 317 130 149 l 130 700 l 33 700 l 33 764 m 480 1017 l 304 864 l 244 864 l 377 1017 l 480 1017 m 651 1017 l 475 864 l 415 864 l 548 1017 l 651 1017 z "},"ű":{"ha":814,"x_min":43,"x_max":754,"o":"m 43 583 l 222 583 l 222 224 q 358 49 222 49 q 576 167 471 49 l 576 519 l 460 519 l 460 583 l 644 583 l 644 64 l 754 64 l 754 0 l 576 0 l 576 75 q 363 -19 472 -19 q 259 3 302 -19 q 194 63 216 26 q 163 140 172 100 q 155 224 155 179 l 155 519 l 43 519 l 43 583 m 480 837 l 304 684 l 244 684 l 377 837 l 480 837 m 651 837 l 475 684 l 415 684 l 548 837 l 651 837 z "},"Ų":{"ha":814,"x_min":33,"x_max":783,"o":"m 548 -54 l 536 -126 q 456 -159 498 -159 q 399 -136 422 -159 q 377 -80 377 -113 q 399 -23 377 -49 q 299 -5 343 -19 q 227 28 255 9 q 180 78 199 47 q 151 132 160 109 q 136 194 141 156 q 131 252 132 232 q 130 307 130 271 q 130 317 130 313 l 130 700 l 33 700 l 33 764 l 336 764 l 336 700 l 198 700 l 198 317 q 199 245 198 271 q 212 175 201 218 q 243 107 222 132 q 304 64 263 83 q 406 45 346 45 q 475 50 445 45 q 528 68 506 56 q 566 94 549 81 q 591 130 582 107 q 606 168 601 152 q 614 212 612 183 q 616 257 616 241 q 617 304 617 273 l 617 700 l 479 700 l 479 764 l 783 764 l 783 700 l 685 700 l 685 304 q 654 100 685 160 q 529 -3 624 39 q 457 -62 457 -33 q 483 -88 457 -88 q 548 -54 500 -88 z "},"ų":{"ha":814,"x_min":43,"x_max":754,"o":"m 697 -54 l 684 -126 q 605 -159 648 -159 q 549 -136 571 -159 q 526 -80 526 -113 q 576 3 526 -31 l 576 75 q 363 -19 472 -19 q 259 3 302 -19 q 194 63 216 26 q 163 140 172 100 q 155 224 155 179 l 155 519 l 43 519 l 43 583 l 222 583 l 222 224 q 358 50 222 50 q 576 167 472 50 l 576 519 l 460 519 l 460 583 l 644 583 l 644 64 l 754 64 l 754 0 l 686 0 q 632 -25 658 -8 q 606 -62 606 -42 q 632 -88 606 -88 q 697 -54 650 -88 z "},"Ÿ":{"ha":814,"x_min":43,"x_max":770,"o":"m 43 764 l 309 764 l 309 700 l 206 700 l 411 363 l 613 700 l 507 700 l 507 764 l 770 764 l 770 700 l 685 700 l 442 296 l 442 64 l 602 64 l 602 0 l 213 0 l 213 64 l 374 64 l 374 296 l 129 700 l 43 700 l 43 764 m 270 876 l 270 1023 l 368 1023 l 368 876 l 270 876 m 446 876 l 446 1023 l 544 1023 l 544 876 l 446 876 z "},"Ź":{"ha":814,"x_min":114,"x_max":700,"o":"m 123 764 l 669 764 l 669 708 l 195 64 l 636 64 l 636 283 l 700 283 l 700 0 l 114 0 l 114 64 l 582 700 l 187 700 l 187 502 l 123 502 l 123 764 m 557 1019 l 363 863 l 292 863 l 412 1019 l 557 1019 z "},"ź":{"ha":814,"x_min":141,"x_max":673,"o":"m 155 583 l 673 583 l 673 525 l 233 64 l 609 64 l 609 189 l 673 189 l 673 0 l 141 0 l 141 64 l 576 519 l 218 519 l 218 399 l 155 399 l 155 583 m 557 838 l 363 682 l 292 682 l 412 838 l 557 838 z "},"Ż":{"ha":814,"x_min":114,"x_max":700,"o":"m 123 764 l 669 764 l 669 708 l 195 64 l 636 64 l 636 283 l 700 283 l 700 0 l 114 0 l 114 64 l 582 700 l 187 700 l 187 502 l 123 502 l 123 764 m 358 876 l 358 1023 l 456 1023 l 456 876 l 358 876 z "},"ż":{"ha":814,"x_min":141,"x_max":673,"o":"m 155 583 l 673 583 l 673 525 l 233 64 l 609 64 l 609 189 l 673 189 l 673 0 l 141 0 l 141 64 l 576 519 l 218 519 l 218 399 l 155 399 l 155 583 m 358 696 l 358 842 l 456 842 l 456 696 l 358 696 z "},"Ž":{"ha":814,"x_min":114,"x_max":700,"o":"m 123 764 l 669 764 l 669 708 l 195 64 l 636 64 l 636 283 l 700 283 l 700 0 l 114 0 l 114 64 l 582 700 l 187 700 l 187 502 l 123 502 l 123 764 m 461 871 l 358 871 l 232 998 l 275 1031 l 412 943 l 537 1032 l 581 998 l 461 871 z "},"ž":{"ha":814,"x_min":141,"x_max":673,"o":"m 155 583 l 673 583 l 673 525 l 233 64 l 609 64 l 609 189 l 673 189 l 673 0 l 141 0 l 141 64 l 576 519 l 218 519 l 218 399 l 155 399 l 155 583 m 461 690 l 358 690 l 232 818 l 275 850 l 412 762 l 537 852 l 581 818 l 461 690 z "},"ƒ":{"ha":814,"x_min":33,"x_max":690,"o":"m 690 895 l 684 826 q 586 837 637 837 q 486 823 528 837 q 425 792 445 810 q 393 745 404 774 q 381 697 382 715 q 380 651 380 680 l 380 576 l 618 576 l 618 519 l 380 519 l 380 69 q 368 -16 380 18 q 320 -76 355 -49 q 100 -134 243 -134 q 33 -129 71 -134 l 38 -61 q 130 -69 92 -69 q 225 -56 179 -69 q 292 -19 271 -43 q 312 79 312 5 l 312 519 l 167 519 l 167 576 l 312 576 l 312 658 q 315 715 312 689 q 336 777 319 741 q 382 839 353 814 q 468 882 411 864 q 604 901 525 901 q 690 895 650 901 z "},"ǵ":{"ha":814,"x_min":64,"x_max":750,"o":"m 572 583 l 750 583 l 750 519 l 640 519 l 640 41 q 572 -151 640 -90 q 330 -213 505 -213 l 244 -213 l 244 -149 q 349 -148 313 -149 q 429 -141 384 -146 q 494 -124 473 -136 q 536 -92 515 -113 q 565 -38 557 -71 q 572 41 572 -5 l 572 119 l 570 119 q 491 50 549 87 q 354 14 433 14 q 148 99 232 14 q 64 301 64 184 q 151 506 64 423 q 354 589 237 589 q 401 586 376 589 q 481 557 427 583 q 570 484 536 530 l 572 484 l 572 583 m 572 298 q 509 458 572 396 q 357 521 445 521 q 203 458 270 521 q 137 302 137 396 q 201 146 137 210 q 357 81 266 81 q 511 146 450 81 q 572 298 572 212 m 557 838 l 363 682 l 292 682 l 412 838 l 557 838 z "},"ˆ":{"ha":814,"x_min":232,"x_max":581,"o":"m 351 842 l 456 842 l 581 715 l 537 681 l 400 770 l 277 681 l 232 713 l 351 842 z "},"ˇ":{"ha":814,"x_min":232,"x_max":581,"o":"m 461 690 l 358 690 l 232 818 l 275 850 l 412 762 l 537 852 l 581 818 l 461 690 z "},"˘":{"ha":814,"x_min":187,"x_max":627,"o":"m 187 846 l 250 846 q 252 842 250 846 q 407 750 302 750 q 562 842 509 750 q 564 846 562 846 l 627 846 q 407 692 571 692 q 214 787 281 692 q 187 846 206 799 z "},"˙":{"ha":814,"x_min":358,"x_max":456,"o":"m 358 696 l 358 842 l 456 842 l 456 696 l 358 696 z "},"˚":{"ha":814,"x_min":304,"x_max":510,"o":"m 334 841 q 349 856 334 841 q 407 871 363 871 q 480 841 450 871 q 510 768 510 811 q 480 694 510 724 q 407 665 450 665 q 334 694 363 665 q 304 768 304 724 q 334 841 304 811 m 444 804 q 437 812 444 804 q 408 819 430 819 q 371 805 387 819 q 355 768 355 791 q 371 731 355 746 q 408 716 387 716 q 444 731 430 716 q 458 768 458 746 q 444 804 458 789 z "},"˛":{"ha":814,"x_min":323,"x_max":536,"o":"m 494 -54 l 481 -126 q 479 -129 479 -126 q 401 -159 438 -159 q 345 -136 368 -159 q 323 -80 323 -113 q 408 19 323 -14 l 536 19 l 536 14 q 467 -5 479 0 q 439 -18 448 -14 q 416 -35 430 -22 q 403 -62 403 -49 q 429 -88 403 -88 q 471 -71 444 -88 q 476 -67 473 -69 q 484 -62 479 -65 q 494 -54 488 -58 z "},"˜":{"ha":814,"x_min":190,"x_max":624,"o":"m 570 840 l 624 822 q 621 812 621 819 q 569 728 605 758 q 488 697 533 697 q 392 741 446 697 q 317 780 339 780 q 247 709 274 780 l 244 701 l 190 720 q 317 841 233 841 q 418 795 363 841 q 492 758 467 758 q 570 840 541 758 z "},"˝":{"ha":814,"x_min":244,"x_max":651,"o":"m 480 837 l 304 684 l 244 684 l 377 837 l 480 837 m 651 837 l 475 684 l 415 684 l 548 837 l 651 837 z "},"Γ":{"ha":814,"x_min":79,"x_max":727,"o":"m 79 764 l 722 764 l 727 515 l 665 515 l 651 700 l 260 700 l 260 64 l 377 64 l 377 0 l 79 0 l 79 64 l 193 64 l 193 700 l 79 700 l 79 764 z "},"Θ":{"ha":814,"x_min":58,"x_max":755,"o":"m 222 511 l 286 511 l 286 420 l 528 420 l 528 511 l 591 511 l 591 266 l 528 266 l 528 357 l 286 357 l 286 266 l 222 266 l 222 511 m 154 94 q 106 152 154 94 q 58 381 58 210 q 155 669 58 552 q 407 787 251 787 q 661 669 566 787 q 755 381 755 551 q 661 95 755 213 q 407 -23 566 -23 q 154 94 250 -23 m 207 624 q 168 574 207 624 q 129 382 129 525 q 207 140 129 240 q 407 41 285 41 q 608 141 530 41 q 685 382 685 241 q 608 623 685 522 q 407 723 530 723 q 207 624 285 723 z "},"Σ":{"ha":814,"x_min":117,"x_max":656,"o":"m 117 764 l 650 764 l 650 515 l 586 515 l 574 700 l 197 700 l 441 404 l 189 64 l 586 64 l 594 250 l 656 250 l 656 0 l 117 0 l 117 71 l 358 404 l 117 693 l 117 764 z "},"Φ":{"ha":814,"x_min":58,"x_max":755,"o":"m 555 764 l 555 700 l 439 700 l 439 643 q 592 617 528 642 q 690 553 656 593 q 740 471 724 514 q 755 382 755 429 q 741 294 755 336 q 692 212 726 252 q 593 146 658 171 q 439 121 528 122 l 439 64 l 555 64 l 555 0 l 258 0 l 258 64 l 372 64 l 372 121 q 222 146 286 122 q 124 210 159 171 q 74 292 90 250 q 58 381 58 335 q 134 564 58 487 q 372 643 209 640 l 372 700 l 258 700 l 258 764 l 555 764 m 439 583 l 439 183 q 684 384 684 189 q 439 583 684 578 m 372 183 l 372 583 q 130 384 130 578 q 372 183 130 189 z "},"Ω":{"ha":814,"x_min":39,"x_max":774,"o":"m 43 0 l 43 140 l 107 140 l 107 64 l 279 64 l 279 115 q 146 182 195 138 q 39 435 39 281 q 146 686 39 586 q 407 787 254 787 q 667 686 560 787 q 774 434 774 585 q 667 180 774 278 q 610 140 637 153 q 534 115 582 127 l 534 64 l 707 64 l 707 140 l 770 140 l 770 0 l 471 0 l 471 160 q 703 427 703 213 q 612 642 703 562 q 407 723 521 723 q 202 642 293 723 q 111 427 111 560 q 343 160 111 209 l 343 0 l 43 0 z "},"α":{"ha":814,"x_min":56,"x_max":766,"o":"m 670 64 l 760 64 l 760 0 l 610 0 q 595 87 600 65 q 587 127 594 92 q 579 168 581 163 q 528 100 547 123 q 475 44 510 77 q 399 -5 439 11 q 312 -20 359 -20 q 129 75 202 -20 q 56 298 56 170 q 130 521 56 430 q 317 612 203 612 q 430 585 378 612 q 515 515 481 559 q 570 431 549 472 q 602 350 590 391 q 700 608 666 472 l 766 608 q 764 595 766 601 q 644 278 735 461 q 637 264 643 277 q 629 250 631 252 q 635 229 635 239 q 655 145 650 176 l 667 77 q 670 64 667 72 m 556 260 q 517 386 547 323 q 434 497 488 449 q 317 545 380 545 q 183 475 239 545 q 127 298 127 406 q 183 119 127 191 q 320 46 239 46 q 556 260 434 46 z "},"δ":{"ha":814,"x_min":110,"x_max":704,"o":"m 637 834 l 637 770 l 251 770 l 251 768 l 509 575 q 586 514 560 536 q 644 454 612 492 q 690 374 677 416 q 704 278 704 332 q 617 67 704 155 q 407 -20 530 -20 q 195 68 281 -20 q 110 275 110 156 q 129 382 110 328 q 183 469 148 435 q 295 549 245 530 q 419 567 345 567 l 419 570 l 251 690 q 180 755 214 716 l 180 834 l 637 834 m 407 499 q 243 433 302 499 q 183 274 183 368 q 247 113 183 179 q 404 47 311 47 q 566 115 502 47 q 631 277 631 182 q 568 437 631 374 q 407 499 505 499 z "},"ε":{"ha":814,"x_min":164,"x_max":652,"o":"m 597 620 l 652 620 q 644 486 644 534 q 652 406 644 454 l 587 395 q 580 437 583 422 q 564 477 576 453 q 534 513 552 500 q 481 536 515 526 q 400 545 448 545 q 298 520 334 545 q 263 456 263 495 q 324 366 263 400 q 473 338 369 340 l 473 273 q 351 261 401 274 q 277 227 300 248 q 246 189 255 206 q 237 156 237 171 q 279 80 237 114 q 408 46 320 46 q 586 90 502 46 l 597 95 l 613 27 q 593 19 605 24 q 408 -20 487 -20 q 228 28 292 -20 q 164 149 164 76 q 207 254 164 213 q 311 307 250 296 l 311 309 q 222 366 254 324 q 190 456 190 408 q 247 565 190 519 q 396 610 304 610 q 572 555 511 610 q 578 551 576 551 q 597 620 587 551 z "},"μ":{"ha":814,"x_min":49,"x_max":762,"o":"m 49 583 l 228 583 l 228 264 q 234 170 228 199 q 259 115 240 140 q 399 49 309 49 q 480 66 438 49 q 544 111 522 83 q 582 264 582 163 l 582 526 l 471 526 l 471 583 l 650 583 l 650 56 l 762 56 l 762 0 l 583 0 l 583 72 l 581 72 l 570 56 q 498 1 547 22 q 401 -19 450 -19 q 316 -1 357 -19 q 259 34 275 18 q 227 64 237 56 l 227 -202 l 160 -202 l 160 526 l 49 526 l 49 583 z "},"π":{"ha":814,"x_min":62,"x_max":753,"o":"m 753 583 l 753 519 l 640 519 l 640 64 l 753 64 l 753 0 l 475 0 l 475 64 l 572 64 l 572 519 l 241 519 l 241 64 l 339 64 l 339 0 l 62 0 l 62 64 l 174 64 l 174 519 l 62 519 l 62 583 l 753 583 z "},"σ":{"ha":814,"x_min":94,"x_max":803,"o":"m 803 610 l 803 543 l 556 562 l 553 559 q 720 288 720 472 q 630 73 720 167 q 408 -20 540 -20 q 183 76 273 -20 q 94 297 94 172 q 131 444 94 374 q 229 555 168 513 q 326 594 267 581 q 418 609 385 608 q 510 610 452 610 l 803 610 m 408 543 q 235 469 304 543 q 167 293 167 396 q 237 119 167 191 q 408 47 307 47 q 576 119 505 47 q 647 293 647 190 q 576 471 647 399 q 408 543 506 543 z "},"τ":{"ha":814,"x_min":132,"x_max":623,"o":"m 415 519 l 415 103 q 425 64 415 77 q 463 52 435 52 q 581 92 505 52 l 598 28 l 591 24 q 457 -12 521 -12 q 347 92 347 -12 l 347 519 l 263 519 q 132 507 193 519 l 132 572 q 250 583 183 583 l 623 583 l 623 519 l 415 519 z "},"φ":{"ha":814,"x_min":71,"x_max":743,"o":"m 293 590 l 293 524 q 201 457 232 498 q 144 293 144 382 q 151 240 144 269 q 175 173 157 212 q 235 101 193 134 q 336 53 277 68 l 336 340 q 337 391 336 373 q 342 446 338 410 q 356 506 346 483 q 383 554 366 529 q 429 591 400 579 q 496 604 458 604 q 670 510 597 604 q 743 296 743 416 q 652 71 743 165 q 404 -20 560 -24 l 404 -212 l 336 -212 l 336 -14 q 224 26 273 -3 q 146 87 175 54 q 100 161 118 121 q 77 233 83 201 q 71 294 71 264 q 79 361 71 326 q 107 442 87 397 q 172 526 127 487 q 281 585 217 564 q 288 587 282 586 q 293 590 293 589 m 404 340 l 404 43 q 534 70 479 43 q 617 138 590 96 q 657 220 644 180 q 670 300 670 260 q 618 467 670 393 q 498 540 567 540 q 454 528 472 540 q 426 498 435 515 q 411 452 416 481 q 405 399 406 422 q 404 340 404 377 z "},"،":{"ha":385,"x_min":98,"x_max":289,"o":"m 289 126 q 269 75 289 96 q 216 53 248 53 q 133 90 165 53 q 98 199 98 130 q 134 332 98 266 q 222 434 170 397 l 237 418 q 172 332 194 376 q 149 240 149 288 q 155 203 149 222 q 167 178 160 183 q 217 201 191 201 q 268 178 247 201 q 289 126 289 156 z "},"؛":{"ha":385,"x_min":102,"x_max":293,"o":"m 293 305 q 272 254 293 275 q 220 232 251 232 q 137 270 170 232 q 102 380 102 309 q 137 511 102 445 q 227 613 172 578 l 241 597 q 176 512 198 556 q 153 419 153 468 q 159 382 153 401 q 171 357 164 363 q 221 381 194 381 q 271 358 250 381 q 293 305 293 335 m 274 83 q 254 35 274 54 q 206 15 235 15 q 158 35 178 15 q 138 83 138 54 q 158 131 138 111 q 206 151 178 151 q 254 131 235 151 q 274 83 274 111 z "},"؟":{"ha":833,"x_min":171,"x_max":662,"o":"m 662 604 l 593 604 l 593 693 q 435 727 505 727 q 288 677 332 727 q 243 571 243 628 q 258 505 243 534 q 292 459 273 476 q 346 427 311 442 q 403 405 381 411 q 463 389 425 399 q 490 382 475 388 l 490 247 l 422 247 l 422 331 q 342 356 376 343 q 264 395 308 369 q 195 466 220 422 q 171 567 171 510 q 241 728 171 661 q 437 795 311 795 q 512 789 475 795 q 575 774 549 783 q 662 746 601 766 l 662 604 m 460 148 q 527 123 499 148 q 555 62 555 98 q 527 1 555 26 q 460 -23 499 -23 q 392 1 420 -23 q 363 62 363 26 q 391 123 363 98 q 460 148 419 148 z "},"ء":{"ha":864,"x_min":263,"x_max":586,"o":"m 328 119 q 387 90 351 100 q 473 79 423 79 q 568 95 499 79 q 586 100 575 98 l 544 20 q 496 9 532 18 q 393 -22 441 -4 q 349 -39 363 -33 l 263 -81 q 264 -72 263 -81 q 300 -23 270 -54 q 330 5 316 -7 l 351 24 l 326 38 q 304 52 309 47 q 285 92 285 69 q 340 220 285 149 q 456 292 397 292 q 517 273 486 292 q 530 260 519 270 l 490 194 q 479 197 486 195 q 473 198 475 197 q 407 208 433 208 q 366 187 392 208 l 365 186 l 365 186 l 312 133 l 328 119 z "},"آ":{"ha":864,"x_min":254,"x_max":602,"o":"m 602 1004 q 576 913 601 1000 l 552 825 q 549 868 552 837 q 541 910 545 898 q 420 854 490 869 q 323 845 377 845 l 304 845 l 297 845 q 282 812 293 840 q 271 785 278 803 q 266 787 270 787 q 260 788 262 788 q 254 785 255 788 l 254 967 q 311 943 277 951 q 378 935 343 935 q 487 955 427 935 q 602 1004 544 979 m 499 11 l 460 -16 q 449 104 457 28 q 412 382 438 210 q 369 633 388 541 l 429 743 q 472 532 454 674 q 495 202 488 399 q 499 11 499 92 z "},"أ":{"ha":864,"x_min":319,"x_max":540,"o":"m 510 817 q 472 798 509 817 q 393 753 419 769 q 327 704 346 724 l 327 727 q 340 769 327 739 q 354 798 345 780 q 332 817 339 804 q 319 860 319 834 q 361 970 319 907 q 453 1038 407 1038 q 483 1024 473 1038 q 492 990 492 1010 q 486 955 492 972 q 472 933 479 937 q 461 943 467 940 q 435 952 450 952 q 385 929 416 952 q 354 887 354 906 q 380 868 354 876 q 430 860 407 860 q 491 882 450 860 q 540 910 515 895 l 510 817 m 525 11 l 499 -18 q 490 95 496 33 q 453 358 476 221 q 395 600 427 507 l 454 709 q 498 507 481 642 q 521 191 514 381 q 525 11 525 87 z "},"ؤ":{"ha":864,"x_min":267,"x_max":613,"o":"m 477 530 l 439 511 q 361 467 388 483 q 294 418 313 438 l 294 441 q 308 483 294 453 q 321 513 312 494 q 300 530 307 518 q 286 574 286 548 q 328 684 286 621 q 420 751 374 751 q 450 738 441 751 q 460 704 460 726 q 453 669 460 686 q 439 647 446 651 q 429 656 434 654 q 404 666 418 666 q 353 643 384 666 q 321 601 321 620 q 349 583 321 591 q 399 574 374 574 q 458 597 418 574 q 507 624 483 609 l 477 530 m 576 68 l 423 68 q 410 69 416 68 q 397 73 404 71 q 382 94 388 81 q 374 132 377 113 q 369 172 370 152 q 376 247 369 210 q 396 321 384 285 q 435 392 411 359 q 457 410 446 403 q 484 416 471 415 q 510 410 498 415 q 532 395 521 403 q 574 328 556 365 q 601 248 590 289 q 613 142 612 195 l 613 75 q 595 -65 610 4 q 545 -186 576 -129 q 464 -270 510 -233 q 357 -297 414 -296 q 315 -286 335 -293 q 267 -252 289 -273 q 374 -205 323 -232 q 471 -140 425 -175 q 556 -46 519 -98 q 572 -3 566 -24 q 576 45 576 22 l 576 68 m 407 244 q 399 216 401 231 q 399 202 399 209 q 403 187 400 194 q 411 180 407 183 q 422 179 416 179 l 576 179 q 572 208 575 194 q 556 240 566 225 q 526 273 543 258 q 492 297 510 286 q 467 304 480 302 q 444 297 454 302 q 427 279 434 289 q 407 244 415 263 z "},"إ":{"ha":864,"x_min":323,"x_max":544,"o":"m 514 -334 q 476 -354 513 -334 q 396 -399 423 -382 q 330 -446 350 -427 l 330 -423 q 345 -382 332 -411 q 358 -353 349 -372 q 335 -334 345 -346 q 323 -290 323 -316 q 366 -182 323 -244 q 457 -114 412 -114 q 487 -126 477 -114 q 496 -160 496 -140 q 490 -195 496 -178 q 475 -217 484 -214 q 467 -209 469 -210 q 439 -199 454 -199 q 389 -222 419 -199 q 358 -264 358 -244 q 385 -282 358 -274 q 434 -290 412 -290 q 495 -269 456 -290 q 544 -240 519 -255 l 514 -334 m 472 11 l 433 -16 q 422 104 430 28 q 385 382 411 210 q 342 633 361 541 l 401 743 q 445 532 427 674 q 468 202 461 399 q 472 11 472 92 z "},"ئ":{"ha":864,"x_min":109,"x_max":754,"o":"m 309 461 l 271 441 q 191 396 220 412 q 125 349 145 368 l 125 372 q 140 412 127 384 q 153 442 144 423 q 130 461 140 449 q 118 505 118 479 q 161 613 118 552 q 252 681 208 681 q 282 669 273 681 q 292 635 292 655 q 285 598 292 617 q 270 578 279 581 q 262 586 264 585 q 236 597 248 597 q 184 574 214 597 q 153 530 153 551 q 180 513 153 521 q 231 505 208 505 q 290 526 251 505 l 339 553 l 309 461 m 494 239 q 604 203 515 227 q 692 144 692 180 l 692 81 q 627 -48 692 3 q 475 -121 563 -99 q 317 -142 388 -142 q 154 -98 199 -142 q 110 49 109 -53 q 137 198 111 113 l 157 194 q 191 3 140 41 q 327 -34 243 -34 q 529 -9 411 -34 q 648 46 598 4 l 663 65 l 647 83 q 554 110 643 87 q 449 152 465 133 q 448 181 449 152 q 463 264 448 210 q 587 505 502 408 q 685 570 646 570 q 739 557 724 570 q 742 431 766 536 q 736 410 741 422 q 675 454 718 454 q 589 418 632 454 q 484 262 511 351 l 479 247 l 494 239 z "},"ا":{"ha":864,"x_min":368,"x_max":498,"o":"m 498 11 l 458 -16 q 448 104 456 28 q 411 382 437 210 q 368 633 387 541 l 427 743 q 471 532 453 674 q 494 202 487 399 q 498 11 498 92 z "},"ب":{"ha":864,"x_min":46,"x_max":818,"o":"m 498 -149 l 420 -225 l 336 -142 l 414 -65 l 498 -149 m 210 20 q 94 54 134 20 q 46 176 46 95 q 75 297 46 228 q 110 363 91 336 q 77 254 77 297 q 111 170 77 199 q 239 133 152 133 l 774 133 l 774 153 q 749 240 774 195 l 749 241 l 747 241 l 715 288 l 749 389 q 787 304 769 354 q 818 132 818 214 l 818 20 l 210 20 z "},"ة":{"ha":864,"x_min":255,"x_max":681,"o":"m 431 712 l 354 635 l 271 719 l 349 796 l 431 712 m 681 715 l 604 637 l 519 720 l 597 799 l 681 715 m 479 568 q 595 197 595 335 q 560 18 595 60 q 435 -23 525 -23 q 256 92 256 -23 q 359 332 256 197 q 435 418 395 377 l 454 437 l 401 490 l 479 568 m 445 111 q 555 198 574 106 q 454 313 529 326 q 330 179 380 301 q 445 111 320 118 z "},"ت":{"ha":864,"x_min":46,"x_max":818,"o":"m 387 414 l 309 336 l 227 420 l 304 498 l 387 414 m 636 416 l 559 339 l 475 422 l 552 500 l 636 416 m 210 20 q 94 54 134 20 q 46 176 46 95 q 75 297 46 228 q 110 363 91 336 q 77 254 77 297 q 111 170 77 199 q 239 133 152 133 l 774 133 l 774 153 q 749 240 774 195 l 749 241 l 747 241 l 715 288 l 749 389 q 787 304 769 354 q 818 132 818 214 l 818 20 l 210 20 z "},"ث":{"ha":864,"x_min":46,"x_max":818,"o":"m 388 416 l 311 339 l 228 423 l 305 500 l 388 416 m 637 419 l 560 342 l 476 425 l 553 503 l 637 419 m 507 575 l 431 498 l 347 582 l 425 659 l 507 575 m 210 20 q 94 54 134 20 q 46 176 46 95 q 75 297 46 228 q 110 363 91 336 q 77 254 77 297 q 111 170 77 199 q 239 133 152 133 l 774 133 l 774 153 q 749 240 774 195 l 749 241 l 747 241 l 715 288 l 749 389 q 787 304 769 354 q 818 132 818 214 l 818 20 l 210 20 z "},"ج":{"ha":864,"x_min":140,"x_max":692,"o":"m 499 -141 l 422 -217 l 339 -134 l 416 -57 l 499 -141 m 408 199 q 328 262 369 236 q 236 296 275 296 q 184 279 212 296 q 176 273 180 275 q 189 312 183 296 q 273 403 222 403 q 366 353 312 403 l 475 251 q 609 190 540 190 l 690 190 l 636 84 l 458 84 q 262 21 346 84 q 179 -126 179 -42 q 285 -286 179 -213 q 534 -359 391 -359 l 690 -359 q 591 -438 636 -406 q 521 -471 545 -471 q 255 -399 359 -471 q 140 -176 140 -319 q 181 -20 140 -103 q 285 110 222 64 q 324 132 297 119 q 401 165 359 148 l 433 178 l 408 199 z "},"ح":{"ha":864,"x_min":140,"x_max":692,"o":"m 408 199 q 328 262 369 236 q 236 296 275 296 q 184 279 212 296 q 176 273 180 275 q 189 312 183 296 q 273 403 222 403 q 366 353 312 403 l 475 251 q 609 190 540 190 l 690 190 l 636 84 l 458 84 q 262 21 346 84 q 179 -126 179 -42 q 285 -286 179 -213 q 534 -359 391 -359 l 690 -359 q 591 -438 636 -406 q 521 -471 545 -471 q 255 -399 359 -471 q 140 -176 140 -319 q 181 -20 140 -103 q 285 110 222 64 q 324 132 297 119 q 401 165 359 148 l 433 178 l 408 199 z "},"خ":{"ha":864,"x_min":140,"x_max":692,"o":"m 357 621 l 279 544 l 197 627 l 274 704 l 357 621 m 408 199 q 328 262 369 236 q 236 296 275 296 q 184 279 212 296 q 176 273 180 275 q 189 312 183 296 q 273 403 222 403 q 366 353 312 403 l 475 251 q 609 190 540 190 l 690 190 l 636 84 l 458 84 q 262 21 346 84 q 179 -126 179 -42 q 285 -286 179 -213 q 534 -359 391 -359 l 690 -359 q 591 -438 636 -406 q 521 -471 545 -471 q 255 -399 359 -471 q 140 -176 140 -319 q 181 -20 140 -103 q 285 110 222 64 q 324 132 297 119 q 401 165 359 148 l 433 178 l 408 199 z "},"د":{"ha":864,"x_min":248,"x_max":616,"o":"m 614 104 q 613 68 614 85 q 606 42 610 54 q 594 26 601 33 q 583 22 589 23 q 572 20 578 20 l 289 20 q 279 22 285 20 q 273 27 275 23 q 259 46 264 35 q 252 79 255 61 q 250 117 250 98 q 250 125 250 121 q 250 144 250 134 q 252 156 251 151 l 259 183 l 260 180 q 279 160 270 170 q 302 145 290 152 q 324 136 313 140 q 349 133 336 133 l 519 133 q 525 134 522 133 q 530 134 528 134 q 538 137 534 136 q 547 142 543 140 q 557 152 552 148 q 567 167 563 159 q 570 198 571 182 q 557 236 566 217 q 515 298 538 270 q 458 354 487 327 q 420 395 438 374 l 433 525 q 463 499 448 511 q 488 473 476 486 q 522 434 506 454 q 551 395 537 415 q 579 336 567 366 q 600 262 591 300 q 610 186 606 224 q 614 117 614 151 q 614 104 614 110 z "},"ذ":{"ha":864,"x_min":248,"x_max":616,"o":"m 449 736 l 372 659 l 288 742 l 366 819 l 449 736 m 614 104 q 613 68 614 85 q 606 42 610 54 q 594 26 601 33 q 583 22 589 23 q 572 20 578 20 l 289 20 q 279 22 285 20 q 273 27 275 23 q 259 46 264 35 q 252 79 255 61 q 250 117 250 98 q 250 125 250 121 q 250 144 250 134 q 252 156 251 151 l 259 183 l 260 180 q 279 160 270 170 q 302 145 290 152 q 324 136 313 140 q 349 133 336 133 l 519 133 q 525 134 522 133 q 530 134 528 134 q 538 137 534 136 q 547 142 543 140 q 557 152 552 148 q 567 167 563 159 q 570 198 571 182 q 557 236 566 217 q 515 298 538 270 q 458 354 487 327 q 420 395 438 374 l 433 525 q 463 499 448 511 q 488 473 476 486 q 522 434 506 454 q 551 395 537 415 q 579 336 567 366 q 600 262 591 300 q 610 186 606 224 q 614 117 614 151 q 614 104 614 110 z "},"ر":{"ha":864,"x_min":254,"x_max":629,"o":"m 353 -317 q 327 -313 340 -316 q 300 -301 313 -308 q 274 -285 286 -293 q 254 -270 264 -277 q 374 -212 316 -245 q 464 -142 420 -179 q 572 -16 525 -85 q 591 58 587 20 q 591 68 591 64 q 583 106 589 87 q 557 160 574 134 q 524 208 541 184 q 505 232 514 220 l 551 369 l 553 365 q 581 309 568 338 q 602 252 591 282 q 621 170 614 212 q 628 85 627 127 q 620 0 627 42 q 595 -88 610 -45 q 553 -176 578 -133 q 499 -248 529 -214 q 430 -300 468 -278 q 358 -317 395 -315 q 353 -317 355 -317 z "},"ز":{"ha":864,"x_min":254,"x_max":629,"o":"m 506 559 l 442 495 l 368 571 l 431 633 l 506 559 m 353 -317 q 327 -313 340 -316 q 300 -301 313 -308 q 274 -285 286 -293 q 254 -270 264 -277 q 374 -212 316 -245 q 464 -142 420 -179 q 572 -16 525 -85 q 591 58 587 20 q 591 68 591 64 q 583 106 589 87 q 557 160 574 134 q 524 208 541 184 q 505 232 514 220 l 551 369 l 553 365 q 581 309 568 338 q 602 252 591 282 q 621 170 614 212 q 628 85 627 127 q 620 0 627 42 q 595 -88 610 -45 q 553 -176 578 -133 q 499 -248 529 -214 q 430 -300 468 -278 q 358 -317 395 -315 q 353 -317 355 -317 z "},"س":{"ha":864,"x_min":34,"x_max":842,"o":"m 502 152 q 556 165 530 153 q 602 205 582 182 q 623 237 613 220 q 640 277 632 256 q 658 236 648 255 q 678 203 667 220 q 719 168 697 183 q 761 156 739 159 q 768 156 764 156 q 774 157 770 156 q 803 172 791 161 q 811 186 808 179 q 812 202 812 194 l 812 203 q 812 208 812 206 q 811 212 812 210 q 811 214 811 213 q 811 214 811 214 q 802 236 807 225 q 784 262 793 250 q 776 273 780 267 q 766 282 772 278 l 803 370 q 817 338 811 354 q 826 308 822 323 q 838 248 833 278 q 841 178 841 213 q 836 121 840 149 q 822 85 830 102 q 795 57 810 71 q 784 50 789 53 q 770 49 777 49 l 760 49 q 739 52 749 49 q 718 58 728 54 q 682 80 699 68 q 655 115 667 96 l 636 148 l 618 113 q 605 91 613 102 q 582 69 594 80 q 551 49 567 57 q 506 37 529 39 q 448 42 476 35 l 448 -7 q 442 -65 448 -37 q 422 -121 434 -94 q 385 -182 406 -153 q 331 -231 361 -209 q 285 -258 309 -245 q 248 -269 267 -264 q 203 -274 227 -273 q 202 -274 203 -274 q 198 -274 201 -274 q 133 -259 164 -271 q 77 -214 102 -241 q 45 -148 57 -183 q 34 -54 34 -102 q 41 4 37 -24 q 64 76 50 41 l 73 66 q 60 -7 61 31 q 73 -61 64 -35 q 122 -125 94 -96 q 171 -152 145 -141 q 233 -161 201 -160 q 234 -161 233 -161 q 235 -161 235 -161 q 264 -159 250 -161 q 300 -149 282 -155 q 343 -129 321 -140 q 376 -107 361 -119 q 400 -76 389 -92 q 420 -38 411 -57 l 422 -34 l 422 -30 q 415 26 422 -1 q 377 92 400 61 q 361 115 369 104 q 338 142 350 129 l 384 254 q 399 229 391 241 q 418 206 408 217 q 463 165 438 183 q 502 152 481 156 z "},"ش":{"ha":864,"x_min":34,"x_max":842,"o":"m 583 480 l 506 403 l 423 487 l 500 564 l 583 480 m 833 483 l 755 406 l 671 488 l 749 567 l 833 483 m 703 639 l 627 562 l 543 646 l 620 723 l 703 639 m 502 152 q 556 165 530 153 q 602 205 582 182 q 623 237 613 220 q 640 277 632 256 q 658 236 648 255 q 678 203 667 220 q 719 168 697 183 q 761 156 739 159 q 768 156 764 156 q 774 157 770 156 q 803 172 791 161 q 811 186 808 179 q 812 202 812 194 l 812 203 q 812 208 812 206 q 811 212 812 210 q 811 214 811 213 q 811 214 811 214 q 802 236 807 225 q 784 262 793 250 q 776 273 780 267 q 766 282 772 278 l 803 370 q 817 338 811 354 q 826 308 822 323 q 838 248 833 278 q 841 178 841 213 q 836 121 840 149 q 822 85 830 102 q 795 57 810 71 q 784 50 789 53 q 770 49 777 49 l 760 49 q 739 52 749 49 q 718 58 728 54 q 682 80 699 68 q 655 115 667 96 l 636 148 l 618 113 q 605 91 613 102 q 582 69 594 80 q 551 49 567 57 q 506 37 529 39 q 448 42 476 35 l 448 -7 q 442 -65 448 -37 q 422 -121 434 -94 q 385 -182 406 -153 q 331 -231 361 -209 q 285 -258 309 -245 q 248 -269 267 -264 q 203 -274 227 -273 q 202 -274 203 -274 q 198 -274 201 -274 q 133 -259 164 -271 q 77 -214 102 -241 q 45 -148 57 -183 q 34 -54 34 -102 q 41 4 37 -24 q 64 76 50 41 l 73 66 q 60 -7 61 31 q 73 -61 64 -35 q 122 -125 94 -98 q 171 -152 145 -141 q 233 -161 201 -160 q 234 -161 233 -161 q 235 -161 235 -161 q 264 -159 250 -161 q 300 -149 282 -155 q 343 -129 321 -140 q 376 -107 361 -119 q 400 -76 389 -92 q 420 -38 411 -57 l 422 -34 l 422 -30 q 415 26 422 -1 q 377 92 400 61 q 361 115 369 104 q 338 142 350 129 l 384 254 q 399 229 391 241 q 418 206 408 217 q 463 165 438 183 q 502 152 481 156 z "},"ص":{"ha":864,"x_min":37,"x_max":841,"o":"m 450 -20 q 441 -95 449 -58 q 387 -194 420 -148 q 335 -241 362 -220 q 293 -267 316 -256 q 244 -282 270 -277 q 197 -286 221 -286 q 189 -286 197 -286 q 132 -273 159 -283 q 83 -231 104 -255 q 47 -163 61 -198 q 37 -81 38 -122 q 37 -68 37 -81 q 45 -8 39 -38 q 60 52 50 22 l 75 52 q 69 -11 71 20 q 69 -24 69 -11 q 76 -75 69 -50 q 125 -138 94 -111 q 172 -165 148 -155 q 229 -174 201 -172 q 236 -174 232 -174 q 315 -157 277 -170 q 391 -109 355 -138 q 411 -84 401 -98 q 430 -49 422 -68 l 430 -45 q 427 -16 430 -30 q 418 11 423 -1 q 380 80 400 47 q 362 104 370 92 q 340 129 362 104 l 387 241 q 401 218 393 229 q 429 180 414 199 q 461 152 444 164 q 479 144 469 146 q 498 140 488 141 q 510 144 503 141 q 517 151 514 146 q 530 175 517 151 q 570 254 549 214 q 616 330 591 293 q 647 369 631 350 q 681 400 662 385 q 708 412 693 407 q 724 415 708 412 q 739 412 732 414 q 761 404 750 410 q 789 382 776 395 q 819 340 807 363 q 836 286 830 315 q 841 212 841 250 q 841 201 841 212 q 833 83 838 141 q 830 54 831 69 q 826 33 829 43 q 822 26 825 30 q 817 22 819 24 q 812 20 815 22 q 798 20 804 20 l 450 20 l 450 -20 m 777 129 q 784 130 781 129 q 791 132 788 130 q 804 142 791 132 q 815 157 811 149 q 819 178 819 168 q 811 222 818 201 q 785 264 800 244 q 750 296 769 282 q 713 308 732 304 q 663 302 688 309 q 629 275 644 292 q 608 244 618 260 q 587 213 597 229 l 538 129 l 777 129 z "},"ض":{"ha":864,"x_min":37,"x_max":841,"o":"m 450 -20 q 441 -95 449 -58 q 387 -194 420 -148 q 335 -241 362 -220 q 293 -267 316 -256 q 244 -282 270 -277 q 197 -286 221 -286 q 189 -286 197 -286 q 132 -273 159 -283 q 83 -231 104 -255 q 47 -163 61 -198 q 37 -81 38 -122 q 37 -68 37 -81 q 45 -8 39 -38 q 60 52 50 22 l 75 52 q 69 -11 71 20 q 69 -24 69 -11 q 76 -75 69 -50 q 125 -138 94 -111 q 172 -165 148 -155 q 229 -174 201 -172 q 236 -174 232 -174 q 315 -157 277 -170 q 391 -109 355 -138 q 411 -84 401 -98 q 430 -49 422 -68 l 430 -45 q 427 -16 430 -30 q 418 11 423 -1 q 380 80 400 47 q 362 104 370 92 q 340 129 362 104 l 387 241 q 401 218 393 229 q 429 180 414 199 q 461 152 444 164 q 479 144 469 146 q 498 140 488 141 q 510 144 503 141 q 517 151 514 146 q 530 175 517 151 q 570 254 549 214 q 616 330 591 293 q 647 369 631 350 q 681 400 662 385 q 708 412 693 407 q 724 415 708 412 q 739 412 732 414 q 761 404 750 410 q 789 382 776 395 q 819 340 807 363 q 836 286 830 315 q 841 212 841 250 q 841 201 841 212 q 833 83 838 141 q 830 54 831 69 q 826 33 829 43 q 822 26 825 30 q 817 22 819 24 q 812 20 815 22 q 798 20 804 20 l 450 20 l 450 -20 m 777 129 q 784 130 781 129 q 791 132 788 130 q 804 142 791 132 q 815 157 811 149 q 819 178 819 168 q 811 222 818 201 q 785 264 800 244 q 750 296 769 282 q 713 308 732 304 q 663 302 688 309 q 629 275 644 292 q 608 244 618 260 q 587 213 597 229 l 538 129 l 777 129 m 540 439 l 476 377 l 401 453 l 465 515 l 540 439 z "},"ط":{"ha":864,"x_min":107,"x_max":773,"o":"m 659 133 q 686 134 673 133 q 707 138 696 136 q 720 149 715 144 q 731 168 727 159 q 735 202 735 184 q 720 237 730 221 q 699 262 711 251 q 670 282 685 273 q 629 300 651 292 q 586 308 608 307 q 547 301 566 307 q 502 282 524 293 q 438 236 468 262 q 385 179 411 208 l 340 133 l 659 133 m 772 237 q 773 210 773 224 q 764 130 772 170 q 750 83 758 106 q 723 37 739 58 q 704 23 713 28 q 681 20 693 20 l 209 20 q 190 23 199 20 q 174 31 182 26 q 144 62 156 45 q 121 104 130 83 q 109 149 113 126 l 107 152 q 145 138 126 145 q 178 133 161 134 l 239 133 q 271 134 255 133 q 293 141 283 137 q 320 165 308 152 q 339 190 330 176 l 347 205 l 345 228 q 331 336 338 282 q 311 476 320 407 q 286 594 301 529 q 263 670 273 640 l 316 799 q 330 742 323 770 q 343 673 338 707 q 358 567 351 620 q 368 461 363 514 q 373 385 370 423 q 380 301 376 343 l 385 244 l 448 312 q 499 361 472 338 q 526 384 513 373 q 574 415 549 401 q 613 425 593 422 q 616 425 614 425 q 663 412 640 422 q 711 374 689 396 q 753 313 735 346 q 772 237 766 277 z "},"ظ":{"ha":864,"x_min":107,"x_max":773,"o":"m 669 631 l 591 553 l 509 637 l 586 715 l 669 631 m 659 133 q 686 134 673 133 q 707 138 696 136 q 720 149 715 144 q 731 168 727 159 q 735 202 735 184 q 720 237 730 221 q 699 262 711 251 q 670 282 685 273 q 629 300 651 292 q 586 308 608 307 q 547 301 566 307 q 502 282 524 293 q 438 236 468 262 q 385 179 411 208 l 340 133 l 659 133 m 772 237 q 773 210 773 224 q 764 130 772 170 q 750 83 758 106 q 723 37 739 58 q 704 23 713 28 q 681 20 693 20 l 209 20 q 190 23 199 20 q 174 31 182 26 q 144 62 156 45 q 121 104 130 83 q 109 149 113 126 l 107 152 q 145 138 126 145 q 178 133 161 134 l 239 133 q 271 134 255 133 q 293 141 283 137 q 320 165 308 152 q 339 190 330 176 l 347 205 l 345 228 q 331 336 338 282 q 311 476 320 407 q 286 594 301 529 q 263 670 273 640 l 316 799 q 330 742 323 770 q 343 673 338 707 q 358 567 351 620 q 368 461 363 514 q 373 385 370 423 q 380 301 376 343 l 385 244 l 448 312 q 499 361 472 338 q 526 384 513 373 q 574 415 549 401 q 613 425 593 422 q 616 425 614 425 q 663 412 640 422 q 711 374 689 396 q 753 313 735 346 q 772 237 766 277 z "},"ع":{"ha":864,"x_min":140,"x_max":689,"o":"m 688 -359 q 581 -442 636 -403 q 519 -469 552 -458 q 481 -473 500 -473 q 463 -473 472 -473 q 407 -458 434 -468 q 346 -431 376 -446 q 264 -385 304 -411 q 199 -323 229 -358 q 156 -245 174 -286 q 141 -159 144 -203 q 148 -90 142 -123 q 171 -18 157 -53 q 203 50 186 18 q 244 107 222 80 l 256 123 l 240 137 q 205 168 222 152 q 175 202 190 184 q 155 237 163 218 q 148 279 149 256 q 161 346 151 313 q 202 412 179 381 q 254 461 225 439 q 301 477 277 473 q 309 477 305 477 q 340 473 326 477 q 377 456 359 467 q 445 391 415 427 q 396 401 420 397 q 351 406 374 404 q 349 406 350 406 q 304 399 326 404 q 264 377 283 389 q 228 346 245 362 q 206 320 217 334 q 189 296 197 308 q 201 271 193 282 q 228 247 213 258 q 260 222 243 233 q 296 205 277 213 q 335 195 316 199 q 368 193 351 193 q 399 201 382 195 l 572 266 l 543 159 l 511 148 q 407 109 458 130 q 328 73 366 92 q 271 31 298 54 q 224 -23 245 7 q 194 -83 206 -52 q 183 -136 184 -109 q 210 -214 190 -180 q 292 -288 247 -256 q 407 -342 347 -319 q 533 -359 469 -357 l 688 -359 z "},"غ":{"ha":864,"x_min":140,"x_max":689,"o":"m 328 677 l 251 601 l 167 684 l 244 761 l 328 677 m 688 -359 q 581 -442 636 -403 q 519 -469 552 -458 q 481 -473 500 -473 q 463 -473 472 -473 q 407 -458 434 -468 q 346 -431 376 -446 q 264 -385 304 -411 q 199 -323 229 -358 q 156 -245 174 -286 q 141 -159 144 -203 q 148 -90 142 -123 q 171 -18 157 -53 q 203 50 186 18 q 244 107 222 80 l 256 123 l 240 137 q 205 168 222 152 q 175 202 190 184 q 155 237 163 218 q 148 279 149 256 q 161 346 151 313 q 202 412 179 381 q 254 461 225 439 q 301 477 277 473 q 309 477 305 477 q 340 473 326 477 q 377 456 359 467 q 445 391 415 427 q 396 401 420 397 q 351 406 374 404 q 349 406 350 406 q 304 399 326 404 q 264 377 283 389 q 228 346 245 362 q 206 320 217 334 q 189 296 197 308 q 201 271 193 282 q 228 247 213 258 q 260 222 243 233 q 296 205 277 213 q 335 195 316 199 q 368 193 351 193 q 399 201 382 195 l 572 266 l 543 159 l 511 148 q 407 109 458 130 q 328 73 366 92 q 271 31 298 54 q 224 -23 245 7 q 194 -83 206 -52 q 183 -136 184 -109 q 210 -214 190 -180 q 292 -288 247 -256 q 407 -342 347 -319 q 533 -359 469 -357 l 688 -359 z "},"ـ":{"ha":864,"x_min":-15,"x_max":876,"o":"m 876 22 l -15 20 l -15 133 l 876 133 l 876 22 z "},"ف":{"ha":864,"x_min":33,"x_max":838,"o":"m 491 20 l 187 20 q 71 55 110 20 q 33 171 33 90 q 57 270 33 216 q 95 349 81 324 q 106 165 45 225 q 227 133 138 133 l 235 133 l 491 133 l 690 133 l 571 183 q 507 232 515 208 q 506 235 506 235 l 524 359 l 526 376 q 571 541 543 477 q 644 612 605 612 q 765 494 703 612 q 838 182 838 357 l 838 66 q 827 31 838 41 q 773 20 815 20 l 491 20 m 553 331 l 559 326 l 788 231 q 696 416 762 355 q 623 453 659 450 q 553 331 568 456 m 507 746 l 430 669 l 346 751 l 423 829 l 507 746 z "},"ق":{"ha":864,"x_min":133,"x_max":731,"o":"m 407 609 l 330 532 l 247 616 l 324 693 l 407 609 m 656 612 l 579 534 l 495 617 l 572 696 l 656 612 m 343 -262 q 134 -49 130 -262 q 157 102 136 41 q 171 102 167 102 q 164 30 164 58 q 228 -115 164 -72 q 380 -148 278 -148 q 467 -136 423 -145 q 557 -111 510 -127 q 640 -64 604 -94 q 690 4 675 -34 q 665 64 700 45 q 584 74 652 73 q 467 72 515 75 q 427 80 438 72 q 411 104 416 88 q 395 208 395 149 q 408 317 395 266 q 452 403 422 368 q 524 437 483 438 q 696 231 628 437 q 723 119 712 184 q 730 -7 734 54 q 662 -136 726 -80 q 499 -228 593 -194 q 343 -262 406 -262 m 450 183 l 486 183 l 655 183 q 611 275 642 232 q 540 319 581 317 q 472 285 496 320 q 438 198 448 250 q 450 183 435 183 z "},"ك":{"ha":864,"x_min":85,"x_max":780,"o":"m 454 389 q 435 387 446 389 q 419 385 425 385 q 373 401 391 385 q 355 441 355 418 q 359 471 355 458 q 377 511 362 484 q 434 576 397 547 q 510 613 476 613 l 491 530 q 442 517 458 522 q 396 479 396 498 q 411 463 396 468 q 427 461 419 461 q 447 462 433 461 q 469 463 461 463 q 503 458 491 463 q 514 438 514 453 q 495 354 514 391 q 414 300 468 300 l 315 300 q 380 332 368 326 q 454 389 437 363 m 736 156 q 692 434 722 283 q 629 677 658 600 l 693 792 q 724 661 708 749 q 764 389 749 538 q 780 144 780 239 l 780 20 l 201 20 q 123 46 153 20 q 85 152 85 76 q 104 275 85 218 q 127 334 114 307 q 113 250 113 288 q 144 167 113 199 q 245 133 179 133 l 739 133 l 736 156 z "},"ل":{"ha":864,"x_min":170,"x_max":694,"o":"m 190 18 q 389 -161 190 -161 q 543 -126 463 -161 q 667 -45 623 -91 l 667 -37 q 643 187 667 28 q 553 631 606 419 l 608 749 q 673 385 651 613 q 694 49 694 157 l 694 -42 q 587 -202 694 -132 q 342 -273 480 -273 q 217 -226 264 -273 q 170 -84 170 -179 q 194 64 170 -15 q 190 18 190 39 z "},"م":{"ha":864,"x_min":241,"x_max":617,"o":"m 302 60 l 326 -50 q 351 -186 343 -134 q 363 -320 363 -264 q 346 -380 363 -342 q 320 -209 342 -296 q 267 -42 313 -183 q 241 75 241 39 q 269 157 241 115 q 343 227 298 205 q 396 245 372 240 q 418 250 403 247 q 442 255 434 254 l 481 264 l 452 290 q 423 313 433 307 q 384 327 401 327 q 304 304 346 327 l 301 302 l 309 328 q 349 418 328 387 q 401 458 377 458 q 465 420 426 458 l 545 336 q 616 286 585 300 l 568 157 q 475 149 534 156 q 382 127 415 141 q 327 101 340 111 q 308 81 313 91 q 302 64 304 72 l 302 61 l 302 60 z "},"ن":{"ha":864,"x_min":137,"x_max":727,"o":"m 503 416 l 426 339 l 343 423 l 419 500 l 503 416 m 704 106 q 666 191 690 144 q 635 258 633 250 l 663 353 q 705 252 690 297 q 727 127 727 183 l 727 68 q 659 -38 727 11 q 500 -110 600 -81 q 351 -133 418 -133 q 184 -79 239 -133 q 137 45 137 -33 q 165 221 137 133 q 160 157 160 183 q 231 12 160 56 q 380 -20 283 -20 q 583 12 484 -20 q 703 77 677 42 l 709 87 l 704 106 z "},"ه":{"ha":864,"x_min":255,"x_max":595,"o":"m 479 568 q 595 197 595 335 q 560 18 595 60 q 435 -23 525 -23 q 256 92 256 -23 q 359 332 256 197 q 435 418 395 377 l 454 437 l 401 490 l 479 568 m 445 111 q 555 198 574 106 q 454 313 529 326 q 330 179 380 301 q 445 111 320 118 z "},"و":{"ha":864,"x_min":267,"x_max":613,"o":"m 576 68 l 423 68 q 410 69 416 68 q 397 73 404 71 q 382 94 388 81 q 374 132 377 113 q 369 172 370 152 q 376 247 369 210 q 396 321 384 285 q 435 392 411 359 q 457 410 446 403 q 484 416 471 415 q 510 410 498 415 q 532 395 521 403 q 574 328 556 365 q 601 248 590 289 q 613 142 612 195 l 613 75 q 595 -65 610 4 q 545 -186 576 -129 q 464 -270 510 -233 q 357 -297 414 -296 q 315 -286 335 -293 q 267 -252 289 -273 q 374 -205 323 -232 q 471 -140 425 -175 q 556 -46 519 -98 q 572 -3 566 -24 q 576 45 576 22 l 576 68 m 407 244 q 399 216 401 231 q 399 202 399 209 q 403 187 400 194 q 411 180 407 183 q 422 179 416 179 l 576 179 q 572 208 575 194 q 556 240 566 225 q 526 273 543 258 q 492 297 510 286 q 467 304 480 302 q 444 297 454 302 q 427 279 434 289 q 407 244 415 263 z "},"ى":{"ha":864,"x_min":109,"x_max":754,"o":"m 494 239 q 604 203 515 227 q 692 144 692 180 l 692 81 q 627 -48 692 3 q 475 -121 563 -99 q 317 -142 388 -142 q 154 -98 199 -142 q 110 49 109 -53 q 137 198 111 113 l 157 194 q 191 3 140 41 q 327 -34 243 -34 q 529 -9 411 -34 q 648 46 598 4 l 663 65 l 647 83 q 554 110 643 87 q 449 152 465 133 q 448 181 449 152 q 463 264 448 210 q 587 505 502 408 q 685 570 646 570 q 739 557 724 570 q 742 431 766 536 q 736 410 741 422 q 675 454 718 454 q 589 418 632 454 q 484 262 511 351 l 479 247 l 494 239 z "},"ي":{"ha":864,"x_min":109,"x_max":754,"o":"m 339 -339 l 262 -416 l 179 -332 l 256 -255 l 339 -339 m 589 -336 l 511 -414 l 427 -331 l 505 -252 l 589 -336 m 494 239 q 604 203 515 227 q 692 144 692 180 l 692 81 q 627 -48 692 3 q 475 -121 563 -99 q 317 -142 388 -142 q 154 -98 199 -142 q 110 49 109 -53 q 137 198 111 113 l 157 194 q 191 3 140 41 q 327 -34 243 -34 q 529 -9 411 -34 q 648 46 598 4 l 663 65 l 647 83 q 554 110 643 87 q 449 152 465 133 q 448 181 449 152 q 463 264 448 210 q 587 505 502 408 q 685 570 646 570 q 739 557 724 570 q 742 431 766 536 q 736 410 741 422 q 675 454 718 454 q 589 418 632 454 q 484 262 511 351 l 479 247 l 494 239 z "},"ً":{"ha":0,"x_min":-23,"x_max":327,"o":"m 327 1309 q 298 1252 307 1265 q 247 1211 278 1225 l -18 1095 q 12 1153 -1 1135 q 62 1196 31 1181 l 327 1309 m 320 1160 q 290 1104 304 1120 q 239 1062 271 1076 l -23 944 q 5 1002 -8 983 q 57 1046 26 1031 l 320 1160 z "},"ٌ":{"ha":0,"x_min":-46,"x_max":312,"o":"m 312 1036 q 308 1008 312 1019 q 293 997 304 997 q 280 1002 289 997 q 262 1015 271 1006 l 244 1029 l 228 1042 q 169 989 198 1013 q 114 948 140 964 q 66 923 88 932 q 27 914 43 914 q 15 917 19 914 q 11 923 11 920 q 16 937 11 926 q 28 962 22 948 q 41 994 35 977 q 46 1024 46 1010 q 45 1040 46 1031 q 39 1057 43 1050 q 28 1069 35 1065 q 9 1073 20 1073 q -13 1064 -5 1073 q -25 1044 -20 1055 q -31 1023 -30 1032 q -35 1013 -33 1013 q -43 1017 -41 1013 q -46 1029 -46 1021 q -43 1066 -46 1044 q -33 1108 -39 1088 q -13 1143 -26 1128 q 19 1158 0 1158 q 64 1143 49 1158 q 85 1096 79 1128 q 87 1046 88 1077 q 85 991 87 1015 q 141 1023 114 1001 q 190 1067 168 1044 q 170 1082 180 1076 q 151 1097 160 1088 q 136 1118 141 1105 q 130 1149 130 1130 q 138 1196 130 1172 q 161 1238 146 1219 q 197 1270 176 1257 q 241 1282 217 1282 q 268 1274 256 1282 q 288 1257 279 1267 q 300 1233 296 1246 q 304 1207 304 1219 q 301 1184 304 1196 q 294 1160 298 1172 q 283 1135 289 1147 q 274 1112 278 1122 q 302 1080 292 1096 q 312 1036 312 1063 m 233 1142 q 241 1168 240 1154 q 237 1192 241 1181 q 222 1211 232 1203 q 199 1218 213 1218 q 187 1213 193 1218 q 182 1199 182 1207 q 193 1174 182 1187 q 233 1142 205 1161 z "},"ٍ":{"ha":0,"x_min":-24,"x_max":326,"o":"m 326 -351 q 296 -410 305 -395 q 245 -450 277 -435 l -20 -566 q 19 -496 3 -515 q 61 -467 35 -476 l 326 -351 m 319 -502 q 290 -557 302 -540 q 239 -600 270 -586 l -24 -716 q 4 -659 -9 -678 q 56 -616 24 -629 l 319 -502 z "},"َ":{"ha":0,"x_min":12,"x_max":355,"o":"m 355 1169 q 317 1101 334 1120 q 275 1072 300 1082 l 12 956 q 39 1013 28 996 q 92 1057 61 1043 l 355 1169 z "},"ُ":{"ha":0,"x_min":-46,"x_max":263,"o":"m 263 1085 q 261 1069 263 1080 q 255 1047 259 1059 q 252 1019 254 1031 q 248 1006 251 1006 q 214 1020 233 1006 q 176 1051 195 1034 q 86 954 127 986 q 14 922 45 922 q -17 927 0 922 q -46 937 -34 932 q 1 964 -24 948 q 50 999 26 981 q 97 1037 75 1017 q 134 1080 119 1057 q 97 1114 110 1096 q 84 1156 84 1131 q 93 1202 84 1176 q 116 1252 102 1229 q 149 1291 130 1275 q 187 1308 168 1308 q 216 1301 205 1308 q 235 1282 228 1294 q 246 1255 243 1271 q 250 1223 250 1240 q 241 1168 250 1194 q 222 1120 233 1143 q 234 1111 227 1116 q 248 1100 241 1105 l 259 1090 q 263 1085 263 1088 m 193 1181 q 179 1212 193 1199 q 148 1225 165 1225 q 138 1221 142 1225 q 134 1213 134 1217 q 146 1187 134 1204 q 180 1150 157 1169 q 189 1165 184 1158 q 193 1181 193 1172 z "},"ِ":{"ha":0,"x_min":-18,"x_max":327,"o":"m 327 -464 q 288 -532 305 -514 q 245 -563 271 -551 l -18 -677 q 11 -621 -1 -637 q 62 -578 31 -591 l 327 -464 z "},"ّ":{"ha":0,"x_min":-11,"x_max":335,"o":"m 335 1165 q 235 1017 335 1017 q 202 1021 214 1017 q 171 1036 190 1024 q 133 977 164 1004 q 65 951 102 951 q 8 972 27 951 q -11 1044 -11 994 q -6 1091 -11 1063 q 5 1141 -1 1119 l 28 1143 q 41 1065 28 1089 q 76 1042 53 1042 q 130 1080 110 1042 q 157 1196 151 1119 l 175 1202 q 189 1143 182 1172 q 235 1108 201 1108 q 293 1168 283 1108 q 296 1237 296 1187 l 319 1246 q 329 1208 323 1230 q 335 1165 335 1187 z "},"ْ":{"ha":0,"x_min":19,"x_max":270,"o":"m 270 1108 q 132 962 270 962 q 50 988 80 962 q 19 1061 19 1015 q 60 1200 19 1135 q 160 1264 100 1264 q 238 1217 206 1264 q 270 1108 270 1171 m 228 1090 q 201 1152 228 1119 q 130 1190 170 1190 q 81 1165 106 1190 q 57 1109 57 1141 q 152 1044 57 1044 q 207 1057 186 1044 q 228 1090 228 1070 z "},"٠":{"ha":864,"x_min":359,"x_max":499,"o":"m 499 288 q 483 252 488 267 l 458 182 q 407 216 431 197 q 361 255 384 233 q 378 306 368 277 q 403 361 389 335 q 450 320 426 339 q 499 288 473 301 z "},"١":{"ha":864,"x_min":350,"x_max":515,"o":"m 515 133 q 515 54 515 94 l 499 54 q 492 122 499 54 q 412 365 481 228 q 350 464 389 411 l 380 600 l 406 563 q 445 496 423 537 q 471 438 460 468 q 504 291 492 374 q 515 133 515 208 z "},"٢":{"ha":864,"x_min":241,"x_max":628,"o":"m 412 31 q 403 165 411 106 q 372 299 395 235 q 313 422 350 363 q 243 511 282 469 l 275 646 l 298 617 q 362 563 326 585 q 450 538 404 538 q 556 574 519 538 q 616 656 586 604 l 628 656 q 560 499 624 559 q 431 444 500 444 l 406 444 l 411 418 q 430 305 423 369 q 437 182 437 241 q 433 100 437 122 l 429 31 l 412 31 z "},"٣":{"ha":864,"x_min":217,"x_max":650,"o":"m 488 625 q 500 587 494 604 q 541 537 518 548 q 560 533 551 533 q 639 623 635 536 q 650 623 644 623 q 627 503 640 541 q 556 438 604 438 q 472 484 513 438 l 464 460 q 438 435 458 444 q 404 427 420 427 l 378 427 l 384 403 q 397 298 393 361 q 400 168 401 236 q 397 94 399 99 l 392 37 q 376 37 384 37 q 366 160 374 103 q 334 297 357 231 q 284 410 313 357 q 217 511 255 463 l 248 635 q 286 583 264 609 q 382 522 336 522 q 463 574 429 522 q 488 625 477 595 z "},"٤":{"ha":864,"x_min":269,"x_max":578,"o":"m 578 113 q 552 79 564 94 q 487 20 506 20 q 433 26 463 20 q 369 46 403 31 q 311 85 332 61 q 289 122 289 110 q 321 218 289 164 q 382 300 346 260 l 401 319 l 377 331 l 346 346 q 301 369 316 361 q 269 396 275 384 q 327 515 269 444 q 468 642 381 582 l 431 533 q 361 502 392 519 q 334 486 339 490 q 326 467 326 476 q 326 460 326 465 q 332 446 326 454 q 404 400 365 418 q 471 365 458 377 q 463 346 469 359 q 446 317 453 326 q 391 264 427 300 q 350 213 355 228 q 349 203 349 208 q 369 163 349 182 q 420 130 393 138 q 490 118 446 122 q 578 113 534 114 z "},"٥":{"ha":864,"x_min":260,"x_max":605,"o":"m 605 321 q 560 114 605 178 q 406 47 514 47 q 286 87 320 47 q 260 180 260 117 q 283 378 260 264 q 342 575 307 491 q 396 655 376 655 q 477 616 431 655 q 564 499 530 570 q 605 321 605 415 m 319 216 q 414 160 345 160 q 530 201 483 160 q 578 298 578 243 q 509 441 578 358 q 387 525 441 525 q 362 518 370 525 q 326 429 345 498 q 308 298 307 361 q 319 216 309 236 z "},"٦":{"ha":864,"x_min":235,"x_max":629,"o":"m 629 152 l 609 37 q 514 197 544 92 q 484 495 484 305 l 484 533 l 453 511 q 415 502 444 506 q 368 498 387 498 q 302 506 330 498 q 259 529 275 514 q 245 566 252 536 q 235 655 237 601 q 296 617 258 633 q 393 597 346 597 q 463 604 425 597 q 529 625 500 612 q 518 555 522 586 q 515 484 515 521 q 549 303 515 403 q 629 152 582 203 z "},"٧":{"ha":864,"x_min":208,"x_max":658,"o":"m 658 534 q 594 463 623 509 q 541 351 570 422 q 494 199 518 292 q 465 60 476 130 q 448 126 458 92 q 404 248 430 184 q 356 355 382 300 q 290 455 330 411 q 209 522 250 499 l 232 654 q 297 606 270 635 q 365 509 332 570 q 404 410 384 472 q 437 281 423 349 q 457 264 441 264 q 477 281 473 264 q 500 378 488 334 q 530 465 513 423 q 595 589 563 547 q 658 652 628 631 l 658 534 z "},"٨":{"ha":864,"x_min":206,"x_max":656,"o":"m 206 144 q 270 216 241 168 q 323 327 293 255 q 372 480 349 392 q 399 620 388 549 q 418 551 406 587 q 460 430 435 490 q 508 323 481 378 q 574 223 534 267 q 655 156 614 179 l 633 24 q 568 73 597 43 q 499 170 530 111 q 460 269 480 206 q 427 397 441 331 q 407 414 423 414 q 387 397 391 414 q 365 302 376 343 q 334 213 354 262 q 268 88 300 129 q 206 24 236 47 l 206 144 z "},"٩":{"ha":864,"x_min":258,"x_max":605,"o":"m 605 152 l 586 37 q 505 151 533 81 q 472 339 472 229 q 472 377 472 339 q 372 320 435 334 q 285 347 312 320 q 258 441 258 374 q 297 594 258 522 q 392 669 339 669 q 450 631 427 669 q 484 533 472 597 q 498 422 492 494 q 533 277 505 350 q 605 152 563 198 m 376 403 q 426 427 406 403 q 446 476 446 452 q 426 536 446 503 q 359 579 399 579 q 309 547 334 579 q 285 486 285 514 q 314 427 285 452 q 376 403 343 403 z "},"٪":{"ha":640,"x_min":58,"x_max":591,"o":"m 590 103 q 575 69 581 83 l 549 -3 q 499 31 524 12 q 452 71 475 50 q 469 122 458 94 q 494 176 480 151 q 541 136 517 155 q 590 103 566 118 m 197 838 q 182 803 186 817 l 156 732 q 104 766 130 747 q 58 806 81 784 q 76 857 65 827 q 100 911 87 886 q 147 871 123 890 q 197 838 171 852 m 591 922 l 129 0 l 58 0 l 519 922 l 591 922 z "},"٭":{"ha":864,"x_min":190,"x_max":674,"o":"m 674 807 l 526 697 l 582 522 l 433 629 l 282 522 l 338 697 l 190 807 l 374 807 l 433 983 l 491 807 l 674 807 z "},"ٮ":{"ha":864,"x_min":46,"x_max":818,"o":"m 210 20 q 94 54 134 20 q 46 176 46 95 q 75 297 46 228 q 110 363 91 336 q 77 254 77 297 q 111 170 77 199 q 239 133 152 133 l 774 133 l 774 153 q 749 240 774 195 l 749 241 l 747 241 l 715 288 l 749 389 q 787 304 769 354 q 818 132 818 214 l 818 20 l 210 20 z "},"ٹ":{"ha":864,"x_min":46,"x_max":818,"o":"m 529 387 q 540 387 534 387 q 549 389 545 387 q 555 393 552 391 q 560 401 559 397 q 562 416 562 410 q 555 433 559 425 q 545 444 551 438 q 533 452 540 448 q 515 460 525 456 q 496 463 506 463 q 479 460 487 463 q 458 452 468 457 q 431 431 445 442 q 407 407 419 419 l 388 387 l 529 387 m 578 431 q 578 420 578 426 q 574 385 578 403 q 568 365 572 374 q 556 343 564 353 q 548 338 552 340 q 538 336 543 336 l 330 336 q 321 338 326 336 q 315 342 319 339 q 301 355 308 347 q 292 373 296 363 q 286 393 288 384 l 286 395 q 302 388 294 391 q 316 387 309 387 l 343 387 q 358 387 351 387 q 368 389 363 388 q 380 400 374 395 q 388 411 384 406 l 392 418 l 391 427 q 384 476 387 452 q 374 537 380 506 q 365 589 372 560 q 354 623 358 609 l 377 680 q 384 654 381 667 q 389 624 387 639 q 396 578 393 601 q 400 530 397 553 q 403 498 401 514 q 406 460 404 479 l 408 435 l 435 464 q 457 487 446 476 q 471 496 464 492 q 491 510 480 505 q 509 514 499 513 q 509 514 509 514 q 530 509 519 513 q 551 492 541 502 q 570 465 562 480 q 578 431 575 449 m 210 20 q 94 54 134 20 q 46 176 46 95 q 75 297 46 228 q 110 363 91 336 q 77 254 77 297 q 111 170 77 199 q 239 133 152 133 l 774 133 l 774 153 q 749 240 774 195 l 749 241 l 747 241 l 715 288 l 749 389 q 787 304 769 354 q 818 132 818 214 l 818 20 l 210 20 z "},"ټ":{"ha":864,"x_min":46,"x_max":818,"o":"m 521 -62 q 510 -119 521 -92 q 480 -167 499 -146 q 435 -199 461 -187 q 378 -212 410 -212 q 311 -180 335 -212 q 288 -79 288 -148 q 297 -24 288 -50 q 324 22 307 1 q 366 54 342 42 q 420 65 391 65 q 459 53 441 65 q 491 22 477 41 q 513 -20 505 3 q 521 -62 521 -42 m 468 -90 q 458 -65 468 -79 q 435 -39 449 -52 q 406 -20 422 -27 q 376 -12 389 -12 q 336 -31 351 -12 q 321 -71 321 -49 q 328 -91 321 -81 q 346 -107 335 -100 q 372 -117 357 -114 q 400 -121 387 -121 q 421 -118 410 -121 q 444 -111 433 -115 q 461 -100 454 -106 q 468 -90 468 -95 m 387 414 l 309 336 l 227 420 l 304 498 l 387 414 m 636 416 l 559 339 l 475 422 l 552 500 l 636 416 m 210 20 q 94 54 134 20 q 46 176 46 95 q 75 297 46 228 q 110 363 91 336 q 77 254 77 297 q 111 170 77 199 q 239 133 152 133 l 774 133 l 774 153 q 749 240 774 195 l 749 241 l 747 241 l 715 288 l 749 389 q 787 304 769 354 q 818 132 818 214 l 818 20 l 210 20 z "},"پ":{"ha":864,"x_min":46,"x_max":818,"o":"m 410 -141 l 327 -225 l 250 -146 l 332 -62 l 410 -141 m 659 -144 l 575 -228 l 498 -149 l 582 -65 l 659 -144 m 529 -298 l 446 -382 l 369 -307 l 453 -222 l 529 -298 m 210 20 q 94 54 134 20 q 46 176 46 95 q 75 297 46 228 q 110 363 91 336 q 77 254 77 297 q 111 170 77 199 q 239 133 152 133 l 774 133 l 774 153 q 749 240 774 195 l 749 241 l 747 241 l 715 288 l 749 389 q 787 304 769 354 q 818 132 818 214 l 818 20 l 210 20 z "},"ځ":{"ha":864,"x_min":140,"x_max":692,"o":"m 563 562 l 525 541 q 445 496 473 513 q 378 449 399 468 l 378 472 q 393 513 381 484 q 407 543 397 524 q 384 562 393 549 q 372 605 372 579 q 415 713 372 652 q 506 781 461 781 q 536 769 526 781 q 545 735 545 755 q 538 699 545 718 q 524 678 533 681 q 515 686 518 685 q 490 697 502 697 q 438 674 468 697 q 407 631 407 651 q 434 613 407 621 q 484 605 461 605 q 544 627 505 605 l 593 654 l 563 562 m 408 199 q 328 262 369 236 q 236 296 275 296 q 184 279 212 296 q 176 273 180 275 q 189 312 183 296 q 273 403 222 403 q 366 353 312 403 l 475 251 q 609 190 540 190 l 690 190 l 636 84 l 458 84 q 262 21 346 84 q 179 -126 179 -42 q 285 -286 179 -213 q 534 -359 391 -359 l 690 -359 q 591 -438 636 -406 q 521 -471 545 -471 q 255 -399 359 -471 q 140 -176 140 -319 q 181 -20 140 -103 q 285 110 222 64 q 324 132 297 119 q 401 165 359 148 l 433 178 l 408 199 z "},"څ":{"ha":864,"x_min":140,"x_max":692,"o":"m 476 505 l 399 426 l 316 510 l 393 589 l 476 505 m 684 507 l 606 429 l 522 513 l 600 591 l 684 507 m 572 635 l 496 559 l 412 643 l 490 719 l 572 635 m 408 199 q 328 262 369 236 q 236 296 275 296 q 184 279 212 296 q 176 273 180 275 q 189 312 183 296 q 273 403 222 403 q 366 353 312 403 l 475 251 q 609 190 540 190 l 690 190 l 636 84 l 458 84 q 262 21 346 84 q 179 -126 179 -42 q 285 -286 179 -213 q 534 -359 391 -359 l 690 -359 q 591 -438 636 -406 q 521 -471 545 -471 q 255 -399 359 -471 q 140 -176 140 -319 q 181 -20 140 -103 q 285 110 222 64 q 324 132 297 119 q 401 165 359 148 l 433 178 l 408 199 z "},"چ":{"ha":864,"x_min":140,"x_max":692,"o":"m 477 -75 l 395 -159 l 317 -81 l 400 3 l 477 -75 m 685 -77 l 601 -161 l 524 -83 l 608 0 l 685 -77 m 574 -206 l 491 -290 l 414 -213 l 498 -129 l 574 -206 m 408 199 q 328 262 369 236 q 236 296 275 296 q 184 279 212 296 q 176 273 180 275 q 189 312 183 296 q 273 403 222 403 q 366 353 312 403 l 475 251 q 609 190 540 190 l 690 190 l 636 84 l 458 84 q 262 21 346 84 q 179 -126 179 -42 q 285 -286 179 -213 q 534 -359 391 -359 l 690 -359 q 591 -438 636 -406 q 521 -471 545 -471 q 255 -399 359 -471 q 140 -176 140 -319 q 181 -20 140 -103 q 285 110 222 64 q 324 132 297 119 q 401 165 359 148 l 433 178 l 408 199 z "},"ڈ":{"ha":864,"x_min":248,"x_max":616,"o":"m 510 644 q 521 644 515 644 q 530 647 526 644 q 536 651 533 648 q 541 659 540 655 q 543 674 543 667 q 536 690 540 682 q 526 701 532 696 q 514 709 521 705 q 496 718 506 713 q 477 720 487 720 q 460 718 468 720 q 439 709 449 715 q 412 689 426 700 q 388 665 400 677 l 369 644 l 510 644 m 559 689 q 559 678 559 684 q 555 643 559 661 q 549 623 553 632 q 537 601 545 610 q 529 595 533 598 q 519 594 524 594 l 311 594 q 302 595 307 594 q 296 600 300 597 q 282 613 289 605 q 273 631 277 621 q 267 651 269 642 l 267 652 q 283 646 275 648 q 297 644 290 644 l 324 644 q 339 644 332 644 q 349 647 345 646 q 361 658 355 652 q 369 669 365 663 l 373 675 l 372 685 q 365 734 368 709 q 355 795 361 764 q 346 846 353 818 q 335 880 339 867 l 358 937 q 365 911 362 925 q 370 882 368 897 q 377 836 374 859 q 381 788 378 811 q 384 755 382 772 q 387 718 385 736 l 389 693 l 416 722 q 438 745 427 734 q 452 754 445 750 q 472 768 461 762 q 490 772 480 770 q 490 772 490 772 q 511 766 500 770 q 532 750 522 760 q 551 723 543 738 q 559 689 556 707 m 614 104 q 613 68 614 85 q 606 42 610 54 q 594 26 601 33 q 583 22 589 23 q 572 20 578 20 l 289 20 q 279 22 285 20 q 273 27 275 23 q 259 46 264 35 q 252 79 255 61 q 250 117 250 98 q 250 125 250 121 q 250 144 250 134 q 252 156 251 151 l 259 183 l 260 180 q 279 160 270 170 q 302 145 290 152 q 324 136 313 140 q 349 133 336 133 l 519 133 q 525 134 522 133 q 530 134 528 134 q 538 137 534 136 q 547 142 543 140 q 557 152 552 148 q 567 167 563 159 q 570 198 571 182 q 557 236 566 217 q 515 298 538 270 q 458 354 487 327 q 420 395 438 374 l 433 525 q 463 499 448 511 q 488 473 476 486 q 522 434 506 454 q 551 395 537 415 q 579 336 567 366 q 600 262 591 300 q 610 186 606 224 q 614 117 614 151 q 614 104 614 110 z "},"ډ":{"ha":864,"x_min":248,"x_max":616,"o":"m 562 -68 q 551 -125 562 -98 q 521 -172 540 -152 q 476 -205 502 -193 q 420 -217 450 -217 q 353 -184 377 -217 q 328 -84 328 -152 q 338 -28 328 -54 q 365 18 347 -3 q 407 49 382 38 q 461 60 431 60 q 500 47 483 60 q 532 16 518 35 q 553 -24 545 -3 q 562 -68 562 -46 m 510 -95 q 500 -71 510 -84 q 477 -45 491 -57 q 448 -24 464 -33 q 418 -16 431 -16 q 378 -35 393 -16 q 363 -76 363 -54 q 370 -96 363 -87 q 388 -113 377 -106 q 414 -122 399 -119 q 442 -125 429 -125 q 463 -122 450 -125 q 486 -115 475 -119 q 503 -106 496 -111 q 510 -95 510 -100 m 614 104 q 613 68 614 85 q 606 42 610 54 q 594 26 601 33 q 583 22 589 23 q 572 20 578 20 l 289 20 q 279 22 285 20 q 273 27 275 23 q 259 46 264 35 q 252 79 255 61 q 250 117 250 98 q 250 125 250 121 q 250 144 250 134 q 252 156 251 151 l 259 183 l 260 180 q 279 160 270 170 q 302 145 290 152 q 324 136 313 140 q 349 133 336 133 l 519 133 q 525 134 522 133 q 530 134 528 134 q 538 137 534 136 q 547 142 543 140 q 557 152 552 148 q 567 167 563 159 q 570 198 571 182 q 557 236 566 217 q 515 298 538 270 q 458 354 487 327 q 420 395 438 374 l 433 525 q 463 499 448 511 q 488 473 476 486 q 522 434 506 454 q 551 395 537 415 q 579 336 567 366 q 600 262 591 300 q 610 186 606 224 q 614 117 614 151 q 614 104 614 110 z "},"ڑ":{"ha":864,"x_min":254,"x_max":659,"o":"m 609 544 q 620 544 614 544 q 629 547 625 544 q 635 551 632 548 q 640 559 639 555 q 642 574 642 567 q 635 590 639 582 q 625 601 631 595 q 613 609 620 605 q 595 617 605 613 q 576 620 586 620 q 559 617 567 620 q 538 609 548 614 q 511 589 525 600 q 487 564 499 576 l 468 544 l 609 544 m 658 589 q 658 578 658 583 q 654 543 658 560 q 648 522 652 532 q 636 500 644 510 q 628 495 632 498 q 618 494 623 494 l 410 494 q 401 495 406 494 q 395 499 399 496 q 381 513 388 505 q 372 530 376 521 q 366 551 368 541 l 366 552 q 382 545 374 548 q 396 544 389 544 l 423 544 q 438 544 431 544 q 448 547 444 545 q 460 557 454 552 q 468 568 464 563 l 472 575 l 471 585 q 464 633 467 609 q 454 694 460 663 q 445 746 452 718 q 434 780 438 766 l 457 837 q 464 811 461 825 q 469 781 467 796 q 476 735 473 758 q 480 688 477 711 q 483 655 481 671 q 486 617 484 636 l 488 593 l 515 621 q 537 644 526 633 q 551 654 544 650 q 571 667 560 662 q 589 671 579 670 q 589 671 589 671 q 610 666 600 670 q 631 650 621 659 q 650 623 642 637 q 658 589 655 606 m 353 -317 q 327 -313 340 -316 q 300 -301 313 -308 q 274 -285 286 -293 q 254 -270 264 -277 q 374 -212 316 -245 q 464 -142 420 -179 q 572 -16 525 -85 q 591 58 587 20 q 591 68 591 64 q 583 106 589 87 q 557 160 574 134 q 524 208 541 184 q 505 232 514 220 l 551 369 l 553 365 q 581 309 568 338 q 602 252 591 282 q 621 170 614 212 q 628 85 627 127 q 620 0 627 42 q 595 -88 610 -45 q 553 -176 578 -133 q 499 -248 529 -214 q 430 -300 468 -278 q 358 -317 395 -315 q 353 -317 355 -317 z "},"ړ":{"ha":864,"x_min":254,"x_max":659,"o":"m 659 -298 q 648 -355 659 -328 q 618 -403 637 -382 q 574 -435 600 -423 q 517 -448 548 -448 q 450 -416 473 -448 q 426 -315 426 -384 q 435 -260 426 -286 q 463 -214 445 -235 q 505 -182 480 -194 q 559 -171 529 -171 q 597 -183 579 -171 q 629 -214 616 -195 q 651 -256 643 -233 q 659 -298 659 -278 m 606 -326 q 597 -301 606 -315 q 574 -275 587 -288 q 544 -256 560 -263 q 514 -248 528 -248 q 475 -267 490 -248 q 460 -307 460 -285 q 467 -327 460 -317 q 484 -343 473 -336 q 510 -353 495 -350 q 538 -357 525 -357 q 559 -354 548 -357 q 582 -347 571 -351 q 600 -336 593 -342 q 606 -326 606 -331 m 353 -317 q 327 -313 340 -316 q 300 -301 313 -308 q 274 -285 286 -293 q 254 -270 264 -277 q 374 -212 316 -245 q 464 -142 420 -179 q 572 -16 525 -85 q 591 58 587 20 q 591 68 591 64 q 583 106 589 87 q 557 160 574 134 q 524 208 541 184 q 505 232 514 220 l 551 369 l 553 365 q 581 309 568 338 q 602 252 591 282 q 621 170 614 212 q 628 85 627 127 q 620 0 627 42 q 595 -88 610 -45 q 553 -176 578 -133 q 499 -248 529 -214 q 430 -300 468 -278 q 358 -317 395 -315 q 353 -317 355 -317 z "},"ږ":{"ha":864,"x_min":254,"x_max":760,"o":"m 760 -316 l 682 -392 l 598 -309 l 675 -232 l 760 -316 m 429 60 l 350 -16 l 266 68 l 345 144 l 429 60 m 353 -317 q 327 -313 340 -316 q 300 -301 313 -308 q 274 -285 286 -293 q 254 -270 264 -277 q 374 -212 316 -245 q 464 -142 420 -179 q 572 -16 525 -85 q 591 58 587 20 q 591 68 591 64 q 583 106 589 87 q 557 160 574 134 q 524 208 541 184 q 505 232 514 220 l 551 369 l 553 365 q 581 309 568 338 q 602 252 591 282 q 621 170 614 212 q 628 85 627 127 q 620 0 627 42 q 595 -88 610 -45 q 553 -176 578 -133 q 499 -248 529 -214 q 430 -300 468 -278 q 358 -317 395 -315 q 353 -317 355 -317 z "},"ژ":{"ha":864,"x_min":254,"x_max":727,"o":"m 519 505 l 442 426 l 359 510 l 437 589 l 519 505 m 727 507 l 650 429 l 566 513 l 643 591 l 727 507 m 616 635 l 540 559 l 456 643 l 533 719 l 616 635 m 353 -317 q 327 -313 340 -316 q 300 -301 313 -308 q 274 -285 286 -293 q 254 -270 264 -277 q 374 -212 316 -245 q 464 -142 420 -179 q 572 -16 525 -85 q 591 58 587 20 q 591 68 591 64 q 583 106 589 87 q 557 160 574 134 q 524 208 541 184 q 505 232 514 220 l 551 369 l 553 365 q 581 309 568 338 q 602 252 591 282 q 621 170 614 212 q 628 85 627 127 q 620 0 627 42 q 595 -88 610 -45 q 553 -176 578 -133 q 499 -248 529 -214 q 430 -300 468 -278 q 358 -317 395 -315 q 353 -317 355 -317 z "},"ښ":{"ha":864,"x_min":34,"x_max":842,"o":"m 719 -141 l 642 -217 l 557 -134 l 635 -57 l 719 -141 m 659 483 l 583 407 l 499 491 l 575 567 l 659 483 m 502 152 q 556 165 530 153 q 602 205 582 182 q 623 237 613 220 q 640 277 632 256 q 658 236 648 255 q 678 203 667 220 q 719 168 697 183 q 761 156 739 159 q 768 156 764 156 q 774 157 770 156 q 803 172 791 161 q 811 186 808 179 q 812 202 812 194 l 812 203 q 812 208 812 206 q 811 212 812 210 q 811 214 811 213 q 811 214 811 214 q 802 236 807 225 q 784 262 793 250 q 776 273 780 267 q 766 282 772 278 l 803 370 q 817 338 811 354 q 826 308 822 323 q 838 248 833 278 q 841 178 841 213 q 836 121 840 149 q 822 85 830 102 q 795 57 810 71 q 784 50 789 53 q 770 49 777 49 l 760 49 q 739 52 749 49 q 718 58 728 54 q 682 80 699 68 q 655 115 667 96 l 636 148 l 618 113 q 605 91 613 102 q 582 69 594 80 q 551 49 567 57 q 506 37 529 39 q 448 42 476 35 l 448 -7 q 442 -65 448 -37 q 422 -121 434 -94 q 385 -182 406 -153 q 331 -231 361 -209 q 285 -258 309 -245 q 248 -269 267 -264 q 203 -274 227 -273 q 202 -274 203 -274 q 198 -274 201 -274 q 133 -259 164 -271 q 77 -214 102 -241 q 45 -148 57 -183 q 34 -54 34 -102 q 41 4 37 -24 q 64 76 50 41 l 73 66 q 60 -7 61 31 q 73 -61 64 -35 q 122 -125 94 -98 q 171 -152 145 -141 q 233 -161 201 -160 q 234 -161 233 -161 q 235 -161 235 -161 q 264 -159 250 -161 q 300 -149 282 -155 q 343 -129 321 -140 q 376 -107 361 -119 q 400 -76 389 -92 q 420 -38 411 -57 l 422 -34 l 422 -30 q 415 26 422 -1 q 377 92 400 61 q 361 115 369 104 q 338 142 350 129 l 384 254 q 399 229 391 241 q 418 206 408 217 q 463 165 438 183 q 502 152 481 156 z "},"ڤ":{"ha":864,"x_min":33,"x_max":838,"o":"m 408 750 l 331 673 l 248 757 l 326 834 l 408 750 m 658 753 l 581 675 l 496 758 l 574 837 l 658 753 m 528 909 l 452 831 l 368 916 l 445 993 l 528 909 m 491 20 l 187 20 q 71 55 110 20 q 33 171 33 90 q 57 270 33 216 q 95 349 81 324 q 106 165 45 225 q 227 133 138 133 l 235 133 l 491 133 l 690 133 l 571 183 q 507 232 515 208 q 506 235 506 235 l 524 359 l 526 376 q 571 541 543 477 q 644 612 605 612 q 765 494 703 612 q 838 182 838 357 l 838 66 q 827 31 838 41 q 773 20 815 20 l 491 20 m 553 331 l 559 326 l 788 231 q 696 416 762 355 q 623 453 659 450 q 553 331 568 456 z "},"ک":{"ha":864,"x_min":50,"x_max":844,"o":"m 193 20 q 84 70 117 20 q 52 274 52 119 q 56 281 52 278 q 65 285 60 285 q 75 271 75 283 q 80 201 77 232 q 94 156 83 171 q 116 140 103 145 q 147 135 129 136 q 193 133 165 134 l 720 133 l 705 163 q 639 248 685 205 q 536 321 593 290 q 475 346 502 339 q 423 353 448 353 q 372 345 392 353 q 351 338 363 342 q 323 389 340 349 q 304 452 305 430 q 425 613 340 517 q 633 810 519 720 q 844 944 747 901 l 844 823 q 673 738 765 795 q 518 618 593 686 q 408 502 458 563 l 389 479 l 419 471 q 475 453 465 457 q 534 423 507 439 q 704 271 655 351 q 749 114 749 201 q 739 56 749 79 q 704 20 724 20 l 193 20 z "},"ګ":{"ha":864,"x_min":50,"x_max":844,"o":"m 787 651 q 776 594 787 621 q 746 547 765 567 q 701 514 727 526 q 646 502 675 502 q 578 534 602 502 q 553 635 553 566 q 563 689 553 663 q 590 735 572 715 q 632 767 608 755 q 686 779 656 779 q 726 766 708 779 q 757 735 743 754 q 779 694 770 716 q 787 651 787 671 m 735 624 q 726 648 735 635 q 703 674 716 662 q 673 694 689 686 q 643 701 656 701 q 604 683 618 701 q 589 643 589 665 q 595 623 589 632 q 613 606 602 613 q 639 596 624 600 q 667 593 654 593 q 688 595 675 593 q 711 603 700 598 q 728 613 722 608 q 735 624 735 618 m 193 20 q 84 70 117 20 q 52 274 52 119 q 56 281 52 278 q 65 285 60 285 q 75 271 75 283 q 80 201 77 232 q 94 156 83 171 q 116 140 103 145 q 147 135 129 136 q 193 133 165 134 l 720 133 l 705 163 q 639 248 685 205 q 536 321 593 290 q 475 346 502 339 q 423 353 448 353 q 372 345 392 353 q 351 338 363 342 q 323 389 340 349 q 304 452 305 430 q 425 613 340 517 q 633 810 519 720 q 844 944 747 901 l 844 823 q 673 738 765 795 q 518 618 593 686 q 408 502 458 563 l 389 479 l 419 471 q 475 453 465 457 q 534 423 507 439 q 704 271 655 351 q 749 114 749 201 q 739 56 749 79 q 704 20 724 20 l 193 20 z "},"گ":{"ha":864,"x_min":50,"x_max":844,"o":"m 802 1090 q 791 1005 799 1054 q 495 798 636 922 q 267 532 354 673 l 244 595 q 489 884 334 749 q 802 1090 644 1019 m 193 20 q 84 70 117 20 q 52 274 52 119 q 56 281 52 278 q 65 285 60 285 q 75 271 75 283 q 80 201 77 232 q 94 156 83 171 q 116 140 103 145 q 147 135 129 136 q 193 133 165 134 l 720 133 l 705 163 q 639 248 685 205 q 536 321 593 290 q 475 346 502 339 q 423 353 448 353 q 372 345 392 353 q 351 338 363 342 q 323 389 340 349 q 304 452 305 430 q 425 613 340 517 q 633 810 519 720 q 844 944 747 901 l 844 823 q 673 738 765 795 q 518 618 593 686 q 408 502 458 563 l 389 479 l 419 471 q 475 453 465 457 q 534 423 507 439 q 704 271 655 351 q 749 114 749 201 q 739 56 749 79 q 704 20 724 20 l 193 20 z "},"ں":{"ha":864,"x_min":137,"x_max":727,"o":"m 704 106 q 666 191 690 144 q 635 258 633 250 l 663 353 q 705 252 690 297 q 727 127 727 183 l 727 68 q 659 -38 727 11 q 500 -110 600 -81 q 351 -133 418 -133 q 184 -79 239 -133 q 137 45 137 -33 q 165 221 137 133 q 160 157 160 183 q 231 12 160 56 q 380 -20 283 -20 q 583 12 484 -20 q 703 77 677 42 l 709 87 l 704 106 z "},"ڼ":{"ha":864,"x_min":137,"x_max":727,"o":"m 582 -176 q 571 -233 582 -206 q 541 -281 560 -260 q 496 -313 522 -301 q 439 -326 471 -326 q 372 -294 396 -326 q 349 -193 349 -262 q 358 -138 349 -164 q 385 -92 368 -113 q 427 -60 403 -72 q 481 -49 452 -49 q 520 -61 502 -49 q 552 -92 538 -73 q 574 -134 566 -111 q 582 -176 582 -156 m 529 -203 q 519 -179 529 -193 q 496 -153 510 -165 q 467 -134 483 -141 q 437 -126 450 -126 q 397 -144 412 -126 q 382 -184 382 -163 q 389 -205 382 -195 q 407 -221 396 -214 q 433 -231 418 -228 q 461 -235 448 -235 q 482 -232 471 -235 q 505 -224 494 -229 q 522 -214 515 -220 q 529 -203 529 -209 m 503 416 l 426 339 l 343 423 l 419 500 l 503 416 m 704 106 q 666 191 690 144 q 635 258 633 250 l 663 353 q 705 252 690 297 q 727 127 727 183 l 727 68 q 659 -38 727 11 q 500 -110 600 -81 q 351 -133 418 -133 q 184 -79 239 -133 q 137 45 137 -33 q 165 221 137 133 q 160 157 160 183 q 231 12 160 56 q 380 -20 283 -20 q 583 12 484 -20 q 703 77 677 42 l 709 87 l 704 106 z "},"ھ":{"ha":864,"x_min":50,"x_max":772,"o":"m 277 191 q 250 234 258 218 q 243 278 243 250 q 290 396 243 336 q 382 483 324 439 l 404 499 l 345 544 l 416 655 l 458 618 q 579 503 510 572 q 686 377 654 429 q 741 270 718 327 q 772 133 772 194 l 772 52 q 743 -1 772 22 q 678 -24 715 -24 q 518 22 631 -24 q 396 79 429 58 l 384 85 l 373 77 q 298 45 357 65 q 165 19 224 19 l 50 19 l 119 138 l 126 138 q 203 144 165 138 q 267 160 241 149 l 292 170 l 277 191 m 666 110 q 699 113 682 110 q 726 130 716 115 l 730 138 l 727 146 q 680 247 712 195 q 595 339 640 308 l 563 362 l 563 323 q 551 252 563 290 q 517 190 538 213 l 498 171 l 522 159 q 590 127 566 137 q 666 110 636 110 m 423 217 q 480 254 448 225 q 538 324 517 285 l 544 334 l 538 343 q 497 395 524 372 q 441 419 471 419 q 363 389 412 419 q 288 330 321 363 l 273 316 l 286 301 q 362 243 308 277 q 408 217 391 225 l 415 214 l 423 217 z "},"ۀ":{"ha":864,"x_min":255,"x_max":595,"o":"m 534 732 l 496 712 q 416 667 445 684 q 350 620 370 639 l 350 643 q 365 684 353 655 q 378 713 369 694 q 355 732 365 720 q 343 776 343 750 q 387 884 343 823 q 477 952 433 952 q 507 940 498 952 q 517 906 517 926 q 510 869 517 888 q 495 849 505 852 q 487 857 490 856 q 461 868 473 868 q 410 845 439 868 q 378 802 378 822 q 406 784 378 792 q 456 776 433 776 q 515 798 476 776 l 564 825 l 534 732 m 479 568 q 595 197 595 335 q 560 18 595 60 q 435 -23 525 -23 q 256 92 256 -23 q 359 332 256 197 q 435 418 395 377 l 454 437 l 401 490 l 479 568 m 445 111 q 555 198 574 106 q 454 313 529 326 q 330 179 380 301 q 445 111 320 118 z "},"ۃ":{"ha":864,"x_min":255,"x_max":681,"o":"m 431 712 l 354 635 l 271 719 l 349 796 l 431 712 m 681 715 l 604 637 l 519 720 l 597 799 l 681 715 m 479 568 q 595 197 595 335 q 560 18 595 60 q 435 -23 525 -23 q 256 92 256 -23 q 359 332 256 197 q 435 418 395 377 l 454 437 l 401 490 l 479 568 m 445 111 q 555 198 574 106 q 454 313 529 326 q 330 179 380 301 q 445 111 320 118 z "},"ی":{"ha":864,"x_min":109,"x_max":754,"o":"m 494 239 q 604 203 515 227 q 692 144 692 180 l 692 81 q 627 -48 692 3 q 475 -121 563 -99 q 317 -142 388 -142 q 154 -98 199 -142 q 110 49 109 -53 q 137 198 111 113 l 157 194 q 191 3 140 41 q 327 -34 243 -34 q 529 -9 411 -34 q 648 46 598 4 l 663 65 l 647 83 q 554 110 643 87 q 449 152 465 133 q 448 181 449 152 q 463 264 448 210 q 587 505 502 408 q 685 570 646 570 q 739 557 724 570 q 742 431 766 536 q 736 410 741 422 q 675 454 718 454 q 589 418 632 454 q 484 262 511 351 l 479 247 l 494 239 z "},"ۍ":{"ha":864,"x_min":27,"x_max":817,"o":"m 217 167 q 254 3 208 38 q 389 -34 305 -34 q 591 -9 473 -34 q 711 46 661 4 l 726 65 l 709 83 q 616 110 705 87 q 511 152 528 133 q 511 181 511 152 q 525 264 510 210 q 650 505 564 408 q 747 570 708 570 q 802 557 787 570 q 804 431 829 536 q 799 410 803 422 q 737 454 780 454 q 651 418 694 454 q 547 262 574 351 l 541 247 l 556 239 q 666 203 578 227 q 754 144 754 180 l 754 81 q 690 -48 754 3 q 538 -121 625 -99 q 380 -142 450 -142 q 216 -98 262 -142 q 172 49 171 -53 q 186 145 174 92 q 28 30 126 100 l 27 111 q 199 198 160 152 l 220 194 q 217 167 218 180 z "},"ې":{"ha":864,"x_min":109,"x_max":754,"o":"m 381 -345 l 297 -263 l 374 -184 l 458 -269 l 381 -345 m 387 -528 l 302 -444 l 381 -366 l 464 -450 l 387 -528 m 494 239 q 604 203 515 227 q 692 144 692 180 l 692 81 q 627 -48 692 3 q 475 -121 563 -99 q 317 -142 388 -142 q 154 -98 199 -142 q 110 49 109 -53 q 137 198 111 113 l 157 194 q 191 3 140 41 q 327 -34 243 -34 q 529 -9 411 -34 q 648 46 598 4 l 663 65 l 647 83 q 554 110 643 87 q 449 152 465 133 q 448 181 449 152 q 463 264 448 210 q 587 505 502 408 q 685 570 646 570 q 739 557 724 570 q 742 431 766 536 q 736 410 741 422 q 675 454 718 454 q 589 418 632 454 q 484 262 511 351 l 479 247 l 494 239 z "},"۔":{"ha":864,"x_min":252,"x_max":612,"o":"m 252 0 l 320 136 l 610 136 l 543 0 l 252 0 z "},"۰":{"ha":864,"x_min":359,"x_max":499,"o":"m 499 288 q 483 252 488 267 l 458 182 q 407 216 431 197 q 361 255 384 233 q 378 306 368 277 q 403 361 389 335 q 450 320 426 339 q 499 288 473 301 z "},"۱":{"ha":864,"x_min":350,"x_max":515,"o":"m 515 133 q 515 54 515 94 l 499 54 q 492 122 499 54 q 412 365 481 228 q 350 464 389 411 l 380 600 l 406 563 q 445 496 423 537 q 471 438 460 468 q 504 291 492 374 q 515 133 515 208 z "},"۲":{"ha":864,"x_min":241,"x_max":628,"o":"m 412 31 q 403 165 411 106 q 372 299 395 235 q 313 422 350 363 q 243 511 282 469 l 275 646 l 298 617 q 362 563 326 585 q 450 538 404 538 q 556 574 519 538 q 616 656 586 604 l 628 656 q 560 499 624 559 q 431 444 500 444 l 406 444 l 411 418 q 430 305 423 369 q 437 182 437 241 q 433 100 437 122 l 429 31 l 412 31 z "}}}
